TiroBangla-Regular.ufo
<glyph name="dAnudatta" format="2">
  <unicode hex="0952"/>
  <outline>
    <contour>
      <point x="-65" y="-136" type="line"/>
      <point x="-65" y="-89" type="line"/>
      <point x="-394" y="-89" type="line"/>
      <point x="-394" y="-136" type="line"/>
    </contour>
  </outline>
</glyph>
<glyph name="bAnji" format="2">
  <advance width="519"/>
  <unicode hex="0980"/>
  <outline>
    <contour>
      <point x="430" y="-10" type="curve" smooth="yes"/>
      <point x="464" y="-10"/>
      <point x="494" y="12"/>
      <point x="494" y="46" type="curve" smooth="yes"/>
      <point x="494" y="78"/>
      <point x="469" y="100"/>
      <point x="443" y="100" type="curve" smooth="yes"/>
      <point x="434" y="100"/>
      <point x="425" y="97"/>
      <point x="423" y="96" type="curve"/>
      <point x="420" y="98" type="line"/>
      <point x="423" y="139"/>
      <point x="424" y="188"/>
      <point x="424" y="337" type="curve" smooth="yes"/>
      <point x="424" y="438" type="line" smooth="yes"/>
      <point x="424" y="521"/>
      <point x="324" y="620"/>
      <point x="244" y="620" type="curve" smooth="yes"/>
      <point x="161" y="620"/>
      <point x="40" y="511"/>
      <point x="40" y="430" type="curve" smooth="yes"/>
      <point x="40" y="353"/>
      <point x="151" y="258"/>
      <point x="263" y="258" type="curve" smooth="yes"/>
      <point x="279" y="258"/>
      <point x="297" y="260"/>
      <point x="313" y="265" type="curve"/>
      <point x="316" y="271" type="line"/>
      <point x="290" y="344" type="line"/>
      <point x="269" y="339"/>
      <point x="244" y="335"/>
      <point x="215" y="335" type="curve" smooth="yes"/>
      <point x="165" y="335"/>
      <point x="120" y="347"/>
      <point x="120" y="396" type="curve" smooth="yes"/>
      <point x="120" y="471"/>
      <point x="226" y="547"/>
      <point x="281" y="547" type="curve" smooth="yes"/>
      <point x="314" y="547"/>
      <point x="347" y="520"/>
      <point x="347" y="462" type="curve" smooth="yes"/>
      <point x="347" y="110" type="line" smooth="yes"/>
      <point x="347" y="20"/>
      <point x="390" y="-10"/>
    </contour>
  </outline>
</glyph>
<glyph name="bCandrabindu" format="2">
  <unicode hex="0981"/>
  <outline>
    <contour>
      <point x="-120" y="671" type="curve" smooth="yes"/>
      <point x="-49" y="671"/>
      <point x="13" y="723"/>
      <point x="27" y="839" type="curve"/>
      <point x="3" y="849" type="line"/>
      <point x="-3" y="847" type="line"/>
      <point x="-19" y="774"/>
      <point x="-70" y="743"/>
      <point x="-123" y="743" type="curve" smooth="yes"/>
      <point x="-174" y="743"/>
      <point x="-227" y="772"/>
      <point x="-248" y="839" type="curve"/>
      <point x="-276" y="847" type="line"/>
      <point x="-283" y="845" type="line"/>
      <point x="-263" y="728"/>
      <point x="-194" y="671"/>
    </contour>
    <contour>
      <point x="-125" y="790" type="curve" smooth="yes"/>
      <point x="-96" y="790"/>
      <point x="-74" y="813"/>
      <point x="-74" y="840" type="curve" smooth="yes"/>
      <point x="-74" y="868"/>
      <point x="-96" y="890"/>
      <point x="-125" y="890" type="curve" smooth="yes"/>
      <point x="-155" y="890"/>
      <point x="-177" y="868"/>
      <point x="-177" y="840" type="curve" smooth="yes"/>
      <point x="-177" y="813"/>
      <point x="-155" y="790"/>
    </contour>
  </outline>
  <guideline angle="0" x="0" y="837"/>
</glyph>
<glyph name="bAnusvara" format="2">
  <unicode hex="0982"/>
  <outline>
    <contour>
      <point x="385" y="-53" type="line"/>
      <point x="371" y="6" type="line"/>
      <point x="264" y="146"/>
      <point x="192" y="233"/>
      <point x="109" y="328" type="curve"/>
      <point x="103" y="326" type="line"/>
      <point x="123" y="194" type="line"/>
      <point x="213" y="116"/>
      <point x="297" y="39"/>
      <point x="378" y="-55" type="curve"/>
    </contour>
    <contour>
      <point x="201" y="354" type="curve" smooth="yes"/>
      <point x="267" y="354"/>
      <point x="323" y="401"/>
      <point x="323" y="470" type="curve" smooth="yes"/>
      <point x="323" y="540"/>
      <point x="266" y="600"/>
      <point x="189" y="600" type="curve" smooth="yes"/>
      <point x="115" y="600"/>
      <point x="62" y="544"/>
      <point x="62" y="481" type="curve" smooth="yes"/>
      <point x="62" y="412"/>
      <point x="126" y="354"/>
    </contour>
    <contour>
      <point x="166" y="405" type="curve" smooth="yes"/>
      <point x="134" y="405"/>
      <point x="118" y="424"/>
      <point x="118" y="451" type="curve" smooth="yes"/>
      <point x="118" y="504"/>
      <point x="182" y="545"/>
      <point x="225" y="545" type="curve" smooth="yes"/>
      <point x="255" y="545"/>
      <point x="272" y="527"/>
      <point x="272" y="499" type="curve" smooth="yes"/>
      <point x="272" y="449"/>
      <point x="212" y="405"/>
    </contour>
  </outline>
</glyph>
<glyph name="bVisarga" format="2">
  <unicode hex="0983"/>
  <outline>
    <contour>
      <point x="201" y="354" type="curve" smooth="yes"/>
      <point x="267" y="354"/>
      <point x="323" y="401"/>
      <point x="323" y="470" type="curve" smooth="yes"/>
      <point x="323" y="540"/>
      <point x="266" y="600"/>
      <point x="189" y="600" type="curve" smooth="yes"/>
      <point x="115" y="600"/>
      <point x="62" y="544"/>
      <point x="62" y="481" type="curve" smooth="yes"/>
      <point x="62" y="412"/>
      <point x="126" y="354"/>
    </contour>
    <contour>
      <point x="201" y="24" type="curve" smooth="yes"/>
      <point x="267" y="24"/>
      <point x="323" y="71"/>
      <point x="323" y="140" type="curve" smooth="yes"/>
      <point x="323" y="210"/>
      <point x="266" y="270"/>
      <point x="189" y="270" type="curve" smooth="yes"/>
      <point x="115" y="270"/>
      <point x="62" y="214"/>
      <point x="62" y="151" type="curve" smooth="yes"/>
      <point x="62" y="82"/>
      <point x="126" y="24"/>
    </contour>
    <contour>
      <point x="166" y="76" type="curve" smooth="yes"/>
      <point x="134" y="76"/>
      <point x="118" y="95"/>
      <point x="118" y="122" type="curve" smooth="yes"/>
      <point x="118" y="175"/>
      <point x="182" y="216"/>
      <point x="225" y="216" type="curve" smooth="yes"/>
      <point x="255" y="216"/>
      <point x="272" y="198"/>
      <point x="272" y="170" type="curve" smooth="yes"/>
      <point x="272" y="120"/>
      <point x="212" y="76"/>
    </contour>
    <contour>
      <point x="166" y="405" type="curve" smooth="yes"/>
      <point x="134" y="405"/>
      <point x="118" y="424"/>
      <point x="118" y="451" type="curve" smooth="yes"/>
      <point x="118" y="504"/>
      <point x="182" y="545"/>
      <point x="225" y="545" type="curve" smooth="yes"/>
      <point x="255" y="545"/>
      <point x="272" y="527"/>
      <point x="272" y="499" type="curve" smooth="yes"/>
      <point x="272" y="449"/>
      <point x="212" y="405"/>
    </contour>
  </outline>
</glyph>
<glyph name="bA" format="2">
  <advance width="773"/>
  <unicode hex="0985"/>
  <outline>
    <contour>
      <point x="354" y="95" type="curve" smooth="yes"/>
      <point x="463" y="95"/>
      <point x="543" y="179"/>
      <point x="543" y="283" type="curve" smooth="yes"/>
      <point x="543" y="383"/>
      <point x="467" y="506"/>
      <point x="323" y="506" type="curve" smooth="yes"/>
      <point x="254" y="506"/>
      <point x="201" y="470"/>
      <point x="201" y="408" type="curve" smooth="yes"/>
      <point x="201" y="362"/>
      <point x="240" y="315"/>
      <point x="297" y="315" type="curve" smooth="yes"/>
      <point x="339" y="315"/>
      <point x="379" y="340"/>
      <point x="379" y="396" type="curve" smooth="yes"/>
      <point x="379" y="409"/>
      <point x="376" y="425"/>
      <point x="369" y="439" type="curve"/>
      <point x="450" y="438"/>
      <point x="481" y="376"/>
      <point x="481" y="326" type="curve" smooth="yes"/>
      <point x="481" y="263"/>
      <point x="437" y="190"/>
      <point x="337" y="190" type="curve" smooth="yes"/>
      <point x="237" y="190"/>
      <point x="128" y="264"/>
      <point x="39" y="500" type="curve"/>
      <point x="9" y="509" type="line"/>
      <point x="-1" y="509" type="line"/>
      <point x="87" y="212"/>
      <point x="224" y="95"/>
    </contour>
    <contour>
      <point x="643" y="161" type="line"/>
      <point x="627" y="150" type="line"/>
      <point x="599" y="193"/>
      <point x="569" y="225"/>
      <point x="526" y="263" type="curve"/>
      <point x="507" y="201" type="line"/>
      <point x="587" y="148"/>
      <point x="646" y="55"/>
      <point x="666" y="-16" type="curve"/>
    </contour>
    <contour>
      <point x="349" y="486" type="line"/>
      <point x="327" y="528"/>
      <point x="318" y="544"/>
      <point x="296" y="572" type="curve"/>
      <point x="200" y="572" type="line"/>
      <point x="200" y="554" type="line"/>
      <point x="246" y="543"/>
      <point x="279" y="515"/>
      <point x="293" y="492" type="curve"/>
    </contour>
    <contour>
      <point x="704" y="-33" type="line"/>
      <point x="699" y="68"/>
      <point x="698" y="132"/>
      <point x="698" y="208" type="curve" smooth="yes"/>
      <point x="698" y="568" type="line"/>
      <point x="620" y="568" type="line"/>
      <point x="620" y="419" type="line" smooth="yes"/>
      <point x="620" y="264"/>
      <point x="621" y="193"/>
      <point x="632" y="143" type="curve"/>
      <point x="666" y="-16" type="line"/>
      <point x="693" y="-33" type="line"/>
    </contour>
    <contour>
      <point x="783" y="552" type="line"/>
      <point x="783" y="560" type="line"/>
      <point x="723" y="620" type="line"/>
      <point x="-50" y="620" type="line"/>
      <point x="-50" y="612" type="line"/>
      <point x="10" y="552" type="line"/>
    </contour>
  </outline>
  <guideline angle="134.997" x="1345" y="0"/>
</glyph>
<glyph name="bI" format="2">
  <advance width="529"/>
  <unicode hex="0987"/>
  <outline>
    <contour>
      <point x="286" y="120" type="line"/>
      <point x="286" y="142" type="line"/>
      <point x="395" y="172"/>
      <point x="474" y="231"/>
      <point x="474" y="330" type="curve" smooth="yes"/>
      <point x="474" y="453"/>
      <point x="352" y="501"/>
      <point x="258" y="501" type="curve" smooth="yes"/>
      <point x="167" y="501"/>
      <point x="69" y="460"/>
      <point x="69" y="388" type="curve" smooth="yes"/>
      <point x="69" y="341"/>
      <point x="108" y="314"/>
      <point x="157" y="314" type="curve" smooth="yes"/>
      <point x="226" y="314"/>
      <point x="281" y="364"/>
      <point x="281" y="451" type="curve" smooth="yes"/>
      <point x="281" y="501"/>
      <point x="272" y="543"/>
      <point x="260" y="565" type="curve"/>
      <point x="182" y="565" type="line"/>
      <point x="213" y="545"/>
      <point x="227" y="514"/>
      <point x="227" y="488" type="curve"/>
      <point x="267" y="418" type="line"/>
      <point x="285" y="428"/>
      <point x="306" y="436"/>
      <point x="330" y="436" type="curve" smooth="yes"/>
      <point x="373" y="436"/>
      <point x="413" y="413"/>
      <point x="413" y="366" type="curve" smooth="yes"/>
      <point x="413" y="280"/>
      <point x="281" y="215"/>
      <point x="187" y="215" type="curve" smooth="yes"/>
      <point x="150" y="215"/>
      <point x="116" y="223"/>
      <point x="37" y="257" type="curve"/>
      <point x="32" y="252" type="line"/>
      <point x="103" y="120" type="line"/>
    </contour>
    <contour>
      <point x="589" y="-123" type="line"/>
      <point x="575" y="-75" type="line"/>
      <point x="534" y="-27"/>
      <point x="456" y="49"/>
      <point x="262" y="152" type="curve"/>
      <point x="103" y="120" type="line"/>
      <point x="274" y="81"/>
      <point x="410" y="14"/>
      <point x="582" y="-123" type="curve"/>
    </contour>
    <contour>
      <point x="539" y="552" type="line"/>
      <point x="539" y="560" type="line"/>
      <point x="479" y="620" type="line"/>
      <point x="-50" y="620" type="line"/>
      <point x="-50" y="612" type="line"/>
      <point x="10" y="552" type="line"/>
    </contour>
    <contour>
      <point x="444" y="605" type="line"/>
      <point x="443" y="703"/>
      <point x="389" y="785"/>
      <point x="254" y="785" type="curve" smooth="yes"/>
      <point x="215" y="785"/>
      <point x="151" y="776"/>
      <point x="99" y="776" type="curve" smooth="yes"/>
      <point x="28" y="776"/>
      <point x="-4" y="791"/>
      <point x="-4" y="830" type="curve" smooth="yes"/>
      <point x="-4" y="843"/>
      <point x="0" y="858"/>
      <point x="12" y="876" type="curve"/>
      <point x="-12" y="896" type="line"/>
      <point x="-20" y="896" type="line"/>
      <point x="-40" y="873"/>
      <point x="-48" y="845"/>
      <point x="-48" y="821" type="curve" smooth="yes"/>
      <point x="-48" y="754"/>
      <point x="13" y="694"/>
      <point x="137" y="694" type="curve" smooth="yes"/>
      <point x="185" y="694"/>
      <point x="258" y="704"/>
      <point x="299" y="704" type="curve" smooth="yes"/>
      <point x="363" y="704"/>
      <point x="395" y="682"/>
      <point x="395" y="655" type="curve" smooth="yes"/>
      <point x="395" y="641"/>
      <point x="387" y="623"/>
      <point x="366" y="605" type="curve"/>
    </contour>
  </outline>
</glyph>
<glyph name="bIi" format="2">
  <advance width="638"/>
  <unicode hex="0988"/>
  <outline>
    <contour>
      <point x="521" y="-33" type="line"/>
      <point x="497" y="43"/>
      <point x="481" y="115"/>
      <point x="481" y="176" type="curve" smooth="yes"/>
      <point x="481" y="258"/>
      <point x="510" y="343"/>
      <point x="620" y="423" type="curve"/>
      <point x="620" y="431" type="line"/>
      <point x="588" y="453"/>
      <point x="551" y="475"/>
      <point x="513" y="491" type="curve"/>
      <point x="465" y="466"/>
      <point x="385" y="407"/>
      <point x="341" y="360" type="curve"/>
      <point x="341" y="413"/>
      <point x="285" y="502"/>
      <point x="178" y="502" type="curve" smooth="yes"/>
      <point x="111" y="502"/>
      <point x="42" y="466"/>
      <point x="42" y="402" type="curve" smooth="yes"/>
      <point x="42" y="354"/>
      <point x="82" y="325"/>
      <point x="122" y="325" type="curve" smooth="yes"/>
      <point x="161" y="325"/>
      <point x="202" y="354"/>
      <point x="203" y="417" type="curve"/>
      <point x="213" y="424"/>
      <point x="223" y="427"/>
      <point x="233" y="427" type="curve" smooth="yes"/>
      <point x="267" y="427"/>
      <point x="300" y="397"/>
      <point x="300" y="362" type="curve" smooth="yes"/>
      <point x="300" y="307"/>
      <point x="210" y="206"/>
      <point x="153" y="206" type="curve" smooth="yes"/>
      <point x="128" y="206"/>
      <point x="106" y="225"/>
      <point x="97" y="264" type="curve"/>
      <point x="90" y="265" type="line"/>
      <point x="64" y="245" type="line"/>
      <point x="87" y="159"/>
      <point x="132" y="124"/>
      <point x="186" y="124" type="curve" smooth="yes"/>
      <point x="244" y="124"/>
      <point x="285" y="165"/>
      <point x="328" y="217" type="curve" smooth="yes"/>
      <point x="364" y="260"/>
      <point x="409" y="324"/>
      <point x="469" y="375" type="curve"/>
      <point x="473" y="373" type="line"/>
      <point x="435" y="319"/>
      <point x="421" y="259"/>
      <point x="421" y="198" type="curve" smooth="yes"/>
      <point x="421" y="127"/>
      <point x="441" y="55"/>
      <point x="474" y="-11" type="curve"/>
      <point x="510" y="-33" type="line"/>
    </contour>
    <contour>
      <point x="179" y="488" type="line"/>
      <point x="178" y="516"/>
      <point x="166" y="545"/>
      <point x="146" y="567" type="curve"/>
      <point x="14" y="552" type="line"/>
      <point x="88" y="552"/>
      <point x="121" y="526"/>
      <point x="136" y="484" type="curve"/>
    </contour>
    <contour>
      <point x="648" y="552" type="line"/>
      <point x="648" y="560" type="line"/>
      <point x="588" y="620" type="line"/>
      <point x="-60" y="620" type="line"/>
      <point x="-60" y="612" type="line"/>
      <point x="0" y="552" type="line"/>
    </contour>
    <contour>
      <point x="543" y="600" type="line"/>
      <point x="542" y="738"/>
      <point x="456" y="786"/>
      <point x="336" y="786" type="curve" smooth="yes"/>
      <point x="284" y="786"/>
      <point x="171" y="773"/>
      <point x="124" y="773" type="curve" smooth="yes"/>
      <point x="47" y="773"/>
      <point x="16" y="807"/>
      <point x="16" y="837" type="curve" smooth="yes"/>
      <point x="16" y="853"/>
      <point x="25" y="870"/>
      <point x="44" y="885" type="curve"/>
      <point x="11" y="902" type="line"/>
      <point x="-9" y="880"/>
      <point x="-19" y="857"/>
      <point x="-19" y="828" type="curve" smooth="yes"/>
      <point x="-19" y="755"/>
      <point x="36" y="691"/>
      <point x="190" y="691" type="curve" smooth="yes"/>
      <point x="259" y="691"/>
      <point x="352" y="704"/>
      <point x="400" y="704" type="curve" smooth="yes"/>
      <point x="465" y="704"/>
      <point x="494" y="681"/>
      <point x="494" y="656" type="curve" smooth="yes"/>
      <point x="494" y="638"/>
      <point x="484" y="624"/>
      <point x="468" y="605" type="curve"/>
    </contour>
  </outline>
</glyph>
<glyph name="bU" format="2">
  <advance width="662"/>
  <unicode hex="0989"/>
  <outline>
    <contour>
      <point x="387" y="27" type="curve" smooth="yes"/>
      <point x="528" y="27"/>
      <point x="611" y="121"/>
      <point x="611" y="252" type="curve" smooth="yes"/>
      <point x="611" y="337"/>
      <point x="576" y="408"/>
      <point x="503" y="453" type="curve"/>
      <point x="498" y="452" type="line"/>
      <point x="450" y="380"/>
      <point x="380" y="318"/>
      <point x="347" y="318" type="curve" smooth="yes"/>
      <point x="334" y="318"/>
      <point x="330" y="327"/>
      <point x="330" y="345" type="curve" smooth="yes"/>
      <point x="330" y="568" type="line"/>
      <point x="251" y="568" type="line"/>
      <point x="251" y="371" type="line" smooth="yes"/>
      <point x="251" y="305"/>
      <point x="327" y="237"/>
      <point x="374" y="237" type="curve" smooth="yes"/>
      <point x="413" y="237"/>
      <point x="477" y="284"/>
      <point x="530" y="354" type="curve"/>
      <point x="552" y="336"/>
      <point x="562" y="307"/>
      <point x="562" y="279" type="curve" smooth="yes"/>
      <point x="562" y="206"/>
      <point x="491" y="122"/>
      <point x="371" y="122" type="curve" smooth="yes"/>
      <point x="233" y="122"/>
      <point x="132" y="234"/>
      <point x="76" y="500" type="curve"/>
      <point x="46" y="509" type="line"/>
      <point x="36" y="509" type="line"/>
      <point x="91" y="139"/>
      <point x="233" y="27"/>
    </contour>
    <contour>
      <point x="672" y="552" type="line"/>
      <point x="672" y="560" type="line"/>
      <point x="612" y="620" type="line"/>
      <point x="-50" y="620" type="line"/>
      <point x="-50" y="612" type="line"/>
      <point x="10" y="552" type="line"/>
    </contour>
    <contour>
      <point x="566" y="604" type="line"/>
      <point x="564" y="714"/>
      <point x="503" y="786"/>
      <point x="364" y="786" type="curve" smooth="yes"/>
      <point x="317" y="786"/>
      <point x="241" y="776"/>
      <point x="177" y="776" type="curve" smooth="yes"/>
      <point x="93" y="776"/>
      <point x="55" y="791"/>
      <point x="55" y="830" type="curve" smooth="yes"/>
      <point x="55" y="843"/>
      <point x="59" y="858"/>
      <point x="71" y="876" type="curve"/>
      <point x="47" y="896" type="line"/>
      <point x="39" y="896" type="line"/>
      <point x="19" y="873"/>
      <point x="11" y="844"/>
      <point x="11" y="822" type="curve" smooth="yes"/>
      <point x="11" y="781"/>
      <point x="41" y="694"/>
      <point x="220" y="694" type="curve" smooth="yes"/>
      <point x="282" y="694"/>
      <point x="367" y="704"/>
      <point x="416" y="704" type="curve" smooth="yes"/>
      <point x="489" y="704"/>
      <point x="517" y="682"/>
      <point x="517" y="655" type="curve" smooth="yes"/>
      <point x="517" y="641"/>
      <point x="509" y="623"/>
      <point x="488" y="604" type="curve"/>
    </contour>
  </outline>
</glyph>
<glyph name="bUu" format="2">
  <advance width="735"/>
  <unicode hex="098A"/>
  <outline>
    <contour>
      <point x="429" y="28" type="curve" smooth="yes"/>
      <point x="592" y="28"/>
      <point x="685" y="119"/>
      <point x="685" y="254" type="curve" smooth="yes"/>
      <point x="685" y="337"/>
      <point x="649" y="409"/>
      <point x="582" y="453" type="curve"/>
      <point x="577" y="452" type="line"/>
      <point x="529" y="380"/>
      <point x="459" y="318"/>
      <point x="426" y="318" type="curve" smooth="yes"/>
      <point x="413" y="318"/>
      <point x="409" y="327"/>
      <point x="409" y="345" type="curve" smooth="yes"/>
      <point x="409" y="568" type="line"/>
      <point x="330" y="568" type="line"/>
      <point x="330" y="371" type="line" smooth="yes"/>
      <point x="330" y="305"/>
      <point x="406" y="237"/>
      <point x="453" y="237" type="curve" smooth="yes"/>
      <point x="492" y="237"/>
      <point x="556" y="284"/>
      <point x="609" y="354" type="curve"/>
      <point x="628" y="336"/>
      <point x="636" y="306"/>
      <point x="636" y="281" type="curve" smooth="yes"/>
      <point x="636" y="204"/>
      <point x="565" y="120"/>
      <point x="448" y="120" type="curve" smooth="yes"/>
      <point x="317" y="120"/>
      <point x="227" y="228"/>
      <point x="181" y="496" type="curve"/>
      <point x="152" y="505" type="line"/>
      <point x="142" y="505" type="line"/>
      <point x="161" y="324"/>
      <point x="204" y="208"/>
      <point x="279" y="132" type="curve"/>
      <point x="275" y="128" type="line"/>
      <point x="189" y="168"/>
      <point x="113" y="296"/>
      <point x="76" y="500" type="curve"/>
      <point x="46" y="509" type="line"/>
      <point x="36" y="509" type="line"/>
      <point x="86" y="136"/>
      <point x="253" y="28"/>
    </contour>
    <contour>
      <point x="745" y="552" type="line"/>
      <point x="745" y="560" type="line"/>
      <point x="685" y="620" type="line"/>
      <point x="-50" y="620" type="line"/>
      <point x="-50" y="612" type="line"/>
      <point x="10" y="552" type="line"/>
    </contour>
    <contour>
      <point x="635" y="606" type="line"/>
      <point x="632" y="700"/>
      <point x="588" y="786"/>
      <point x="431" y="786" type="curve" smooth="yes"/>
      <point x="380" y="786"/>
      <point x="284" y="776"/>
      <point x="211" y="776" type="curve" smooth="yes"/>
      <point x="118" y="776"/>
      <point x="76" y="791"/>
      <point x="76" y="830" type="curve" smooth="yes"/>
      <point x="76" y="843"/>
      <point x="80" y="858"/>
      <point x="92" y="876" type="curve"/>
      <point x="68" y="896" type="line"/>
      <point x="60" y="896" type="line"/>
      <point x="40" y="873"/>
      <point x="32" y="845"/>
      <point x="32" y="821" type="curve" smooth="yes"/>
      <point x="32" y="766"/>
      <point x="78" y="694"/>
      <point x="253" y="694" type="curve" smooth="yes"/>
      <point x="317" y="694"/>
      <point x="427" y="704"/>
      <point x="480" y="704" type="curve" smooth="yes"/>
      <point x="559" y="704"/>
      <point x="586" y="683"/>
      <point x="586" y="654" type="curve" smooth="yes"/>
      <point x="586" y="641"/>
      <point x="578" y="621"/>
      <point x="556" y="606" type="curve"/>
    </contour>
  </outline>
</glyph>
<glyph name="bVocalicL" format="2">
  <advance width="582"/>
  <unicode hex="098C"/>
  <outline>
    <contour>
      <point x="341" y="-9" type="line"/>
      <point x="453" y="71"/>
      <point x="527" y="150"/>
      <point x="527" y="281" type="curve" smooth="yes"/>
      <point x="527" y="444"/>
      <point x="407" y="497"/>
      <point x="267" y="553" type="curve" smooth="yes"/>
      <point x="194" y="582"/>
      <point x="122" y="610"/>
      <point x="122" y="666" type="curve" smooth="yes"/>
      <point x="122" y="688"/>
      <point x="133" y="704"/>
      <point x="152" y="720" type="curve"/>
      <point x="132" y="746" type="line"/>
      <point x="124" y="746" type="line"/>
      <point x="93" y="723"/>
      <point x="75" y="696"/>
      <point x="75" y="650" type="curve" smooth="yes"/>
      <point x="75" y="541"/>
      <point x="181" y="497"/>
      <point x="286" y="452" type="curve" smooth="yes"/>
      <point x="396" y="405"/>
      <point x="482" y="366"/>
      <point x="482" y="275" type="curve" smooth="yes"/>
      <point x="482" y="209"/>
      <point x="427" y="150"/>
      <point x="364" y="114" type="curve"/>
    </contour>
    <contour>
      <point x="389" y="118" type="line"/>
      <point x="377" y="124" type="line"/>
      <point x="380" y="140"/>
      <point x="382" y="157"/>
      <point x="382" y="174" type="curve" smooth="yes"/>
      <point x="382" y="269"/>
      <point x="333" y="363"/>
      <point x="215" y="363" type="curve" smooth="yes"/>
      <point x="108" y="363"/>
      <point x="55" y="278"/>
      <point x="55" y="193" type="curve" smooth="yes"/>
      <point x="55" y="114"/>
      <point x="101" y="33"/>
      <point x="178" y="33" type="curve" smooth="yes"/>
      <point x="228" y="33"/>
      <point x="260" y="66"/>
      <point x="260" y="109" type="curve" smooth="yes"/>
      <point x="260" y="152"/>
      <point x="228" y="176"/>
      <point x="196" y="176" type="curve" smooth="yes"/>
      <point x="162" y="176"/>
      <point x="133" y="151"/>
      <point x="133" y="115" type="curve" smooth="yes"/>
      <point x="133" y="109"/>
      <point x="134" y="101"/>
      <point x="136" y="94" type="curve"/>
      <point x="134" y="91" type="line"/>
      <point x="110" y="104"/>
      <point x="100" y="138"/>
      <point x="100" y="165" type="curve" smooth="yes"/>
      <point x="100" y="229"/>
      <point x="154" y="280"/>
      <point x="230" y="280" type="curve" smooth="yes"/>
      <point x="308" y="280"/>
      <point x="345" y="223"/>
      <point x="345" y="143" type="curve" smooth="yes"/>
      <point x="345" y="101"/>
      <point x="335" y="53"/>
      <point x="317" y="8" type="curve"/>
      <point x="341" y="-9" type="line"/>
    </contour>
  </outline>
</glyph>
<glyph name="bE" format="2">
  <advance width="675"/>
  <unicode hex="098F"/>
  <outline>
    <contour>
      <point x="604" y="-36" type="line"/>
      <point x="600" y="65"/>
      <point x="600" y="129"/>
      <point x="600" y="205" type="curve" smooth="yes"/>
      <point x="600" y="301"/>
      <point x="602" y="397"/>
      <point x="602" y="493" type="curve" smooth="yes"/>
      <point x="602" y="570"/>
      <point x="518" y="620"/>
      <point x="469" y="620" type="curve" smooth="yes"/>
      <point x="395" y="620"/>
      <point x="219" y="502"/>
      <point x="219" y="372" type="curve" smooth="yes"/>
      <point x="219" y="305"/>
      <point x="265" y="257"/>
      <point x="335" y="257" type="curve" smooth="yes"/>
      <point x="400" y="257"/>
      <point x="428" y="300"/>
      <point x="428" y="340" type="curve" smooth="yes"/>
      <point x="428" y="385"/>
      <point x="392" y="415"/>
      <point x="354" y="415" type="curve" smooth="yes"/>
      <point x="346" y="415"/>
      <point x="337" y="414"/>
      <point x="329" y="411" type="curve"/>
      <point x="327" y="412" type="line"/>
      <point x="354" y="481"/>
      <point x="467" y="554"/>
      <point x="503" y="554" type="curve" smooth="yes"/>
      <point x="513" y="554"/>
      <point x="522" y="547"/>
      <point x="522" y="519" type="curve" smooth="yes"/>
      <point x="522" y="467"/>
      <point x="520" y="423"/>
      <point x="520" y="344" type="curve" smooth="yes"/>
      <point x="520" y="149"/>
      <point x="531" y="110"/>
      <point x="535" y="77" type="curve"/>
      <point x="565" y="-19" type="line"/>
      <point x="593" y="-36" type="line"/>
    </contour>
    <contour>
      <point x="546" y="106" type="line"/>
      <point x="530" y="98" type="line"/>
      <point x="476" y="157"/>
      <point x="425" y="168"/>
      <point x="367" y="168" type="curve" smooth="yes"/>
      <point x="325" y="168"/>
      <point x="267" y="162"/>
      <point x="231" y="162" type="curve" smooth="yes"/>
      <point x="123" y="162"/>
      <point x="78" y="212"/>
      <point x="78" y="298" type="curve" smooth="yes"/>
      <point x="78" y="332"/>
      <point x="85" y="371"/>
      <point x="103" y="407" type="curve"/>
      <point x="80" y="422" type="line"/>
      <point x="71" y="422" type="line"/>
      <point x="46" y="380"/>
      <point x="30" y="326"/>
      <point x="30" y="273" type="curve" smooth="yes"/>
      <point x="30" y="151"/>
      <point x="120" y="75"/>
      <point x="246" y="75" type="curve" smooth="yes"/>
      <point x="296" y="75"/>
      <point x="372" y="87"/>
      <point x="427" y="87" type="curve" smooth="yes"/>
      <point x="507" y="87"/>
      <point x="538" y="62"/>
      <point x="565" y="-19" type="curve"/>
    </contour>
  </outline>
</glyph>
<glyph name="bAi" format="2">
  <advance width="769"/>
  <unicode hex="0990"/>
  <outline>
    <contour>
      <point x="586" y="396" type="line"/>
      <point x="666" y="423"/>
      <point x="709" y="484"/>
      <point x="709" y="567" type="curve" smooth="yes"/>
      <point x="709" y="741"/>
      <point x="527" y="768"/>
      <point x="438" y="783" type="curve" smooth="yes"/>
      <point x="335" y="800"/>
      <point x="284" y="818"/>
      <point x="284" y="861" type="curve" smooth="yes"/>
      <point x="284" y="880"/>
      <point x="295" y="899"/>
      <point x="314" y="914" type="curve"/>
      <point x="294" y="940" type="line"/>
      <point x="286" y="940" type="line"/>
      <point x="253" y="916"/>
      <point x="238" y="885"/>
      <point x="238" y="850" type="curve" smooth="yes"/>
      <point x="238" y="728"/>
      <point x="400" y="703"/>
      <point x="446" y="695" type="curve" smooth="yes"/>
      <point x="566" y="674"/>
      <point x="666" y="656"/>
      <point x="666" y="563" type="curve" smooth="yes"/>
      <point x="666" y="516"/>
      <point x="637" y="478"/>
      <point x="586" y="468" type="curve"/>
    </contour>
    <contour>
      <point x="546" y="106" type="line"/>
      <point x="530" y="98" type="line"/>
      <point x="476" y="157"/>
      <point x="425" y="168"/>
      <point x="367" y="168" type="curve" smooth="yes"/>
      <point x="325" y="168"/>
      <point x="267" y="162"/>
      <point x="231" y="162" type="curve" smooth="yes"/>
      <point x="123" y="162"/>
      <point x="78" y="212"/>
      <point x="78" y="298" type="curve" smooth="yes"/>
      <point x="78" y="332"/>
      <point x="85" y="371"/>
      <point x="103" y="407" type="curve"/>
      <point x="80" y="422" type="line"/>
      <point x="71" y="422" type="line"/>
      <point x="46" y="380"/>
      <point x="30" y="326"/>
      <point x="30" y="273" type="curve" smooth="yes"/>
      <point x="30" y="151"/>
      <point x="120" y="75"/>
      <point x="246" y="75" type="curve" smooth="yes"/>
      <point x="296" y="75"/>
      <point x="372" y="87"/>
      <point x="427" y="87" type="curve" smooth="yes"/>
      <point x="507" y="87"/>
      <point x="538" y="62"/>
      <point x="565" y="-19" type="curve"/>
    </contour>
    <contour>
      <point x="604" y="-36" type="line"/>
      <point x="600" y="65"/>
      <point x="600" y="129"/>
      <point x="600" y="205" type="curve" smooth="yes"/>
      <point x="600" y="301"/>
      <point x="602" y="397"/>
      <point x="602" y="493" type="curve" smooth="yes"/>
      <point x="602" y="570"/>
      <point x="518" y="620"/>
      <point x="469" y="620" type="curve" smooth="yes"/>
      <point x="395" y="620"/>
      <point x="219" y="502"/>
      <point x="219" y="372" type="curve" smooth="yes"/>
      <point x="219" y="305"/>
      <point x="265" y="257"/>
      <point x="335" y="257" type="curve" smooth="yes"/>
      <point x="400" y="257"/>
      <point x="428" y="300"/>
      <point x="428" y="340" type="curve" smooth="yes"/>
      <point x="428" y="385"/>
      <point x="392" y="415"/>
      <point x="354" y="415" type="curve" smooth="yes"/>
      <point x="346" y="415"/>
      <point x="337" y="414"/>
      <point x="329" y="411" type="curve"/>
      <point x="327" y="412" type="line"/>
      <point x="354" y="481"/>
      <point x="467" y="554"/>
      <point x="503" y="554" type="curve" smooth="yes"/>
      <point x="513" y="554"/>
      <point x="522" y="547"/>
      <point x="522" y="519" type="curve" smooth="yes"/>
      <point x="522" y="467"/>
      <point x="520" y="423"/>
      <point x="520" y="344" type="curve" smooth="yes"/>
      <point x="520" y="149"/>
      <point x="531" y="110"/>
      <point x="535" y="77" type="curve"/>
      <point x="565" y="-19" type="line"/>
      <point x="593" y="-36" type="line"/>
    </contour>
  </outline>
</glyph>
<glyph name="bAu" format="2">
  <advance width="737"/>
  <unicode hex="0994"/>
  <outline>
    <contour>
      <point x="572" y="332" type="line"/>
      <point x="614" y="373"/>
      <point x="677" y="465"/>
      <point x="677" y="563" type="curve" smooth="yes"/>
      <point x="677" y="735"/>
      <point x="495" y="766"/>
      <point x="402" y="780" type="curve" smooth="yes"/>
      <point x="286" y="798"/>
      <point x="233" y="817"/>
      <point x="233" y="861" type="curve" smooth="yes"/>
      <point x="233" y="880"/>
      <point x="244" y="899"/>
      <point x="263" y="914" type="curve"/>
      <point x="243" y="940" type="line"/>
      <point x="235" y="940" type="line"/>
      <point x="202" y="915"/>
      <point x="187" y="885"/>
      <point x="187" y="849" type="curve" smooth="yes"/>
      <point x="187" y="726"/>
      <point x="356" y="701"/>
      <point x="402" y="694" type="curve" smooth="yes"/>
      <point x="540" y="673"/>
      <point x="634" y="647"/>
      <point x="634" y="558" type="curve" smooth="yes"/>
      <point x="634" y="529"/>
      <point x="623" y="484"/>
      <point x="591" y="444" type="curve"/>
      <point x="572" y="452" type="line"/>
    </contour>
    <contour>
      <point x="449" y="42" type="curve" smooth="yes"/>
      <point x="569" y="42"/>
      <point x="633" y="116"/>
      <point x="633" y="200" type="curve" smooth="yes"/>
      <point x="633" y="254"/>
      <point x="605" y="308"/>
      <point x="561" y="341" type="curve"/>
      <point x="527" y="307" type="line"/>
      <point x="560" y="294"/>
      <point x="578" y="266"/>
      <point x="578" y="237" type="curve" smooth="yes"/>
      <point x="578" y="184"/>
      <point x="520" y="139"/>
      <point x="430" y="139" type="curve" smooth="yes"/>
      <point x="302" y="139"/>
      <point x="150" y="230"/>
      <point x="60" y="515" type="curve"/>
      <point x="30" y="524" type="line"/>
      <point x="20" y="524" type="line"/>
      <point x="106" y="179"/>
      <point x="285" y="42"/>
    </contour>
    <contour>
      <point x="477" y="275" type="curve" smooth="yes"/>
      <point x="507" y="275"/>
      <point x="535" y="289"/>
      <point x="551" y="313" type="curve"/>
      <point x="572" y="332" type="line"/>
      <point x="586" y="438" type="line"/>
      <point x="592" y="455"/>
      <point x="595" y="471"/>
      <point x="595" y="487" type="curve" smooth="yes"/>
      <point x="595" y="560"/>
      <point x="533" y="608"/>
      <point x="430" y="608" type="curve" smooth="yes"/>
      <point x="292" y="608"/>
      <point x="178" y="521"/>
      <point x="178" y="426" type="curve" smooth="yes"/>
      <point x="178" y="366"/>
      <point x="221" y="332"/>
      <point x="269" y="332" type="curve" smooth="yes"/>
      <point x="314" y="332"/>
      <point x="345" y="365"/>
      <point x="345" y="403" type="curve" smooth="yes"/>
      <point x="345" y="428"/>
      <point x="333" y="454"/>
      <point x="307" y="468" type="curve"/>
      <point x="359" y="527"/>
      <point x="434" y="554"/>
      <point x="483" y="554" type="curve" smooth="yes"/>
      <point x="524" y="554"/>
      <point x="552" y="533"/>
      <point x="552" y="496" type="curve" smooth="yes"/>
      <point x="552" y="469"/>
      <point x="542" y="432"/>
      <point x="519" y="410" type="curve"/>
      <point x="505" y="418"/>
      <point x="489" y="424"/>
      <point x="474" y="424" type="curve" smooth="yes"/>
      <point x="430" y="424"/>
      <point x="396" y="392"/>
      <point x="396" y="348" type="curve" smooth="yes"/>
      <point x="396" y="300"/>
      <point x="436" y="275"/>
    </contour>
  </outline>
</glyph>
<glyph name="bKa" format="2">
  <advance width="725"/>
  <unicode hex="0995"/>
  <outline>
    <contour>
      <point x="391" y="121" type="line"/>
      <point x="372" y="121" type="line"/>
      <point x="294" y="225"/>
      <point x="214" y="274"/>
      <point x="138" y="305" type="curve"/>
      <point x="137" y="308" type="line"/>
      <point x="195" y="345"/>
      <point x="295" y="396"/>
      <point x="380" y="421" type="curve"/>
      <point x="424" y="423" type="line"/>
      <point x="540" y="426"/>
      <point x="636" y="345"/>
      <point x="636" y="281" type="curve" smooth="yes"/>
      <point x="636" y="270"/>
      <point x="633" y="257"/>
      <point x="626" y="245" type="curve"/>
      <point x="611" y="274"/>
      <point x="584" y="288"/>
      <point x="559" y="288" type="curve" smooth="yes"/>
      <point x="524" y="288"/>
      <point x="491" y="262"/>
      <point x="491" y="220" type="curve" smooth="yes"/>
      <point x="491" y="176"/>
      <point x="529" y="149"/>
      <point x="570" y="149" type="curve" smooth="yes"/>
      <point x="619" y="149"/>
      <point x="673" y="188"/>
      <point x="673" y="274" type="curve" smooth="yes"/>
      <point x="673" y="407"/>
      <point x="545" y="506"/>
      <point x="429" y="507" type="curve"/>
      <point x="379" y="507" type="line"/>
      <point x="256" y="478"/>
      <point x="121" y="402"/>
      <point x="6" y="332" type="curve"/>
      <point x="85" y="233" type="line"/>
      <point x="259" y="207"/>
      <point x="376" y="86"/>
      <point x="409" y="-16" type="curve"/>
    </contour>
    <contour>
      <point x="448" y="-33" type="line"/>
      <point x="444" y="68"/>
      <point x="444" y="132"/>
      <point x="444" y="208" type="curve" smooth="yes"/>
      <point x="444" y="568" type="line"/>
      <point x="365" y="568" type="line"/>
      <point x="365" y="441" type="line" smooth="yes"/>
      <point x="365" y="262"/>
      <point x="366" y="157"/>
      <point x="377" y="115" type="curve"/>
      <point x="409" y="-16" type="line"/>
      <point x="437" y="-33" type="line"/>
    </contour>
    <contour>
      <point x="735" y="552" type="line"/>
      <point x="735" y="560" type="line"/>
      <point x="675" y="620" type="line"/>
      <point x="-50" y="620" type="line"/>
      <point x="-50" y="612" type="line"/>
      <point x="10" y="552" type="line"/>
    </contour>
  </outline>
</glyph>
<glyph name="bKha" format="2">
  <advance width="622"/>
  <unicode hex="0996"/>
  <outline>
    <contour>
      <point x="495" y="132" type="line"/>
      <point x="479" y="121" type="line"/>
      <point x="430" y="208"/>
      <point x="345" y="267"/>
      <point x="281" y="298" type="curve"/>
      <point x="87" y="351" type="line"/>
      <point x="85" y="344" type="line"/>
      <point x="165" y="248" type="line"/>
      <point x="357" y="228"/>
      <point x="479" y="100"/>
      <point x="513" y="-16" type="curve"/>
    </contour>
    <contour>
      <point x="293" y="295" type="line"/>
      <point x="382" y="321"/>
      <point x="417" y="375"/>
      <point x="417" y="438" type="curve" smooth="yes"/>
      <point x="417" y="508"/>
      <point x="373" y="577"/>
      <point x="307" y="621" type="curve"/>
      <point x="301" y="620" type="line"/>
      <point x="260" y="555"/>
      <point x="186" y="525"/>
      <point x="153" y="522" type="curve"/>
      <point x="151" y="568"/>
      <point x="117" y="591"/>
      <point x="84" y="591" type="curve" smooth="yes"/>
      <point x="52" y="591"/>
      <point x="20" y="569"/>
      <point x="20" y="525" type="curve" smooth="yes"/>
      <point x="20" y="463"/>
      <point x="79" y="437"/>
      <point x="140" y="437" type="curve" smooth="yes"/>
      <point x="218" y="437"/>
      <point x="296" y="483"/>
      <point x="334" y="529" type="curve"/>
      <point x="350" y="513"/>
      <point x="357" y="496"/>
      <point x="357" y="477" type="curve" smooth="yes"/>
      <point x="357" y="414"/>
      <point x="278" y="350"/>
      <point x="118" y="350" type="curve" smooth="yes"/>
      <point x="106" y="350"/>
      <point x="97" y="350"/>
      <point x="87" y="351" type="curve"/>
      <point x="293" y="276" type="line"/>
    </contour>
    <contour>
      <point x="552" y="-33" type="line"/>
      <point x="548" y="68"/>
      <point x="546" y="139"/>
      <point x="545" y="208" type="curve" smooth="yes"/>
      <point x="540" y="552" type="line"/>
      <point x="632" y="552" type="line"/>
      <point x="632" y="560" type="line"/>
      <point x="572" y="620" type="line"/>
      <point x="468" y="620" type="line"/>
      <point x="468" y="416" type="line" smooth="yes"/>
      <point x="468" y="251"/>
      <point x="474" y="157"/>
      <point x="484" y="116" type="curve"/>
      <point x="513" y="-16" type="line"/>
      <point x="541" y="-33" type="line"/>
    </contour>
  </outline>
</glyph>
<glyph name="bGa" format="2">
  <advance width="585"/>
  <unicode hex="0997"/>
  <outline>
    <contour>
      <point x="216" y="113" type="line"/>
      <point x="305" y="192"/>
      <point x="339" y="263"/>
      <point x="339" y="322" type="curve" smooth="yes"/>
      <point x="339" y="393"/>
      <point x="291" y="449"/>
      <point x="214" y="449" type="curve" smooth="yes"/>
      <point x="191" y="449"/>
      <point x="159" y="444"/>
      <point x="129" y="435" type="curve"/>
      <point x="133" y="484"/>
      <point x="185" y="544"/>
      <point x="261" y="544" type="curve" smooth="yes"/>
      <point x="404" y="544"/>
      <point x="434" y="356"/>
      <point x="434" y="305" type="curve"/>
      <point x="466" y="456" type="line"/>
      <point x="437" y="452" type="line"/>
      <point x="403" y="526"/>
      <point x="336" y="620"/>
      <point x="221" y="620" type="curve" smooth="yes"/>
      <point x="108" y="620"/>
      <point x="18" y="531"/>
      <point x="18" y="429" type="curve" smooth="yes"/>
      <point x="18" y="367"/>
      <point x="51" y="336"/>
      <point x="81" y="336" type="curve" smooth="yes"/>
      <point x="90" y="336"/>
      <point x="99" y="340"/>
      <point x="102" y="342" type="curve" smooth="yes"/>
      <point x="182" y="399"/>
      <point x="236" y="400"/>
      <point x="238" y="400" type="curve"/>
      <point x="260" y="400"/>
      <point x="272" y="388"/>
      <point x="272" y="368" type="curve" smooth="yes"/>
      <point x="272" y="335"/>
      <point x="241" y="280"/>
      <point x="141" y="207" type="curve"/>
    </contour>
    <contour>
      <point x="512" y="-43" type="line"/>
      <point x="504" y="552" type="line"/>
      <point x="595" y="552" type="line"/>
      <point x="595" y="560" type="line"/>
      <point x="535" y="620" type="line"/>
      <point x="435" y="620" type="line"/>
      <point x="435" y="608" type="line" smooth="yes"/>
      <point x="435" y="544"/>
      <point x="435" y="495"/>
      <point x="443" y="437" type="curve"/>
      <point x="434" y="305" type="line"/>
      <point x="434" y="272"/>
      <point x="433" y="88"/>
      <point x="433" y="10" type="curve"/>
      <point x="501" y="-43" type="line"/>
    </contour>
  </outline>
</glyph>
<glyph name="bGha" format="2">
  <advance width="582"/>
  <unicode hex="0998"/>
  <outline>
    <contour>
      <point x="451" y="127" type="line"/>
      <point x="435" y="116" type="line"/>
      <point x="363" y="191"/>
      <point x="284" y="233"/>
      <point x="210" y="252" type="curve"/>
      <point x="209" y="255" type="line"/>
      <point x="260" y="298"/>
      <point x="317" y="336"/>
      <point x="376" y="377" type="curve"/>
      <point x="320" y="451" type="line"/>
      <point x="293" y="428"/>
      <point x="263" y="412"/>
      <point x="235" y="391" type="curve" smooth="yes"/>
      <point x="186" y="354"/>
      <point x="135" y="317"/>
      <point x="85" y="276" type="curve"/>
      <point x="153" y="189" type="line"/>
      <point x="324" y="176"/>
      <point x="439" y="78"/>
      <point x="474" y="-16" type="curve"/>
    </contour>
    <contour>
      <point x="320" y="451" type="line"/>
      <point x="283" y="426"/>
      <point x="252" y="416"/>
      <point x="226" y="416" type="curve" smooth="yes"/>
      <point x="181" y="416"/>
      <point x="161" y="445"/>
      <point x="161" y="479" type="curve" smooth="yes"/>
      <point x="161" y="510"/>
      <point x="174" y="547"/>
      <point x="206" y="560" type="curve"/>
      <point x="78" y="567" type="line"/>
      <point x="53" y="540"/>
      <point x="46" y="510"/>
      <point x="46" y="484" type="curve" smooth="yes"/>
      <point x="46" y="413"/>
      <point x="110" y="378"/>
      <point x="177" y="378" type="curve" smooth="yes"/>
      <point x="189" y="378"/>
      <point x="206" y="379"/>
      <point x="218" y="382" type="curve"/>
      <point x="224" y="364" type="line"/>
    </contour>
    <contour>
      <point x="513" y="-33" type="line"/>
      <point x="508" y="68"/>
      <point x="507" y="132"/>
      <point x="507" y="208" type="curve" smooth="yes"/>
      <point x="507" y="568" type="line"/>
      <point x="428" y="568" type="line"/>
      <point x="428" y="418" type="line" smooth="yes"/>
      <point x="428" y="264"/>
      <point x="429" y="156"/>
      <point x="440" y="111" type="curve"/>
      <point x="474" y="-16" type="line"/>
      <point x="502" y="-33" type="line"/>
    </contour>
    <contour>
      <point x="592" y="552" type="line"/>
      <point x="592" y="560" type="line"/>
      <point x="532" y="620" type="line"/>
      <point x="-50" y="620" type="line"/>
      <point x="-50" y="612" type="line"/>
      <point x="10" y="552" type="line"/>
    </contour>
  </outline>
</glyph>
<glyph name="bCa" format="2">
  <advance width="512"/>
  <unicode hex="099A"/>
  <outline>
    <contour>
      <point x="223" y="0" type="curve" smooth="yes"/>
      <point x="286" y="0"/>
      <point x="467" y="133"/>
      <point x="467" y="312" type="curve" smooth="yes"/>
      <point x="467" y="340"/>
      <point x="452" y="354"/>
      <point x="433" y="371" type="curve" smooth="yes"/>
      <point x="410" y="391"/>
      <point x="402" y="400"/>
      <point x="380" y="406" type="curve" smooth="yes"/>
      <point x="294" y="430"/>
      <point x="186" y="431"/>
      <point x="159" y="574" type="curve"/>
      <point x="148" y="464" type="line"/>
      <point x="166" y="470" type="line"/>
      <point x="209" y="357"/>
      <point x="279" y="336"/>
      <point x="364" y="317" type="curve"/>
      <point x="370" y="308"/>
      <point x="371" y="297"/>
      <point x="371" y="286" type="curve" smooth="yes"/>
      <point x="371" y="195"/>
      <point x="247" y="84"/>
      <point x="194" y="84" type="curve" smooth="yes"/>
      <point x="171" y="84"/>
      <point x="163" y="102"/>
      <point x="163" y="139" type="curve" smooth="yes"/>
      <point x="163" y="574" type="line"/>
      <point x="85" y="568" type="line"/>
      <point x="85" y="165" type="line" smooth="yes"/>
      <point x="85" y="96"/>
      <point x="165" y="0"/>
    </contour>
    <contour>
      <point x="522" y="552" type="line"/>
      <point x="522" y="560" type="line"/>
      <point x="462" y="620" type="line"/>
      <point x="-50" y="620" type="line"/>
      <point x="-50" y="612" type="line"/>
      <point x="10" y="552" type="line"/>
    </contour>
  </outline>
</glyph>
<glyph name="bJa" format="2">
  <advance width="785"/>
  <unicode hex="099C"/>
  <outline>
    <contour>
      <point x="332" y="49" type="curve" smooth="yes"/>
      <point x="442" y="49"/>
      <point x="503" y="114"/>
      <point x="503" y="210" type="curve" smooth="yes"/>
      <point x="503" y="284"/>
      <point x="467" y="344"/>
      <point x="394" y="381" type="curve"/>
      <point x="389" y="380" type="line"/>
      <point x="341" y="341"/>
      <point x="294" y="321"/>
      <point x="261" y="321" type="curve" smooth="yes"/>
      <point x="232" y="321"/>
      <point x="214" y="337"/>
      <point x="214" y="364" type="curve" smooth="yes"/>
      <point x="214" y="441"/>
      <point x="335" y="527"/>
      <point x="430" y="559" type="curve"/>
      <point x="217" y="570" type="line"/>
      <point x="225" y="549" type="line"/>
      <point x="172" y="506"/>
      <point x="150" y="457"/>
      <point x="150" y="407" type="curve" smooth="yes"/>
      <point x="150" y="317"/>
      <point x="221" y="248"/>
      <point x="308" y="248" type="curve" smooth="yes"/>
      <point x="353" y="248"/>
      <point x="400" y="267"/>
      <point x="431" y="294" type="curve"/>
      <point x="446" y="279"/>
      <point x="454" y="258"/>
      <point x="454" y="240" type="curve" smooth="yes"/>
      <point x="454" y="193"/>
      <point x="406" y="143"/>
      <point x="317" y="143" type="curve" smooth="yes"/>
      <point x="186" y="143"/>
      <point x="110" y="253"/>
      <point x="65" y="477" type="curve"/>
      <point x="35" y="486" type="line"/>
      <point x="25" y="486" type="line"/>
      <point x="72" y="156"/>
      <point x="192" y="49"/>
    </contour>
    <contour>
      <point x="640" y="-35" type="line"/>
      <point x="627" y="27"/>
      <point x="618" y="91"/>
      <point x="618" y="144" type="curve" smooth="yes"/>
      <point x="618" y="242"/>
      <point x="649" y="330"/>
      <point x="743" y="404" type="curve"/>
      <point x="743" y="410" type="line"/>
      <point x="630" y="499" type="line"/>
      <point x="591" y="479"/>
      <point x="551" y="465"/>
      <point x="504" y="465" type="curve" smooth="yes"/>
      <point x="458" y="465"/>
      <point x="405" y="477"/>
      <point x="365" y="547" type="curve"/>
      <point x="332" y="524" type="line"/>
      <point x="376" y="446"/>
      <point x="467" y="396"/>
      <point x="550" y="396" type="curve" smooth="yes"/>
      <point x="570" y="396"/>
      <point x="592" y="399"/>
      <point x="612" y="406" type="curve"/>
      <point x="615" y="404" type="line"/>
      <point x="572" y="344"/>
      <point x="558" y="273"/>
      <point x="558" y="205" type="curve" smooth="yes"/>
      <point x="558" y="132"/>
      <point x="576" y="53"/>
      <point x="600" y="-17" type="curve"/>
      <point x="629" y="-35" type="line"/>
    </contour>
    <contour>
      <point x="795" y="552" type="line"/>
      <point x="795" y="560" type="line"/>
      <point x="735" y="620" type="line"/>
      <point x="-50" y="620" type="line"/>
      <point x="-50" y="612" type="line"/>
      <point x="10" y="552" type="line"/>
    </contour>
  </outline>
</glyph>
<glyph name="bJha" format="2">
  <advance width="679"/>
  <unicode hex="099D"/>
  <outline>
    <contour>
      <point x="437" y="-33" type="line"/>
      <point x="433" y="73"/>
      <point x="433" y="135"/>
      <point x="433" y="216" type="curve" smooth="yes"/>
      <point x="433" y="620" type="line"/>
      <point x="-50" y="620" type="line"/>
      <point x="-50" y="612" type="line"/>
      <point x="10" y="552" type="line"/>
      <point x="355" y="552" type="line"/>
      <point x="355" y="447" type="line" smooth="yes"/>
      <point x="355" y="263"/>
      <point x="355" y="161"/>
      <point x="367" y="117" type="curve"/>
      <point x="398" y="-16" type="line"/>
      <point x="426" y="-33" type="line"/>
    </contour>
    <contour>
      <point x="378" y="133" type="line"/>
      <point x="362" y="122" type="line"/>
      <point x="287" y="226"/>
      <point x="211" y="274"/>
      <point x="138" y="305" type="curve"/>
      <point x="137" y="308" type="line"/>
      <point x="213" y="354"/>
      <point x="292" y="392"/>
      <point x="369" y="426" type="curve"/>
      <point x="369" y="522" type="line"/>
      <point x="251" y="474"/>
      <point x="130" y="408"/>
      <point x="6" y="332" type="curve"/>
      <point x="85" y="233" type="line"/>
      <point x="254" y="207"/>
      <point x="367" y="86"/>
      <point x="398" y="-16" type="curve"/>
    </contour>
    <contour>
      <point x="548" y="180" type="line"/>
      <point x="532" y="169" type="line"/>
      <point x="500" y="218"/>
      <point x="465" y="258"/>
      <point x="415" y="284" type="curve"/>
      <point x="415" y="207" type="line"/>
      <point x="512" y="179"/>
      <point x="551" y="78"/>
      <point x="571" y="14" type="curve"/>
    </contour>
    <contour>
      <point x="609" y="-3" type="line"/>
      <point x="605" y="98"/>
      <point x="604" y="162"/>
      <point x="604" y="238" type="curve" smooth="yes"/>
      <point x="604" y="552" type="line"/>
      <point x="689" y="552" type="line"/>
      <point x="689" y="560" type="line"/>
      <point x="629" y="620" type="line"/>
      <point x="527" y="620" type="line"/>
      <point x="527" y="435" type="line" smooth="yes"/>
      <point x="527" y="280"/>
      <point x="527" y="212"/>
      <point x="537" y="162" type="curve"/>
      <point x="571" y="14" type="line"/>
      <point x="598" y="-3" type="line"/>
    </contour>
  </outline>
</glyph>
<glyph name="bNya" format="2">
  <advance width="958"/>
  <unicode hex="099E"/>
  <outline>
    <contour>
      <point x="589" y="-36" type="line"/>
      <point x="585" y="53"/>
      <point x="585" y="149"/>
      <point x="585" y="179" type="curve" smooth="yes"/>
      <point x="585" y="273" type="line"/>
      <point x="586" y="445" type="line"/>
      <point x="585" y="416"/>
      <point x="587" y="472"/>
      <point x="587" y="485" type="curve" smooth="yes"/>
      <point x="587" y="574"/>
      <point x="506" y="620"/>
      <point x="457" y="620" type="curve" smooth="yes"/>
      <point x="381" y="620"/>
      <point x="214" y="502"/>
      <point x="214" y="372" type="curve" smooth="yes"/>
      <point x="214" y="305"/>
      <point x="260" y="257"/>
      <point x="330" y="257" type="curve" smooth="yes"/>
      <point x="395" y="257"/>
      <point x="423" y="300"/>
      <point x="423" y="340" type="curve" smooth="yes"/>
      <point x="423" y="385"/>
      <point x="389" y="414"/>
      <point x="351" y="414" type="curve" smooth="yes"/>
      <point x="343" y="414"/>
      <point x="334" y="413"/>
      <point x="326" y="410" type="curve"/>
      <point x="324" y="411" type="line"/>
      <point x="350" y="480"/>
      <point x="452" y="554"/>
      <point x="490" y="554" type="curve" smooth="yes"/>
      <point x="500" y="554"/>
      <point x="507" y="550"/>
      <point x="507" y="505" type="curve" smooth="yes"/>
      <point x="507" y="481"/>
      <point x="505" y="421"/>
      <point x="505" y="340" type="curve" smooth="yes"/>
      <point x="505" y="178"/>
      <point x="511" y="119"/>
      <point x="522" y="80" type="curve" smooth="yes"/>
      <point x="550" y="-19" type="line"/>
      <point x="578" y="-36" type="line"/>
    </contour>
    <contour>
      <point x="531" y="106" type="line"/>
      <point x="515" y="98" type="line"/>
      <point x="463" y="157"/>
      <point x="415" y="168"/>
      <point x="359" y="168" type="curve" smooth="yes"/>
      <point x="319" y="168"/>
      <point x="264" y="162"/>
      <point x="229" y="162" type="curve" smooth="yes"/>
      <point x="126" y="162"/>
      <point x="83" y="212"/>
      <point x="83" y="298" type="curve" smooth="yes"/>
      <point x="83" y="332"/>
      <point x="90" y="371"/>
      <point x="108" y="407" type="curve"/>
      <point x="85" y="422" type="line"/>
      <point x="76" y="422" type="line"/>
      <point x="51" y="380"/>
      <point x="35" y="326"/>
      <point x="35" y="273" type="curve" smooth="yes"/>
      <point x="35" y="151"/>
      <point x="122" y="75"/>
      <point x="243" y="75" type="curve" smooth="yes"/>
      <point x="291" y="75"/>
      <point x="364" y="87"/>
      <point x="417" y="87" type="curve" smooth="yes"/>
      <point x="494" y="87"/>
      <point x="524" y="62"/>
      <point x="550" y="-19" type="curve"/>
    </contour>
    <contour>
      <point x="766" y="182" type="curve" smooth="yes"/>
      <point x="670" y="182"/>
      <point x="584" y="286"/>
      <point x="584" y="345" type="curve" smooth="yes"/>
      <point x="584" y="412"/>
      <point x="693" y="514"/>
      <point x="784" y="514" type="curve" smooth="yes"/>
      <point x="833" y="514"/>
      <point x="862" y="484"/>
      <point x="862" y="455" type="curve" smooth="yes"/>
      <point x="862" y="423"/>
      <point x="829" y="395"/>
      <point x="797" y="390" type="curve"/>
      <point x="805" y="314" type="line"/>
      <point x="827" y="301"/>
      <point x="854" y="279"/>
      <point x="854" y="250" type="curve" smooth="yes"/>
      <point x="854" y="217"/>
      <point x="823" y="182"/>
    </contour>
    <contour>
      <point x="789" y="100" type="curve" smooth="yes"/>
      <point x="865" y="100"/>
      <point x="908" y="156"/>
      <point x="908" y="215" type="curve" smooth="yes"/>
      <point x="908" y="268"/>
      <point x="868" y="326"/>
      <point x="837" y="363" type="curve"/>
      <point x="816" y="392"/>
      <point x="779" y="414"/>
      <point x="746" y="414" type="curve" smooth="yes"/>
      <point x="698" y="414"/>
      <point x="673" y="379"/>
      <point x="673" y="345" type="curve" smooth="yes"/>
      <point x="673" y="311"/>
      <point x="698" y="277"/>
      <point x="746" y="277" type="curve" smooth="yes"/>
      <point x="819" y="277"/>
      <point x="905" y="383"/>
      <point x="905" y="467" type="curve" smooth="yes"/>
      <point x="905" y="542"/>
      <point x="846" y="593"/>
      <point x="776" y="593" type="curve" smooth="yes"/>
      <point x="709" y="593"/>
      <point x="633" y="546"/>
      <point x="589" y="436" type="curve"/>
      <point x="570" y="442" type="line"/>
      <point x="570" y="257" type="line"/>
      <point x="589" y="257" type="line"/>
      <point x="637" y="153"/>
      <point x="714" y="100"/>
    </contour>
  </outline>
</glyph>
<glyph name="bTta" format="2">
  <advance width="509"/>
  <unicode hex="099F"/>
  <outline>
    <contour>
      <point x="222" y="22" type="curve" smooth="yes"/>
      <point x="293" y="22"/>
      <point x="465" y="175"/>
      <point x="465" y="321" type="curve" smooth="yes"/>
      <point x="465" y="403"/>
      <point x="412" y="453"/>
      <point x="350" y="453" type="curve" smooth="yes"/>
      <point x="293" y="453"/>
      <point x="263" y="411"/>
      <point x="263" y="370" type="curve" smooth="yes"/>
      <point x="263" y="330"/>
      <point x="291" y="291"/>
      <point x="339" y="291" type="curve" smooth="yes"/>
      <point x="350" y="291"/>
      <point x="359" y="293"/>
      <point x="370" y="296" type="curve"/>
      <point x="354" y="196"/>
      <point x="239" y="106"/>
      <point x="193" y="106" type="curve" smooth="yes"/>
      <point x="172" y="106"/>
      <point x="163" y="126"/>
      <point x="163" y="163" type="curve" smooth="yes"/>
      <point x="163" y="568" type="line"/>
      <point x="85" y="568" type="line"/>
      <point x="85" y="189" type="line" smooth="yes"/>
      <point x="85" y="120"/>
      <point x="166" y="22"/>
    </contour>
    <contour>
      <point x="519" y="552" type="line"/>
      <point x="519" y="560" type="line"/>
      <point x="459" y="620" type="line"/>
      <point x="-50" y="620" type="line"/>
      <point x="-50" y="612" type="line"/>
      <point x="10" y="552" type="line"/>
    </contour>
    <contour>
      <point x="435" y="605" type="line"/>
      <point x="434" y="702"/>
      <point x="381" y="785"/>
      <point x="251" y="785" type="curve" smooth="yes"/>
      <point x="213" y="785"/>
      <point x="154" y="776"/>
      <point x="108" y="776" type="curve" smooth="yes"/>
      <point x="42" y="776"/>
      <point x="10" y="791"/>
      <point x="10" y="830" type="curve" smooth="yes"/>
      <point x="10" y="843"/>
      <point x="14" y="858"/>
      <point x="26" y="876" type="curve"/>
      <point x="2" y="896" type="line"/>
      <point x="-6" y="896" type="line"/>
      <point x="-26" y="873"/>
      <point x="-34" y="845"/>
      <point x="-34" y="821" type="curve" smooth="yes"/>
      <point x="-34" y="754"/>
      <point x="26" y="694"/>
      <point x="143" y="694" type="curve" smooth="yes"/>
      <point x="188" y="694"/>
      <point x="256" y="704"/>
      <point x="295" y="704" type="curve" smooth="yes"/>
      <point x="356" y="704"/>
      <point x="386" y="682"/>
      <point x="386" y="655" type="curve" smooth="yes"/>
      <point x="386" y="641"/>
      <point x="378" y="623"/>
      <point x="357" y="605" type="curve"/>
    </contour>
  </outline>
  <guideline angle="134.997" x="885" y="0"/>
</glyph>
<glyph name="bTtha" format="2">
  <advance width="516"/>
  <unicode hex="09A0"/>
  <outline>
    <contour>
      <point x="243" y="4" type="curve" smooth="yes"/>
      <point x="367" y="4"/>
      <point x="458" y="108"/>
      <point x="458" y="246" type="curve" smooth="yes"/>
      <point x="458" y="385"/>
      <point x="368" y="506"/>
      <point x="304" y="593" type="curve" smooth="yes"/>
      <point x="242" y="678"/>
      <point x="188" y="756"/>
      <point x="188" y="817" type="curve" smooth="yes"/>
      <point x="188" y="856"/>
      <point x="211" y="875"/>
      <point x="246" y="875" type="curve" smooth="yes"/>
      <point x="254" y="875"/>
      <point x="263" y="874"/>
      <point x="273" y="871" type="curve"/>
      <point x="279" y="877" type="line"/>
      <point x="264" y="923"/>
      <point x="233" y="936"/>
      <point x="203" y="936" type="curve" smooth="yes"/>
      <point x="158" y="936"/>
      <point x="124" y="904"/>
      <point x="124" y="849" type="curve" smooth="yes"/>
      <point x="124" y="758"/>
      <point x="217" y="648"/>
      <point x="248" y="589" type="curve"/>
      <point x="305" y="524" type="line"/>
      <point x="350" y="462"/>
      <point x="388" y="370"/>
      <point x="388" y="274" type="curve" smooth="yes"/>
      <point x="388" y="114"/>
      <point x="283" y="66"/>
      <point x="216" y="66" type="curve" smooth="yes"/>
      <point x="160" y="66"/>
      <point x="123" y="101"/>
      <point x="123" y="160" type="curve"/>
      <point x="123" y="161"/>
      <point x="123" y="168"/>
      <point x="125" y="175" type="curve"/>
      <point x="242" y="218"/>
      <point x="320" y="317"/>
      <point x="320" y="437" type="curve" smooth="yes"/>
      <point x="320" y="461"/>
      <point x="317" y="486"/>
      <point x="310" y="512" type="curve"/>
      <point x="328" y="518" type="line"/>
      <point x="248" y="589" type="line"/>
      <point x="260" y="566"/>
      <point x="264" y="550"/>
      <point x="264" y="523" type="curve" smooth="yes"/>
      <point x="264" y="396"/>
      <point x="179" y="285"/>
      <point x="68" y="257" type="curve"/>
      <point x="61" y="235"/>
      <point x="58" y="208"/>
      <point x="58" y="189" type="curve" smooth="yes"/>
      <point x="58" y="94"/>
      <point x="128" y="4"/>
    </contour>
    <contour>
      <point x="526" y="552" type="line"/>
      <point x="526" y="560" type="line"/>
      <point x="466" y="620" type="line"/>
      <point x="-50" y="620" type="line"/>
      <point x="-50" y="612" type="line"/>
      <point x="10" y="552" type="line"/>
    </contour>
  </outline>
  <guideline angle="134.997" x="1135" y="0"/>
</glyph>
<glyph name="bDda" format="2">
  <advance width="661"/>
  <unicode hex="09A1"/>
  <outline>
    <contour>
      <point x="386" y="27" type="curve" smooth="yes"/>
      <point x="527" y="27"/>
      <point x="610" y="121"/>
      <point x="610" y="252" type="curve" smooth="yes"/>
      <point x="610" y="337"/>
      <point x="575" y="408"/>
      <point x="502" y="453" type="curve"/>
      <point x="497" y="452" type="line"/>
      <point x="449" y="380"/>
      <point x="379" y="318"/>
      <point x="346" y="318" type="curve" smooth="yes"/>
      <point x="333" y="318"/>
      <point x="329" y="327"/>
      <point x="329" y="345" type="curve" smooth="yes"/>
      <point x="329" y="568" type="line"/>
      <point x="250" y="568" type="line"/>
      <point x="250" y="371" type="line" smooth="yes"/>
      <point x="250" y="305"/>
      <point x="326" y="237"/>
      <point x="373" y="237" type="curve" smooth="yes"/>
      <point x="412" y="237"/>
      <point x="476" y="284"/>
      <point x="529" y="354" type="curve"/>
      <point x="551" y="336"/>
      <point x="561" y="307"/>
      <point x="561" y="279" type="curve" smooth="yes"/>
      <point x="561" y="206"/>
      <point x="491" y="121"/>
      <point x="371" y="121" type="curve" smooth="yes"/>
      <point x="233" y="121"/>
      <point x="131" y="234"/>
      <point x="75" y="500" type="curve"/>
      <point x="45" y="509" type="line"/>
      <point x="35" y="509" type="line"/>
      <point x="90" y="139"/>
      <point x="232" y="27"/>
    </contour>
    <contour>
      <point x="671" y="552" type="line"/>
      <point x="671" y="560" type="line"/>
      <point x="611" y="620" type="line"/>
      <point x="-50" y="620" type="line"/>
      <point x="-50" y="612" type="line"/>
      <point x="10" y="552" type="line"/>
    </contour>
  </outline>
</glyph>
<glyph name="bDdha" format="2">
  <advance width="509"/>
  <unicode hex="09A2"/>
  <outline>
    <contour>
      <point x="222" y="22" type="curve" smooth="yes"/>
      <point x="293" y="22"/>
      <point x="465" y="175"/>
      <point x="465" y="321" type="curve" smooth="yes"/>
      <point x="465" y="403"/>
      <point x="412" y="453"/>
      <point x="350" y="453" type="curve" smooth="yes"/>
      <point x="293" y="453"/>
      <point x="263" y="411"/>
      <point x="263" y="370" type="curve" smooth="yes"/>
      <point x="263" y="330"/>
      <point x="291" y="291"/>
      <point x="339" y="291" type="curve" smooth="yes"/>
      <point x="350" y="291"/>
      <point x="359" y="293"/>
      <point x="370" y="296" type="curve"/>
      <point x="354" y="196"/>
      <point x="239" y="106"/>
      <point x="193" y="106" type="curve" smooth="yes"/>
      <point x="172" y="106"/>
      <point x="163" y="124"/>
      <point x="163" y="161" type="curve" smooth="yes"/>
      <point x="163" y="568" type="line"/>
      <point x="85" y="568" type="line"/>
      <point x="85" y="187" type="line" smooth="yes"/>
      <point x="85" y="118"/>
      <point x="166" y="22"/>
    </contour>
    <contour>
      <point x="519" y="552" type="line"/>
      <point x="519" y="560" type="line"/>
      <point x="459" y="620" type="line"/>
      <point x="-50" y="620" type="line"/>
      <point x="-50" y="612" type="line"/>
      <point x="10" y="552" type="line"/>
    </contour>
  </outline>
</glyph>
<glyph name="bNna" format="2">
  <advance width="563"/>
  <unicode hex="09A3"/>
  <outline>
    <contour>
      <point x="207" y="245" type="curve" smooth="yes"/>
      <point x="264" y="245"/>
      <point x="316" y="275"/>
      <point x="316" y="333" type="curve" smooth="yes"/>
      <point x="316" y="378"/>
      <point x="286" y="413"/>
      <point x="240" y="413" type="curve" smooth="yes"/>
      <point x="197" y="413"/>
      <point x="169" y="383"/>
      <point x="169" y="350" type="curve" smooth="yes"/>
      <point x="169" y="333"/>
      <point x="177" y="316"/>
      <point x="193" y="301" type="curve"/>
      <point x="192" y="298" type="line"/>
      <point x="142" y="302"/>
      <point x="117" y="361"/>
      <point x="117" y="409" type="curve" smooth="yes"/>
      <point x="117" y="478"/>
      <point x="166" y="539"/>
      <point x="246" y="539" type="curve" smooth="yes"/>
      <point x="345" y="539"/>
      <point x="412" y="446"/>
      <point x="412" y="283" type="curve"/>
      <point x="440" y="452" type="line"/>
      <point x="419" y="442" type="line"/>
      <point x="372" y="564"/>
      <point x="310" y="620"/>
      <point x="223" y="620" type="curve" smooth="yes"/>
      <point x="123" y="620"/>
      <point x="40" y="546"/>
      <point x="40" y="431" type="curve" smooth="yes"/>
      <point x="40" y="320"/>
      <point x="117" y="245"/>
    </contour>
    <contour>
      <point x="490" y="-43" type="line"/>
      <point x="490" y="552" type="line"/>
      <point x="573" y="552" type="line"/>
      <point x="573" y="560" type="line"/>
      <point x="513" y="620" type="line"/>
      <point x="413" y="620" type="line"/>
      <point x="413" y="607" type="line" smooth="yes"/>
      <point x="413" y="519"/>
      <point x="414" y="476"/>
      <point x="423" y="431" type="curve"/>
      <point x="412" y="283" type="line"/>
      <point x="412" y="240"/>
      <point x="411" y="88"/>
      <point x="411" y="10" type="curve"/>
      <point x="479" y="-43" type="line"/>
    </contour>
  </outline>
</glyph>
<glyph name="bTa" format="2">
  <advance width="673"/>
  <unicode hex="09A4"/>
  <outline>
    <contour>
      <point x="403" y="42" type="curve" smooth="yes"/>
      <point x="531" y="42"/>
      <point x="621" y="137"/>
      <point x="621" y="266" type="curve" smooth="yes"/>
      <point x="621" y="399"/>
      <point x="526" y="500"/>
      <point x="406" y="500" type="curve" smooth="yes"/>
      <point x="317" y="500"/>
      <point x="252" y="443"/>
      <point x="252" y="365" type="curve" smooth="yes"/>
      <point x="252" y="295"/>
      <point x="304" y="261"/>
      <point x="353" y="261" type="curve" smooth="yes"/>
      <point x="407" y="261"/>
      <point x="446" y="304"/>
      <point x="446" y="352" type="curve" smooth="yes"/>
      <point x="446" y="376"/>
      <point x="437" y="402"/>
      <point x="416" y="421" type="curve"/>
      <point x="427" y="425"/>
      <point x="439" y="426"/>
      <point x="447" y="426" type="curve" smooth="yes"/>
      <point x="517" y="426"/>
      <point x="566" y="358"/>
      <point x="566" y="291" type="curve" smooth="yes"/>
      <point x="566" y="211"/>
      <point x="495" y="137"/>
      <point x="386" y="137" type="curve" smooth="yes"/>
      <point x="269" y="137"/>
      <point x="150" y="221"/>
      <point x="62" y="500" type="curve"/>
      <point x="32" y="509" type="line"/>
      <point x="22" y="509" type="line"/>
      <point x="110" y="170"/>
      <point x="252" y="42"/>
    </contour>
    <contour>
      <point x="683" y="552" type="line"/>
      <point x="683" y="560" type="line"/>
      <point x="623" y="620" type="line"/>
      <point x="-50" y="620" type="line"/>
      <point x="-50" y="612" type="line"/>
      <point x="10" y="552" type="line"/>
    </contour>
  </outline>
</glyph>
<glyph name="bTha" format="2">
  <advance width="612"/>
  <unicode hex="09A5"/>
  <outline>
    <contour>
      <point x="481" y="123" type="line"/>
      <point x="465" y="112" type="line"/>
      <point x="403" y="182"/>
      <point x="329" y="240"/>
      <point x="244" y="273" type="curve"/>
      <point x="85" y="320" type="line"/>
      <point x="81" y="316" type="line"/>
      <point x="139" y="208" type="line"/>
      <point x="348" y="208"/>
      <point x="474" y="73"/>
      <point x="504" y="-16" type="curve"/>
    </contour>
    <contour>
      <point x="259" y="270" type="line"/>
      <point x="351" y="300"/>
      <point x="410" y="363"/>
      <point x="410" y="439" type="curve" smooth="yes"/>
      <point x="410" y="524"/>
      <point x="336" y="620"/>
      <point x="214" y="620" type="curve" smooth="yes"/>
      <point x="104" y="620"/>
      <point x="30" y="541"/>
      <point x="30" y="470" type="curve" smooth="yes"/>
      <point x="30" y="419"/>
      <point x="67" y="382"/>
      <point x="119" y="382" type="curve" smooth="yes"/>
      <point x="168" y="382"/>
      <point x="195" y="416"/>
      <point x="195" y="455" type="curve" smooth="yes"/>
      <point x="195" y="474"/>
      <point x="189" y="493"/>
      <point x="172" y="508" type="curve"/>
      <point x="198" y="541"/>
      <point x="236" y="560"/>
      <point x="271" y="560" type="curve" smooth="yes"/>
      <point x="319" y="560"/>
      <point x="343" y="527"/>
      <point x="343" y="490" type="curve" smooth="yes"/>
      <point x="343" y="402"/>
      <point x="210" y="319"/>
      <point x="97" y="319" type="curve"/>
      <point x="95" y="319"/>
      <point x="92" y="319"/>
      <point x="85" y="320" type="curve"/>
      <point x="259" y="251" type="line"/>
    </contour>
    <contour>
      <point x="542" y="-33" type="line"/>
      <point x="538" y="68"/>
      <point x="537" y="132"/>
      <point x="537" y="208" type="curve" smooth="yes"/>
      <point x="537" y="552" type="line"/>
      <point x="622" y="552" type="line"/>
      <point x="622" y="560" type="line"/>
      <point x="562" y="620" type="line"/>
      <point x="460" y="620" type="line"/>
      <point x="460" y="405" type="line" smooth="yes"/>
      <point x="460" y="235"/>
      <point x="460" y="160"/>
      <point x="469" y="105" type="curve"/>
      <point x="504" y="-16" type="line"/>
      <point x="531" y="-33" type="line"/>
    </contour>
  </outline>
</glyph>
<glyph name="bDha" format="2">
  <advance width="543"/>
  <unicode hex="09A7"/>
  <outline>
    <contour>
      <point x="412" y="126" type="line"/>
      <point x="396" y="115" type="line"/>
      <point x="320" y="202"/>
      <point x="235" y="248"/>
      <point x="159" y="273" type="curve"/>
      <point x="158" y="276" type="line"/>
      <point x="232" y="329"/>
      <point x="316" y="380"/>
      <point x="401" y="428" type="curve"/>
      <point x="402" y="530" type="line"/>
      <point x="231" y="425" type="line"/>
      <point x="166" y="384"/>
      <point x="101" y="344"/>
      <point x="32" y="298" type="curve"/>
      <point x="105" y="205" type="line"/>
      <point x="284" y="183"/>
      <point x="399" y="82"/>
      <point x="435" y="-16" type="curve"/>
    </contour>
    <contour>
      <point x="389" y="522" type="line"/>
      <point x="345" y="495"/>
      <point x="278" y="452"/>
      <point x="212" y="452" type="curve" smooth="yes"/>
      <point x="158" y="452"/>
      <point x="130" y="483"/>
      <point x="130" y="522" type="curve" smooth="yes"/>
      <point x="130" y="547"/>
      <point x="142" y="569"/>
      <point x="177" y="570" type="curve"/>
      <point x="175" y="564"/>
      <point x="175" y="559"/>
      <point x="175" y="558" type="curve"/>
      <point x="175" y="523"/>
      <point x="198" y="509"/>
      <point x="224" y="509" type="curve" smooth="yes"/>
      <point x="262" y="509"/>
      <point x="282" y="536"/>
      <point x="282" y="565" type="curve" smooth="yes"/>
      <point x="282" y="600"/>
      <point x="250" y="638"/>
      <point x="183" y="638" type="curve" smooth="yes"/>
      <point x="109" y="638"/>
      <point x="59" y="594"/>
      <point x="59" y="531" type="curve" smooth="yes"/>
      <point x="59" y="458"/>
      <point x="127" y="419"/>
      <point x="192" y="419" type="curve" smooth="yes"/>
      <point x="201" y="419"/>
      <point x="208" y="419"/>
      <point x="217" y="420" type="curve"/>
      <point x="223" y="402" type="line"/>
    </contour>
    <contour>
      <point x="474" y="-33" type="line"/>
      <point x="469" y="68"/>
      <point x="468" y="132"/>
      <point x="468" y="208" type="curve" smooth="yes"/>
      <point x="468" y="552" type="line"/>
      <point x="553" y="552" type="line"/>
      <point x="553" y="560" type="line"/>
      <point x="493" y="620" type="line"/>
      <point x="389" y="620" type="line"/>
      <point x="389" y="444" type="line" smooth="yes"/>
      <point x="389" y="279"/>
      <point x="390" y="158"/>
      <point x="400" y="110" type="curve"/>
      <point x="435" y="-16" type="line"/>
      <point x="463" y="-33" type="line"/>
    </contour>
  </outline>
</glyph>
<glyph name="bNa" format="2">
  <advance width="572"/>
  <unicode hex="09A8"/>
  <outline>
    <contour>
      <point x="442" y="222" type="line"/>
      <point x="424" y="216" type="line"/>
      <point x="361" y="370"/>
      <point x="275" y="408"/>
      <point x="197" y="408" type="curve" smooth="yes"/>
      <point x="99" y="408"/>
      <point x="46" y="348"/>
      <point x="46" y="280" type="curve" smooth="yes"/>
      <point x="46" y="216"/>
      <point x="91" y="163"/>
      <point x="160" y="163" type="curve" smooth="yes"/>
      <point x="225" y="163"/>
      <point x="262" y="211"/>
      <point x="262" y="258" type="curve" smooth="yes"/>
      <point x="262" y="288"/>
      <point x="247" y="318"/>
      <point x="219" y="335" type="curve"/>
      <point x="220" y="338" type="line"/>
      <point x="382" y="324"/>
      <point x="441" y="93"/>
      <point x="462" y="-15" type="curve"/>
    </contour>
    <contour>
      <point x="502" y="-33" type="line"/>
      <point x="498" y="68"/>
      <point x="497" y="132"/>
      <point x="497" y="208" type="curve" smooth="yes"/>
      <point x="497" y="568" type="line"/>
      <point x="417" y="568" type="line"/>
      <point x="417" y="417" type="line" smooth="yes"/>
      <point x="417" y="296"/>
      <point x="422" y="247"/>
      <point x="428" y="208" type="curve"/>
      <point x="462" y="-15" type="line"/>
      <point x="491" y="-33" type="line"/>
    </contour>
    <contour>
      <point x="582" y="552" type="line"/>
      <point x="582" y="560" type="line"/>
      <point x="522" y="620" type="line"/>
      <point x="-50" y="620" type="line"/>
      <point x="-50" y="612" type="line"/>
      <point x="10" y="552" type="line"/>
    </contour>
  </outline>
</glyph>
<glyph name="bPa" format="2">
  <advance width="679"/>
  <unicode hex="09AA"/>
  <outline>
    <contour>
      <point x="259" y="363" type="line"/>
      <point x="243" y="374" type="line"/>
      <point x="244" y="382"/>
      <point x="244" y="386"/>
      <point x="244" y="387" type="curve"/>
      <point x="244" y="450"/>
      <point x="201" y="487"/>
      <point x="147" y="490" type="curve"/>
      <point x="145" y="493" type="line"/>
      <point x="181" y="537"/>
      <point x="238" y="559"/>
      <point x="290" y="559" type="curve" smooth="yes"/>
      <point x="433" y="559"/>
      <point x="528" y="386"/>
      <point x="528" y="299" type="curve"/>
      <point x="551" y="433" type="line"/>
      <point x="531" y="428" type="line"/>
      <point x="459" y="570"/>
      <point x="376" y="630"/>
      <point x="262" y="630" type="curve" smooth="yes"/>
      <point x="115" y="630"/>
      <point x="15" y="530"/>
      <point x="15" y="465" type="curve" smooth="yes"/>
      <point x="15" y="435"/>
      <point x="37" y="411"/>
      <point x="68" y="411" type="curve" smooth="yes"/>
      <point x="106" y="411"/>
      <point x="113" y="442"/>
      <point x="150" y="442" type="curve" smooth="yes"/>
      <point x="187" y="442"/>
      <point x="202" y="409"/>
      <point x="202" y="374" type="curve" smooth="yes"/>
      <point x="202" y="340"/>
      <point x="188" y="318"/>
      <point x="142" y="273" type="curve"/>
    </contour>
    <contour>
      <point x="231" y="225" type="line"/>
      <point x="316" y="316"/>
      <point x="390" y="393"/>
      <point x="478" y="466" type="curve"/>
      <point x="418" y="531" type="line"/>
      <point x="339" y="462"/>
      <point x="283" y="409"/>
      <point x="237" y="363" type="curve"/>
      <point x="142" y="273" type="line"/>
      <point x="142" y="268" type="line"/>
    </contour>
    <contour>
      <point x="606" y="-43" type="line"/>
      <point x="598" y="552" type="line"/>
      <point x="689" y="552" type="line"/>
      <point x="689" y="560" type="line"/>
      <point x="629" y="620" type="line"/>
      <point x="529" y="620" type="line"/>
      <point x="529" y="608" type="line" smooth="yes"/>
      <point x="529" y="523"/>
      <point x="529" y="471"/>
      <point x="537" y="415" type="curve"/>
      <point x="528" y="299" type="line"/>
      <point x="528" y="291"/>
      <point x="527" y="80"/>
      <point x="527" y="10" type="curve"/>
      <point x="595" y="-43" type="line"/>
    </contour>
  </outline>
</glyph>
<glyph name="bPha" format="2">
  <advance width="735"/>
  <unicode hex="09AB"/>
  <outline>
    <contour>
      <point x="427" y="131" type="line"/>
      <point x="411" y="120" type="line"/>
      <point x="336" y="208"/>
      <point x="254" y="253"/>
      <point x="180" y="279" type="curve"/>
      <point x="179" y="282" type="line"/>
      <point x="227" y="319"/>
      <point x="281" y="355"/>
      <point x="337" y="390" type="curve"/>
      <point x="289" y="448"/>
      <point x="235" y="503"/>
      <point x="179" y="550" type="curve"/>
      <point x="192" y="576" type="line"/>
      <point x="37" y="525" type="line"/>
      <point x="116" y="524"/>
      <point x="167" y="507"/>
      <point x="237" y="434" type="curve"/>
      <point x="179" y="396"/>
      <point x="116" y="353"/>
      <point x="53" y="305" type="curve"/>
      <point x="126" y="212" type="line"/>
      <point x="302" y="189"/>
      <point x="416" y="85"/>
      <point x="448" y="-16" type="curve"/>
    </contour>
    <contour>
      <point x="487" y="-33" type="line"/>
      <point x="483" y="68"/>
      <point x="483" y="132"/>
      <point x="483" y="208" type="curve" smooth="yes"/>
      <point x="483" y="415" type="line"/>
      <point x="490" y="416"/>
      <point x="498" y="416"/>
      <point x="499" y="416" type="curve"/>
      <point x="569" y="416"/>
      <point x="658" y="400"/>
      <point x="658" y="340" type="curve" smooth="yes"/>
      <point x="658" y="324"/>
      <point x="651" y="312"/>
      <point x="638" y="305" type="curve"/>
      <point x="623" y="323"/>
      <point x="607" y="332"/>
      <point x="586" y="332" type="curve" smooth="yes"/>
      <point x="546" y="332"/>
      <point x="524" y="302"/>
      <point x="524" y="272" type="curve" smooth="yes"/>
      <point x="524" y="239"/>
      <point x="549" y="205"/>
      <point x="596" y="205" type="curve" smooth="yes"/>
      <point x="648" y="205"/>
      <point x="695" y="246"/>
      <point x="695" y="327" type="curve" smooth="yes"/>
      <point x="695" y="426"/>
      <point x="626" y="500"/>
      <point x="478" y="500" type="curve" smooth="yes"/>
      <point x="460" y="500"/>
      <point x="429" y="499"/>
      <point x="404" y="494" type="curve"/>
      <point x="404" y="422" type="line" smooth="yes"/>
      <point x="404" y="268"/>
      <point x="405" y="160"/>
      <point x="416" y="115" type="curve"/>
      <point x="448" y="-16" type="line"/>
      <point x="476" y="-33" type="line"/>
    </contour>
    <contour>
      <point x="164" y="552" type="line"/>
      <point x="745" y="552" type="line"/>
      <point x="745" y="560" type="line"/>
      <point x="685" y="620" type="line"/>
      <point x="-50" y="620" type="line"/>
      <point x="-50" y="612" type="line"/>
      <point x="37" y="525" type="line"/>
    </contour>
  </outline>
</glyph>
<glyph name="bBa" format="2">
  <advance width="535"/>
  <unicode hex="09AC"/>
  <outline>
    <contour>
      <point x="404" y="132" type="line"/>
      <point x="388" y="121" type="line"/>
      <point x="307" y="222"/>
      <point x="225" y="268"/>
      <point x="146" y="298" type="curve"/>
      <point x="145" y="301" type="line"/>
      <point x="225" y="352"/>
      <point x="312" y="393"/>
      <point x="398" y="429" type="curve"/>
      <point x="398" y="525" type="line"/>
      <point x="287" y="480"/>
      <point x="154" y="412"/>
      <point x="13" y="326" type="curve"/>
      <point x="92" y="227" type="line"/>
      <point x="271" y="202"/>
      <point x="391" y="84"/>
      <point x="427" y="-16" type="curve"/>
    </contour>
    <contour>
      <point x="466" y="-33" type="line"/>
      <point x="461" y="68"/>
      <point x="460" y="132"/>
      <point x="460" y="208" type="curve" smooth="yes"/>
      <point x="460" y="568" type="line"/>
      <point x="381" y="568" type="line"/>
      <point x="381" y="446" type="line" smooth="yes"/>
      <point x="381" y="279"/>
      <point x="382" y="164"/>
      <point x="392" y="116" type="curve"/>
      <point x="427" y="-16" type="line"/>
      <point x="455" y="-33" type="line"/>
    </contour>
    <contour>
      <point x="545" y="552" type="line"/>
      <point x="545" y="560" type="line"/>
      <point x="485" y="620" type="line"/>
      <point x="-50" y="620" type="line"/>
      <point x="-50" y="612" type="line"/>
      <point x="10" y="552" type="line"/>
    </contour>
  </outline>
</glyph>
<glyph name="bBha" format="2">
  <advance width="711"/>
  <unicode hex="09AD"/>
  <outline>
    <contour>
      <point x="421" y="38" type="curve" smooth="yes"/>
      <point x="573" y="38"/>
      <point x="661" y="138"/>
      <point x="661" y="269" type="curve" smooth="yes"/>
      <point x="661" y="348"/>
      <point x="629" y="429"/>
      <point x="546" y="467" type="curve"/>
      <point x="541" y="466" type="line"/>
      <point x="491" y="388"/>
      <point x="442" y="347"/>
      <point x="391" y="337" type="curve"/>
      <point x="389" y="340" type="line"/>
      <point x="405" y="357"/>
      <point x="412" y="377"/>
      <point x="412" y="397" type="curve" smooth="yes"/>
      <point x="412" y="441"/>
      <point x="380" y="482"/>
      <point x="325" y="482" type="curve" smooth="yes"/>
      <point x="275" y="482"/>
      <point x="230" y="448"/>
      <point x="230" y="387" type="curve" smooth="yes"/>
      <point x="230" y="320"/>
      <point x="285" y="262"/>
      <point x="387" y="262" type="curve" smooth="yes"/>
      <point x="471" y="262"/>
      <point x="523" y="300"/>
      <point x="581" y="375" type="curve"/>
      <point x="596" y="359"/>
      <point x="612" y="332"/>
      <point x="612" y="299" type="curve" smooth="yes"/>
      <point x="612" y="230"/>
      <point x="542" y="133"/>
      <point x="406" y="133" type="curve" smooth="yes"/>
      <point x="281" y="133"/>
      <point x="140" y="217"/>
      <point x="72" y="500" type="curve"/>
      <point x="42" y="509" type="line"/>
      <point x="32" y="509" type="line"/>
      <point x="93" y="141"/>
      <point x="268" y="38"/>
    </contour>
    <contour>
      <point x="721" y="552" type="line"/>
      <point x="721" y="560" type="line"/>
      <point x="661" y="620" type="line"/>
      <point x="-50" y="620" type="line"/>
      <point x="-50" y="612" type="line"/>
      <point x="10" y="552" type="line"/>
    </contour>
  </outline>
</glyph>
<glyph name="bMa" format="2">
  <advance width="586"/>
  <unicode hex="09AE"/>
  <outline>
    <contour>
      <point x="453" y="149" type="line"/>
      <point x="437" y="138" type="line"/>
      <point x="380" y="224"/>
      <point x="281" y="337"/>
      <point x="186" y="337" type="curve" smooth="yes"/>
      <point x="118" y="337"/>
      <point x="80" y="287"/>
      <point x="80" y="236" type="curve" smooth="yes"/>
      <point x="80" y="184"/>
      <point x="118" y="132"/>
      <point x="190" y="132" type="curve" smooth="yes"/>
      <point x="280" y="132"/>
      <point x="330" y="222"/>
      <point x="330" y="288" type="curve" smooth="yes"/>
      <point x="330" y="361"/>
      <point x="286" y="451"/>
      <point x="162" y="550" type="curve"/>
      <point x="174" y="574" type="line"/>
      <point x="38" y="524" type="line"/>
      <point x="107" y="511"/>
      <point x="258" y="430"/>
      <point x="258" y="352" type="curve" smooth="yes"/>
      <point x="258" y="333"/>
      <point x="249" y="318"/>
      <point x="235" y="320" type="curve"/>
      <point x="289" y="210" type="line"/>
      <point x="403" y="160"/>
      <point x="453" y="64"/>
      <point x="478" y="-16" type="curve"/>
    </contour>
    <contour>
      <point x="516" y="-33" type="line"/>
      <point x="512" y="68"/>
      <point x="511" y="132"/>
      <point x="511" y="208" type="curve" smooth="yes"/>
      <point x="511" y="568" type="line"/>
      <point x="432" y="568" type="line"/>
      <point x="432" y="405" type="line" smooth="yes"/>
      <point x="432" y="250"/>
      <point x="432" y="181"/>
      <point x="442" y="131" type="curve"/>
      <point x="478" y="-16" type="line"/>
      <point x="505" y="-33" type="line"/>
    </contour>
    <contour>
      <point x="147" y="552" type="line"/>
      <point x="596" y="552" type="line"/>
      <point x="596" y="560" type="line"/>
      <point x="536" y="620" type="line"/>
      <point x="-50" y="620" type="line"/>
      <point x="-50" y="612" type="line"/>
      <point x="38" y="524" type="line"/>
    </contour>
  </outline>
</glyph>
<glyph name="bYa" format="2">
  <advance width="564"/>
  <unicode hex="09AF"/>
  <outline>
    <contour>
      <point x="433" y="128" type="line"/>
      <point x="417" y="117" type="line"/>
      <point x="340" y="205"/>
      <point x="253" y="251"/>
      <point x="176" y="277" type="curve"/>
      <point x="175" y="280" type="line"/>
      <point x="225" y="318"/>
      <point x="281" y="354"/>
      <point x="339" y="390" type="curve"/>
      <point x="291" y="448"/>
      <point x="237" y="503"/>
      <point x="181" y="550" type="curve"/>
      <point x="193" y="573" type="line"/>
      <point x="37" y="525" type="line"/>
      <point x="116" y="524"/>
      <point x="169" y="507"/>
      <point x="239" y="434" type="curve"/>
      <point x="179" y="395"/>
      <point x="114" y="352"/>
      <point x="49" y="303" type="curve"/>
      <point x="122" y="210" type="line"/>
      <point x="303" y="187"/>
      <point x="420" y="84"/>
      <point x="456" y="-16" type="curve"/>
    </contour>
    <contour>
      <point x="495" y="-33" type="line"/>
      <point x="490" y="68"/>
      <point x="489" y="132"/>
      <point x="489" y="208" type="curve" smooth="yes"/>
      <point x="489" y="568" type="line"/>
      <point x="410" y="568" type="line"/>
      <point x="410" y="422" type="line" smooth="yes"/>
      <point x="410" y="268"/>
      <point x="411" y="157"/>
      <point x="421" y="112" type="curve"/>
      <point x="456" y="-16" type="line"/>
      <point x="484" y="-33" type="line"/>
    </contour>
    <contour>
      <point x="176" y="552" type="line"/>
      <point x="574" y="552" type="line"/>
      <point x="574" y="560" type="line"/>
      <point x="514" y="620" type="line"/>
      <point x="-50" y="620" type="line"/>
      <point x="-50" y="612" type="line"/>
      <point x="37" y="525" type="line"/>
    </contour>
  </outline>
  <guideline angle="134.997" x="569" y="0"/>
</glyph>
<glyph name="bLa" format="2">
  <advance width="684"/>
  <unicode hex="09B2"/>
  <outline>
    <contour>
      <point x="220" y="130" type="curve" smooth="yes"/>
      <point x="291" y="130"/>
      <point x="337" y="169"/>
      <point x="337" y="224" type="curve" smooth="yes"/>
      <point x="337" y="274"/>
      <point x="299" y="308"/>
      <point x="254" y="308" type="curve" smooth="yes"/>
      <point x="215" y="308"/>
      <point x="177" y="282"/>
      <point x="177" y="241" type="curve" smooth="yes"/>
      <point x="177" y="224"/>
      <point x="184" y="205"/>
      <point x="201" y="187" type="curve"/>
      <point x="200" y="184" type="line"/>
      <point x="141" y="184"/>
      <point x="112" y="240"/>
      <point x="112" y="289" type="curve" smooth="yes"/>
      <point x="112" y="358"/>
      <point x="166" y="402"/>
      <point x="232" y="402" type="curve" smooth="yes"/>
      <point x="291" y="402"/>
      <point x="334" y="369"/>
      <point x="363" y="307" type="curve"/>
      <point x="350" y="390" type="line"/>
      <point x="315" y="442"/>
      <point x="263" y="488"/>
      <point x="192" y="488" type="curve" smooth="yes"/>
      <point x="105" y="488"/>
      <point x="33" y="417"/>
      <point x="33" y="322" type="curve" smooth="yes"/>
      <point x="33" y="221"/>
      <point x="111" y="130"/>
    </contour>
    <contour>
      <point x="560" y="396" type="line"/>
      <point x="539" y="386" type="line"/>
      <point x="506" y="448"/>
      <point x="468" y="481"/>
      <point x="427" y="481" type="curve" smooth="yes"/>
      <point x="382" y="481"/>
      <point x="351" y="439"/>
      <point x="337" y="390" type="curve"/>
      <point x="363" y="307" type="line"/>
      <point x="388" y="296" type="line"/>
      <point x="394" y="298" type="line"/>
      <point x="406" y="368"/>
      <point x="422" y="402"/>
      <point x="457" y="402" type="curve" smooth="yes"/>
      <point x="484" y="402"/>
      <point x="533" y="368"/>
      <point x="533" y="272" type="curve"/>
    </contour>
    <contour>
      <point x="611" y="-43" type="line"/>
      <point x="603" y="569" type="line"/>
      <point x="534" y="569" type="line"/>
      <point x="534" y="465"/>
      <point x="533" y="425"/>
      <point x="543" y="376" type="curve"/>
      <point x="533" y="272" type="line"/>
      <point x="533" y="257"/>
      <point x="532" y="73"/>
      <point x="532" y="10" type="curve"/>
      <point x="600" y="-43" type="line"/>
    </contour>
    <contour>
      <point x="694" y="552" type="line"/>
      <point x="694" y="560" type="line"/>
      <point x="634" y="620" type="line"/>
      <point x="-50" y="620" type="line"/>
      <point x="-50" y="612" type="line"/>
      <point x="10" y="552" type="line"/>
    </contour>
  </outline>
</glyph>
<glyph name="bSha" format="2">
  <advance width="638"/>
  <unicode hex="09B6"/>
  <outline>
    <contour>
      <point x="565" y="-43" type="line"/>
      <point x="557" y="552" type="line"/>
      <point x="648" y="552" type="line"/>
      <point x="648" y="560" type="line"/>
      <point x="588" y="620" type="line"/>
      <point x="488" y="620" type="line"/>
      <point x="488" y="617" type="line" smooth="yes"/>
      <point x="488" y="541"/>
      <point x="489" y="509"/>
      <point x="499" y="461" type="curve"/>
      <point x="487" y="329" type="line"/>
      <point x="487" y="314"/>
      <point x="486" y="82"/>
      <point x="486" y="10" type="curve"/>
      <point x="554" y="-43" type="line"/>
    </contour>
    <contour>
      <point x="122" y="273" type="curve" smooth="yes"/>
      <point x="161" y="273"/>
      <point x="205" y="299"/>
      <point x="225" y="360" type="curve"/>
      <point x="229" y="360" type="line"/>
      <point x="253" y="295"/>
      <point x="293" y="273"/>
      <point x="331" y="273" type="curve" smooth="yes"/>
      <point x="374" y="273"/>
      <point x="413" y="307"/>
      <point x="413" y="353" type="curve" smooth="yes"/>
      <point x="413" y="393"/>
      <point x="388" y="446"/>
      <point x="276" y="501" type="curve"/>
      <point x="183" y="501" type="line"/>
      <point x="47" y="445"/>
      <point x="36" y="391"/>
      <point x="36" y="360" type="curve" smooth="yes"/>
      <point x="36" y="303"/>
      <point x="82" y="273"/>
    </contour>
    <contour>
      <point x="197" y="501" type="line"/>
      <point x="150" y="594"/>
      <point x="108" y="620"/>
      <point x="28" y="620" type="curve" smooth="yes"/>
      <point x="-50" y="620" type="line"/>
      <point x="-50" y="612" type="line"/>
      <point x="29" y="533" type="line"/>
      <point x="62" y="533" type="line" smooth="yes"/>
      <point x="119" y="533"/>
      <point x="139" y="532"/>
      <point x="166" y="473" type="curve"/>
    </contour>
    <contour>
      <point x="516" y="485" type="line"/>
      <point x="494" y="474" type="line"/>
      <point x="431" y="575"/>
      <point x="376" y="620"/>
      <point x="335" y="620" type="curve" smooth="yes"/>
      <point x="303" y="620"/>
      <point x="264" y="592"/>
      <point x="200" y="501" type="curve"/>
      <point x="301" y="473" type="line"/>
      <point x="318" y="514"/>
      <point x="344" y="537"/>
      <point x="362" y="537" type="curve" smooth="yes"/>
      <point x="391" y="537"/>
      <point x="487" y="483"/>
      <point x="487" y="329" type="curve"/>
    </contour>
  </outline>
  <guideline angle="0" x="0" y="270"/>
</glyph>
<glyph name="bSa" format="2">
  <advance width="604"/>
  <unicode hex="09B8"/>
  <outline>
    <contour>
      <point x="158" y="146" type="curve" smooth="yes"/>
      <point x="196" y="146"/>
      <point x="211" y="170"/>
      <point x="278" y="253" type="curve" smooth="yes"/>
      <point x="322" y="308"/>
      <point x="351" y="333"/>
      <point x="379" y="333" type="curve" smooth="yes"/>
      <point x="409" y="333"/>
      <point x="453" y="301"/>
      <point x="453" y="221" type="curve"/>
      <point x="486" y="338" type="line"/>
      <point x="459" y="325" type="line"/>
      <point x="425" y="384"/>
      <point x="384" y="421"/>
      <point x="341" y="421" type="curve" smooth="yes"/>
      <point x="304" y="421"/>
      <point x="279" y="402"/>
      <point x="225" y="339" type="curve"/>
      <point x="177" y="279"/>
      <point x="143" y="230"/>
      <point x="115" y="230" type="curve" smooth="yes"/>
      <point x="99" y="230"/>
      <point x="78" y="245"/>
      <point x="62" y="287" type="curve"/>
      <point x="54" y="287" type="line"/>
      <point x="22" y="263" type="line"/>
      <point x="57" y="192"/>
      <point x="109" y="146"/>
    </contour>
    <contour>
      <point x="269" y="365" type="line"/>
      <point x="253" y="376" type="line"/>
      <point x="259" y="394"/>
      <point x="262" y="414"/>
      <point x="262" y="433" type="curve" smooth="yes"/>
      <point x="262" y="477"/>
      <point x="245" y="524"/>
      <point x="201" y="549" type="curve"/>
      <point x="201" y="568" type="line"/>
      <point x="38" y="524" type="line"/>
      <point x="143" y="513"/>
      <point x="224" y="472"/>
      <point x="224" y="387" type="curve" smooth="yes"/>
      <point x="224" y="364"/>
      <point x="216" y="334"/>
      <point x="203" y="302" type="curve"/>
    </contour>
    <contour>
      <point x="531" y="-43" type="line"/>
      <point x="524" y="568" type="line"/>
      <point x="454" y="568" type="line"/>
      <point x="454" y="508" type="line" smooth="yes"/>
      <point x="454" y="400"/>
      <point x="454" y="360"/>
      <point x="463" y="315" type="curve"/>
      <point x="453" y="221" type="line"/>
      <point x="453" y="208"/>
      <point x="452" y="70"/>
      <point x="452" y="10" type="curve"/>
      <point x="520" y="-43" type="line"/>
    </contour>
    <contour>
      <point x="185" y="552" type="line"/>
      <point x="614" y="552" type="line"/>
      <point x="614" y="560" type="line"/>
      <point x="554" y="620" type="line"/>
      <point x="-50" y="620" type="line"/>
      <point x="-50" y="612" type="line"/>
      <point x="38" y="524" type="line"/>
    </contour>
  </outline>
</glyph>
<glyph name="bHa" format="2">
  <advance width="539"/>
  <unicode hex="09B9"/>
  <outline>
    <contour>
      <point x="268" y="137" type="line"/>
      <point x="386" y="166"/>
      <point x="474" y="225"/>
      <point x="474" y="330" type="curve" smooth="yes"/>
      <point x="474" y="434"/>
      <point x="383" y="501"/>
      <point x="252" y="501" type="curve" smooth="yes"/>
      <point x="179" y="501"/>
      <point x="69" y="465"/>
      <point x="69" y="387" type="curve" smooth="yes"/>
      <point x="69" y="341"/>
      <point x="107" y="315"/>
      <point x="157" y="315" type="curve" smooth="yes"/>
      <point x="220" y="315"/>
      <point x="268" y="357"/>
      <point x="278" y="425" type="curve"/>
      <point x="293" y="432"/>
      <point x="311" y="436"/>
      <point x="330" y="436" type="curve" smooth="yes"/>
      <point x="373" y="436"/>
      <point x="413" y="413"/>
      <point x="413" y="366" type="curve" smooth="yes"/>
      <point x="413" y="280"/>
      <point x="285" y="215"/>
      <point x="179" y="215" type="curve" smooth="yes"/>
      <point x="150" y="215"/>
      <point x="115" y="220"/>
      <point x="42" y="248" type="curve"/>
      <point x="37" y="243" type="line"/>
      <point x="103" y="120" type="line"/>
    </contour>
    <contour>
      <point x="589" y="-123" type="line"/>
      <point x="575" y="-75" type="line"/>
      <point x="534" y="-27"/>
      <point x="461" y="43"/>
      <point x="286" y="139" type="curve"/>
      <point x="286" y="162" type="line"/>
      <point x="103" y="120" type="line"/>
      <point x="266" y="84"/>
      <point x="405" y="18"/>
      <point x="582" y="-123" type="curve"/>
    </contour>
    <contour>
      <point x="280" y="486" type="line"/>
      <point x="275" y="514"/>
      <point x="272" y="543"/>
      <point x="260" y="565" type="curve"/>
      <point x="182" y="565" type="line"/>
      <point x="212" y="545"/>
      <point x="228" y="513"/>
      <point x="226" y="488" type="curve"/>
    </contour>
    <contour>
      <point x="549" y="552" type="line"/>
      <point x="549" y="560" type="line"/>
      <point x="489" y="620" type="line"/>
      <point x="-50" y="620" type="line"/>
      <point x="-50" y="612" type="line"/>
      <point x="10" y="552" type="line"/>
    </contour>
  </outline>
</glyph>
<glyph name="bAvagraha" format="2">
  <advance width="519"/>
  <unicode hex="09BD"/>
  <outline>
    <contour>
      <point x="280" y="138" type="line"/>
      <point x="387" y="168"/>
      <point x="463" y="228"/>
      <point x="463" y="325" type="curve" smooth="yes"/>
      <point x="463" y="445"/>
      <point x="344" y="496"/>
      <point x="259" y="496" type="curve" smooth="yes"/>
      <point x="136" y="496"/>
      <point x="67" y="445"/>
      <point x="67" y="385" type="curve" smooth="yes"/>
      <point x="67" y="340"/>
      <point x="104" y="314"/>
      <point x="153" y="314" type="curve" smooth="yes"/>
      <point x="220" y="314"/>
      <point x="273" y="366"/>
      <point x="272" y="437" type="curve"/>
      <point x="272" y="486" type="line"/>
      <point x="258" y="568"/>
      <point x="185" y="620"/>
      <point x="79" y="620" type="curve" smooth="yes"/>
      <point x="-50" y="620" type="line"/>
      <point x="-50" y="612" type="line"/>
      <point x="11" y="552" type="line"/>
      <point x="110" y="552" type="line" smooth="yes"/>
      <point x="219" y="552"/>
      <point x="220" y="506"/>
      <point x="221" y="491" type="curve"/>
      <point x="260" y="417" type="line"/>
      <point x="277" y="426"/>
      <point x="300" y="433"/>
      <point x="323" y="433" type="curve" smooth="yes"/>
      <point x="366" y="433"/>
      <point x="402" y="406"/>
      <point x="402" y="360" type="curve" smooth="yes"/>
      <point x="402" y="275"/>
      <point x="279" y="210"/>
      <point x="175" y="210" type="curve" smooth="yes"/>
      <point x="144" y="210"/>
      <point x="112" y="214"/>
      <point x="40" y="242" type="curve"/>
      <point x="280" y="109" type="line"/>
    </contour>
    <contour>
      <point x="578" y="-123" type="line"/>
      <point x="564" y="-75" type="line"/>
      <point x="522" y="-26"/>
      <point x="452" y="43"/>
      <point x="254" y="149" type="curve"/>
      <point x="40" y="242" type="line"/>
      <point x="36" y="237" type="line"/>
      <point x="100" y="116" type="line"/>
      <point x="268" y="77"/>
      <point x="402" y="12"/>
      <point x="571" y="-123" type="curve"/>
    </contour>
  </outline>
</glyph>
<glyph name="bSignAa" format="2">
  <advance width="245"/>
  <unicode hex="09BE"/>
  <outline>
    <contour>
      <point x="176" y="-43" type="line"/>
      <point x="157" y="614" type="line"/>
      <point x="152" y="704" type="line"/>
      <point x="109" y="735" type="line"/>
      <point x="102" y="735" type="line"/>
      <point x="102" y="602" type="line" smooth="yes"/>
      <point x="102" y="556"/>
      <point x="103" y="533"/>
      <point x="111" y="486" type="curve"/>
      <point x="96" y="355" type="line"/>
      <point x="96" y="10" type="line"/>
      <point x="165" y="-43" type="line"/>
    </contour>
    <contour>
      <point x="126" y="511" type="line"/>
      <point x="105" y="504" type="line"/>
      <point x="69" y="604"/>
      <point x="26" y="620"/>
      <point x="-50" y="620" type="curve" smooth="yes"/>
      <point x="-60" y="620" type="line"/>
      <point x="-60" y="612" type="line"/>
      <point x="-13" y="552" type="line"/>
      <point x="79" y="552"/>
      <point x="96" y="460"/>
      <point x="96" y="355" type="curve"/>
    </contour>
    <contour>
      <point x="255" y="552" type="line"/>
      <point x="255" y="560" type="line"/>
      <point x="195" y="620" type="line"/>
      <point x="158" y="620"/>
      <point x="155" y="639"/>
      <point x="152" y="704" type="curve"/>
      <point x="144" y="569" type="line"/>
      <point x="162" y="578" type="line"/>
      <point x="172" y="564"/>
      <point x="186" y="552"/>
      <point x="213" y="552" type="curve" smooth="yes"/>
    </contour>
  </outline>
</glyph>
<glyph name="bSignI" format="2">
  <advance width="247"/>
  <unicode hex="09BF"/>
  <outline>
    <contour>
      <point x="155" y="607" type="line"/>
      <point x="124" y="642"/>
      <point x="115" y="663"/>
      <point x="115" y="688" type="curve" smooth="yes"/>
      <point x="115" y="757"/>
      <point x="189" y="819"/>
      <point x="318" y="819" type="curve" smooth="yes"/>
      <point x="423" y="819"/>
      <point x="537" y="774"/>
      <point x="645" y="655" type="curve"/>
      <point x="652" y="655" type="line"/>
      <point x="661" y="690" type="line"/>
      <point x="557" y="816"/>
      <point x="404" y="892"/>
      <point x="273" y="892" type="curve" smooth="yes"/>
      <point x="129" y="892"/>
      <point x="32" y="807"/>
      <point x="32" y="728" type="curve" smooth="yes"/>
      <point x="32" y="676"/>
      <point x="71" y="652"/>
      <point x="104" y="607" type="curve"/>
    </contour>
    <contour>
      <point x="174" y="-43" type="line"/>
      <point x="166" y="568" type="line"/>
      <point x="97" y="568" type="line"/>
      <point x="95" y="10" type="line"/>
      <point x="163" y="-43" type="line"/>
    </contour>
    <contour>
      <point x="257" y="552" type="line"/>
      <point x="257" y="560" type="line"/>
      <point x="197" y="620" type="line"/>
      <point x="-50" y="620" type="line"/>
      <point x="-50" y="612" type="line"/>
      <point x="10" y="552" type="line"/>
    </contour>
  </outline>
</glyph>
<glyph name="bSignIi" format="2">
  <advance width="247"/>
  <unicode hex="09C0"/>
  <outline>
    <contour>
      <point x="162" y="604" type="line"/>
      <point x="130" y="825"/>
      <point x="-36" y="915"/>
      <point x="-236" y="915" type="curve" smooth="yes"/>
      <point x="-383" y="915"/>
      <point x="-465" y="861"/>
      <point x="-465" y="789" type="curve" smooth="yes"/>
      <point x="-465" y="727"/>
      <point x="-404" y="686"/>
      <point x="-316" y="686" type="curve" smooth="yes"/>
      <point x="-273" y="686"/>
      <point x="-235" y="696"/>
      <point x="-203" y="696" type="curve" smooth="yes"/>
      <point x="-165" y="696"/>
      <point x="-135" y="685"/>
      <point x="-135" y="655" type="curve" smooth="yes"/>
      <point x="-135" y="644"/>
      <point x="-138" y="630"/>
      <point x="-149" y="615" type="curve"/>
      <point x="-80" y="615" type="line"/>
      <point x="-100" y="732"/>
      <point x="-161" y="768"/>
      <point x="-240" y="768" type="curve" smooth="yes"/>
      <point x="-288" y="768"/>
      <point x="-342" y="755"/>
      <point x="-374" y="755" type="curve" smooth="yes"/>
      <point x="-414" y="755"/>
      <point x="-422" y="774"/>
      <point x="-422" y="784" type="curve" smooth="yes"/>
      <point x="-422" y="812"/>
      <point x="-359" y="844"/>
      <point x="-229" y="844" type="curve" smooth="yes"/>
      <point x="5" y="844"/>
      <point x="99" y="741"/>
      <point x="96" y="604" type="curve"/>
    </contour>
    <contour>
      <point x="174" y="-43" type="line"/>
      <point x="166" y="568" type="line"/>
      <point x="97" y="568" type="line"/>
      <point x="95" y="10" type="line"/>
      <point x="163" y="-43" type="line"/>
    </contour>
    <contour>
      <point x="257" y="552" type="line"/>
      <point x="257" y="560" type="line"/>
      <point x="197" y="620" type="line"/>
      <point x="-50" y="620" type="line"/>
      <point x="-50" y="612" type="line"/>
      <point x="10" y="552" type="line"/>
    </contour>
  </outline>
</glyph>
<glyph name="bSignVocalicR" format="2">
  <unicode hex="09C3"/>
  <outline>
    <contour>
      <point x="-7" y="-255" type="line"/>
      <point x="-20" y="-204" type="line"/>
      <point x="-57" y="-171"/>
      <point x="-118" y="-126"/>
      <point x="-168" y="-90" type="curve"/>
      <point x="-69" y="-33" type="line"/>
      <point x="-90" y="44" type="line"/>
      <point x="-282" y="-68" type="line"/>
      <point x="-278" y="-77" type="line"/>
      <point x="-188" y="-130"/>
      <point x="-104" y="-186"/>
      <point x="-16" y="-255" type="curve"/>
    </contour>
  </outline>
  <guideline angle="0" x="0" y="-255"/>
</glyph>
<glyph name="bSignVocalicRr" format="2">
  <unicode hex="09C4"/>
  <outline>
    <contour>
      <point x="-13" y="-248" type="line"/>
      <point x="-24" y="-203" type="line"/>
      <point x="-61" y="-170"/>
      <point x="-120" y="-127"/>
      <point x="-170" y="-91" type="curve"/>
      <point x="-69" y="-33" type="line"/>
      <point x="-88" y="34" type="line"/>
      <point x="-272" y="-74" type="line"/>
      <point x="-269" y="-81" type="line"/>
      <point x="-179" y="-134"/>
      <point x="-110" y="-179"/>
      <point x="-22" y="-248" type="curve"/>
    </contour>
    <contour>
      <point x="-13" y="-388" type="line"/>
      <point x="-24" y="-343" type="line"/>
      <point x="-61" y="-310"/>
      <point x="-122" y="-266"/>
      <point x="-172" y="-230" type="curve"/>
      <point x="-82" y="-178" type="line"/>
      <point x="-135" y="-133" type="line"/>
      <point x="-272" y="-214" type="line"/>
      <point x="-269" y="-221" type="line"/>
      <point x="-179" y="-274"/>
      <point x="-110" y="-319"/>
      <point x="-22" y="-388" type="curve"/>
    </contour>
  </outline>
</glyph>
<glyph name="bSignE" format="2">
  <advance width="405"/>
  <unicode hex="09C7"/>
  <outline>
    <contour>
      <point x="288" y="-34" type="curve" smooth="yes"/>
      <point x="356" y="-34"/>
      <point x="405" y="2"/>
      <point x="405" y="56" type="curve" smooth="yes"/>
      <point x="405" y="106"/>
      <point x="366" y="133"/>
      <point x="325" y="133" type="curve" smooth="yes"/>
      <point x="281" y="133"/>
      <point x="256" y="100"/>
      <point x="256" y="67" type="curve" smooth="yes"/>
      <point x="256" y="50"/>
      <point x="262" y="32"/>
      <point x="276" y="19" type="curve"/>
      <point x="276" y="17" type="line"/>
      <point x="270" y="15"/>
      <point x="264" y="15"/>
      <point x="263" y="15" type="curve"/>
      <point x="180" y="15"/>
      <point x="136" y="108"/>
      <point x="136" y="227" type="curve" smooth="yes"/>
      <point x="136" y="438"/>
      <point x="274" y="552"/>
      <point x="415" y="552" type="curve"/>
      <point x="179" y="567" type="line"/>
      <point x="185" y="549" type="line"/>
      <point x="98" y="481"/>
      <point x="55" y="381"/>
      <point x="55" y="274" type="curve" smooth="yes"/>
      <point x="55" y="123"/>
      <point x="143" y="-34"/>
    </contour>
    <contour>
      <point x="415" y="552" type="line"/>
      <point x="415" y="560" type="line"/>
      <point x="355" y="620" type="line"/>
      <point x="-50" y="620" type="line"/>
      <point x="-50" y="612" type="line"/>
      <point x="10" y="552" type="line"/>
    </contour>
  </outline>
</glyph>
<glyph name="bSignAi" format="2">
  <advance width="405"/>
  <unicode hex="09C8"/>
  <outline>
    <contour>
      <point x="288" y="-34" type="curve" smooth="yes"/>
      <point x="356" y="-34"/>
      <point x="405" y="2"/>
      <point x="405" y="56" type="curve" smooth="yes"/>
      <point x="405" y="106"/>
      <point x="366" y="133"/>
      <point x="325" y="133" type="curve" smooth="yes"/>
      <point x="281" y="133"/>
      <point x="256" y="100"/>
      <point x="256" y="67" type="curve" smooth="yes"/>
      <point x="256" y="50"/>
      <point x="262" y="32"/>
      <point x="276" y="19" type="curve"/>
      <point x="276" y="17" type="line"/>
      <point x="270" y="15"/>
      <point x="264" y="15"/>
      <point x="263" y="15" type="curve"/>
      <point x="180" y="15"/>
      <point x="136" y="108"/>
      <point x="136" y="227" type="curve" smooth="yes"/>
      <point x="136" y="444"/>
      <point x="281" y="552"/>
      <point x="415" y="552" type="curve"/>
      <point x="179" y="567" type="line"/>
      <point x="185" y="549" type="line"/>
      <point x="98" y="481"/>
      <point x="55" y="381"/>
      <point x="55" y="274" type="curve" smooth="yes"/>
      <point x="55" y="123"/>
      <point x="143" y="-34"/>
    </contour>
    <contour>
      <point x="415" y="552" type="line"/>
      <point x="415" y="560" type="line"/>
      <point x="355" y="620" type="line"/>
      <point x="-50" y="620" type="line"/>
      <point x="-50" y="612" type="line"/>
      <point x="10" y="552" type="line"/>
    </contour>
    <contour>
      <point x="355" y="620" type="line"/>
      <point x="350" y="711"/>
      <point x="302" y="783"/>
      <point x="192" y="783" type="curve" smooth="yes"/>
      <point x="158" y="783"/>
      <point x="113" y="777"/>
      <point x="68" y="777" type="curve" smooth="yes"/>
      <point x="7" y="777"/>
      <point x="-21" y="791"/>
      <point x="-21" y="830" type="curve" smooth="yes"/>
      <point x="-21" y="843"/>
      <point x="-17" y="858"/>
      <point x="-5" y="876" type="curve"/>
      <point x="-29" y="896" type="line"/>
      <point x="-37" y="896" type="line"/>
      <point x="-57" y="873"/>
      <point x="-65" y="845"/>
      <point x="-65" y="821" type="curve" smooth="yes"/>
      <point x="-65" y="754"/>
      <point x="-12" y="695"/>
      <point x="95" y="695" type="curve" smooth="yes"/>
      <point x="136" y="695"/>
      <point x="189" y="702"/>
      <point x="224" y="702" type="curve" smooth="yes"/>
      <point x="279" y="702"/>
      <point x="307" y="682"/>
      <point x="307" y="655" type="curve" smooth="yes"/>
      <point x="307" y="638"/>
      <point x="296" y="621"/>
      <point x="280" y="606" type="curve"/>
    </contour>
  </outline>
</glyph>
<glyph name="bVirama" format="2">
  <unicode hex="09CD"/>
  <outline>
    <contour>
      <point x="67" y="-256" type="line"/>
      <point x="54" y="-202" type="line"/>
      <point x="-150" y="-36" type="line"/>
      <point x="-156" y="-38" type="line"/>
      <point x="-140" y="-110" type="line"/>
      <point x="61" y="-258" type="line"/>
    </contour>
  </outline>
</glyph>
<glyph name="bKhandTa" format="2">
  <advance width="504"/>
  <unicode hex="09CE"/>
  <outline>
    <contour>
      <point x="502" y="-33" type="line"/>
      <point x="503" y="-25"/>
      <point x="507" y="-10"/>
      <point x="507" y="15" type="curve" smooth="yes"/>
      <point x="507" y="280"/>
      <point x="94" y="224"/>
      <point x="94" y="401" type="curve" smooth="yes"/>
      <point x="94" y="485"/>
      <point x="187" y="534"/>
      <point x="257" y="534" type="curve" smooth="yes"/>
      <point x="312" y="534"/>
      <point x="353" y="506"/>
      <point x="353" y="467" type="curve" smooth="yes"/>
      <point x="353" y="439"/>
      <point x="330" y="415"/>
      <point x="290" y="415" type="curve" smooth="yes"/>
      <point x="246" y="415"/>
      <point x="189" y="443"/>
      <point x="179" y="538" type="curve"/>
      <point x="154" y="526" type="line"/>
      <point x="149" y="496"/>
      <point x="148" y="486"/>
      <point x="148" y="475" type="curve" smooth="yes"/>
      <point x="148" y="384"/>
      <point x="218" y="337"/>
      <point x="286" y="337" type="curve" smooth="yes"/>
      <point x="356" y="337"/>
      <point x="402" y="389"/>
      <point x="402" y="460" type="curve" smooth="yes"/>
      <point x="402" y="537"/>
      <point x="347" y="612"/>
      <point x="242" y="612" type="curve" smooth="yes"/>
      <point x="131" y="612"/>
      <point x="46" y="531"/>
      <point x="46" y="404" type="curve" smooth="yes"/>
      <point x="46" y="124"/>
      <point x="466" y="170"/>
      <point x="466" y="7" type="curve" smooth="yes"/>
      <point x="466" y="-1"/>
      <point x="465" y="-8"/>
      <point x="464" y="-15" type="curve"/>
      <point x="493" y="-33" type="line"/>
    </contour>
  </outline>
</glyph>
<glyph name="bVocalicRr" format="2">
  <advance width="741"/>
  <unicode hex="09E0"/>
  <outline>
    <contour>
      <point x="433" y="108" type="line"/>
      <point x="365" y="209"/>
      <point x="294" y="260"/>
      <point x="226" y="293" type="curve"/>
      <point x="225" y="296" type="line"/>
      <point x="293" y="336"/>
      <point x="363" y="371"/>
      <point x="432" y="400" type="curve"/>
      <point x="432" y="495" type="line"/>
      <point x="384" y="473" type="line" smooth="yes"/>
      <point x="287" y="428"/>
      <point x="185" y="375"/>
      <point x="83" y="313" type="curve"/>
      <point x="149" y="231" type="line"/>
      <point x="247" y="217"/>
      <point x="328" y="168"/>
      <point x="384" y="109" type="curve"/>
    </contour>
    <contour>
      <point x="488" y="-165" type="line"/>
      <point x="475" y="-114" type="line"/>
      <point x="438" y="-81"/>
      <point x="377" y="-36"/>
      <point x="327" y="0" type="curve"/>
      <point x="440" y="65" type="line"/>
      <point x="440" y="132" type="line"/>
      <point x="414" y="114" type="line"/>
      <point x="386" y="123" type="line"/>
      <point x="213" y="22" type="line"/>
      <point x="217" y="13" type="line"/>
      <point x="307" y="-40"/>
      <point x="391" y="-96"/>
      <point x="479" y="-165" type="curve"/>
    </contour>
    <contour>
      <point x="614" y="172" type="line"/>
      <point x="594" y="158" type="line"/>
      <point x="562" y="205"/>
      <point x="527" y="244"/>
      <point x="480" y="266" type="curve"/>
      <point x="480" y="196" type="line"/>
      <point x="573" y="166"/>
      <point x="613" y="77"/>
      <point x="633" y="12" type="curve"/>
    </contour>
    <contour>
      <point x="125" y="443" type="curve" smooth="yes"/>
      <point x="188" y="443"/>
      <point x="251" y="477"/>
      <point x="289" y="503" type="curve" smooth="yes"/>
      <point x="310" y="517"/>
      <point x="314" y="519"/>
      <point x="322" y="519" type="curve" smooth="yes"/>
      <point x="337" y="519"/>
      <point x="349" y="503"/>
      <point x="388" y="454" type="curve"/>
      <point x="415" y="478" type="line"/>
      <point x="383" y="522"/>
      <point x="347" y="566"/>
      <point x="302" y="614" type="curve"/>
      <point x="297" y="614" type="line"/>
      <point x="240" y="558"/>
      <point x="169" y="527"/>
      <point x="152" y="527" type="curve"/>
      <point x="151" y="556"/>
      <point x="127" y="591"/>
      <point x="84" y="591" type="curve" smooth="yes"/>
      <point x="48" y="591"/>
      <point x="20" y="564"/>
      <point x="20" y="528" type="curve" smooth="yes"/>
      <point x="20" y="489"/>
      <point x="53" y="443"/>
    </contour>
    <contour>
      <point x="499" y="-33" type="line"/>
      <point x="495" y="69"/>
      <point x="495" y="127"/>
      <point x="495" y="206" type="curve" smooth="yes"/>
      <point x="495" y="579" type="line"/>
      <point x="426" y="633" type="line"/>
      <point x="417" y="633" type="line"/>
      <point x="417" y="420" type="line" smooth="yes"/>
      <point x="417" y="253"/>
      <point x="418" y="156"/>
      <point x="429" y="116" type="curve"/>
      <point x="416" y="71" type="line"/>
      <point x="437" y="43"/>
      <point x="452" y="12"/>
      <point x="460" y="-16" type="curve"/>
      <point x="488" y="-33" type="line"/>
    </contour>
    <contour>
      <point x="671" y="-4" type="line"/>
      <point x="667" y="92"/>
      <point x="666" y="153"/>
      <point x="666" y="225" type="curve" smooth="yes"/>
      <point x="666" y="552" type="line"/>
      <point x="751" y="552" type="line"/>
      <point x="751" y="560" type="line"/>
      <point x="691" y="620" type="line"/>
      <point x="589" y="620" type="line"/>
      <point x="589" y="411" type="line" smooth="yes"/>
      <point x="589" y="264"/>
      <point x="589" y="199"/>
      <point x="599" y="151" type="curve"/>
      <point x="633" y="12" type="line"/>
      <point x="660" y="-4" type="line"/>
    </contour>
  </outline>
</glyph>
<glyph name="bVocalicLl" format="2">
  <advance width="725"/>
  <unicode hex="09E1"/>
  <outline>
    <contour>
      <point x="179" y="35" type="curve" smooth="yes"/>
      <point x="229" y="35"/>
      <point x="261" y="68"/>
      <point x="261" y="111" type="curve" smooth="yes"/>
      <point x="261" y="154"/>
      <point x="229" y="178"/>
      <point x="197" y="178" type="curve" smooth="yes"/>
      <point x="163" y="178"/>
      <point x="134" y="153"/>
      <point x="134" y="117" type="curve" smooth="yes"/>
      <point x="134" y="111"/>
      <point x="135" y="103"/>
      <point x="137" y="96" type="curve"/>
      <point x="135" y="93" type="line"/>
      <point x="111" y="106"/>
      <point x="100" y="138"/>
      <point x="100" y="165" type="curve" smooth="yes"/>
      <point x="100" y="229"/>
      <point x="154" y="280"/>
      <point x="230" y="280" type="curve" smooth="yes"/>
      <point x="308" y="280"/>
      <point x="345" y="223"/>
      <point x="345" y="143" type="curve" smooth="yes"/>
      <point x="345" y="122"/>
      <point x="343" y="99"/>
      <point x="338" y="79" type="curve"/>
      <point x="446" y="79" type="line"/>
      <point x="500" y="139"/>
      <point x="527" y="199"/>
      <point x="527" y="281" type="curve" smooth="yes"/>
      <point x="527" y="443"/>
      <point x="407" y="498"/>
      <point x="267" y="553" type="curve" smooth="yes"/>
      <point x="190" y="583"/>
      <point x="122" y="612"/>
      <point x="122" y="666" type="curve" smooth="yes"/>
      <point x="122" y="688"/>
      <point x="133" y="704"/>
      <point x="152" y="720" type="curve"/>
      <point x="132" y="746" type="line"/>
      <point x="124" y="746" type="line"/>
      <point x="93" y="723"/>
      <point x="75" y="696"/>
      <point x="75" y="650" type="curve" smooth="yes"/>
      <point x="75" y="541"/>
      <point x="181" y="497"/>
      <point x="286" y="452" type="curve" smooth="yes"/>
      <point x="396" y="405"/>
      <point x="482" y="365"/>
      <point x="482" y="277" type="curve" smooth="yes"/>
      <point x="482" y="212"/>
      <point x="437" y="161"/>
      <point x="379" y="123" type="curve"/>
      <point x="377" y="124" type="line"/>
      <point x="380" y="142"/>
      <point x="382" y="157"/>
      <point x="382" y="175" type="curve" smooth="yes"/>
      <point x="382" y="268"/>
      <point x="332" y="363"/>
      <point x="217" y="363" type="curve" smooth="yes"/>
      <point x="107" y="363"/>
      <point x="55" y="278"/>
      <point x="55" y="193" type="curve" smooth="yes"/>
      <point x="55" y="114"/>
      <point x="102" y="35"/>
    </contour>
    <contour>
      <point x="606" y="-116" type="line"/>
      <point x="590" y="-108" type="line"/>
      <point x="593" y="-90"/>
      <point x="595" y="-75"/>
      <point x="595" y="-57" type="curve" smooth="yes"/>
      <point x="595" y="34"/>
      <point x="546" y="128"/>
      <point x="431" y="128" type="curve" smooth="yes"/>
      <point x="323" y="128"/>
      <point x="272" y="44"/>
      <point x="272" y="-40" type="curve" smooth="yes"/>
      <point x="272" y="-118"/>
      <point x="318" y="-195"/>
      <point x="396" y="-195" type="curve" smooth="yes"/>
      <point x="444" y="-195"/>
      <point x="476" y="-162"/>
      <point x="476" y="-120" type="curve" smooth="yes"/>
      <point x="476" y="-77"/>
      <point x="445" y="-53"/>
      <point x="413" y="-53" type="curve" smooth="yes"/>
      <point x="380" y="-53"/>
      <point x="351" y="-78"/>
      <point x="351" y="-114" type="curve" smooth="yes"/>
      <point x="351" y="-120"/>
      <point x="352" y="-127"/>
      <point x="354" y="-134" type="curve"/>
      <point x="352" y="-137" type="line"/>
      <point x="328" y="-124"/>
      <point x="316" y="-94"/>
      <point x="316" y="-67" type="curve" smooth="yes"/>
      <point x="316" y="-4"/>
      <point x="370" y="48"/>
      <point x="443" y="48" type="curve" smooth="yes"/>
      <point x="522" y="48"/>
      <point x="558" y="-10"/>
      <point x="558" y="-89" type="curve" smooth="yes"/>
      <point x="558" y="-132"/>
      <point x="548" y="-178"/>
      <point x="531" y="-222" type="curve"/>
    </contour>
    <contour>
      <point x="554" y="-239" type="line"/>
      <point x="665" y="-160"/>
      <point x="735" y="-84"/>
      <point x="735" y="45" type="curve" smooth="yes"/>
      <point x="735" y="210"/>
      <point x="618" y="252"/>
      <point x="513" y="309" type="curve"/>
      <point x="513" y="216" type="line"/>
      <point x="596" y="170"/>
      <point x="691" y="137"/>
      <point x="691" y="41" type="curve" smooth="yes"/>
      <point x="691" y="-28"/>
      <point x="643" y="-80"/>
      <point x="577" y="-118" type="curve"/>
      <point x="531" y="-222" type="line"/>
    </contour>
  </outline>
</glyph>
<glyph name="bSignVocalicL" format="2">
  <unicode hex="09E2"/>
  <outline>
    <contour>
      <point x="-123" y="-368" type="line"/>
      <point x="-56" y="-322"/>
      <point x="-13" y="-277"/>
      <point x="-13" y="-201" type="curve" smooth="yes"/>
      <point x="-13" y="-90"/>
      <point x="-108" y="-57"/>
      <point x="-174" y="-32" type="curve" smooth="yes"/>
      <point x="-216" y="-16"/>
      <point x="-248" y="-3"/>
      <point x="-248" y="24" type="curve" smooth="yes"/>
      <point x="-248" y="37"/>
      <point x="-242" y="47"/>
      <point x="-232" y="56" type="curve"/>
      <point x="-246" y="71" type="line"/>
      <point x="-251" y="71" type="line"/>
      <point x="-271" y="57"/>
      <point x="-279" y="36"/>
      <point x="-279" y="13" type="curve" smooth="yes"/>
      <point x="-279" y="-49"/>
      <point x="-210" y="-77"/>
      <point x="-162" y="-97" type="curve" smooth="yes"/>
      <point x="-98" y="-124"/>
      <point x="-45" y="-149"/>
      <point x="-45" y="-204" type="curve" smooth="yes"/>
      <point x="-45" y="-240"/>
      <point x="-68" y="-271"/>
      <point x="-103" y="-292" type="curve"/>
      <point x="-118" y="-292" type="line"/>
    </contour>
    <contour>
      <point x="-123" y="-368" type="line"/>
      <point x="-108" y="-297"/>
      <point x="-100" y="-291"/>
      <point x="-100" y="-258" type="curve" smooth="yes"/>
      <point x="-100" y="-206"/>
      <point x="-132" y="-149"/>
      <point x="-201" y="-149" type="curve" smooth="yes"/>
      <point x="-265" y="-149"/>
      <point x="-297" y="-198"/>
      <point x="-297" y="-248" type="curve" smooth="yes"/>
      <point x="-297" y="-293"/>
      <point x="-273" y="-344"/>
      <point x="-224" y="-344" type="curve" smooth="yes"/>
      <point x="-196" y="-344"/>
      <point x="-175" y="-328"/>
      <point x="-175" y="-301" type="curve" smooth="yes"/>
      <point x="-175" y="-276"/>
      <point x="-193" y="-262"/>
      <point x="-213" y="-262" type="curve" smooth="yes"/>
      <point x="-234" y="-262"/>
      <point x="-249" y="-275"/>
      <point x="-249" y="-300" type="curve"/>
      <point x="-249" y="-301"/>
      <point x="-249" y="-305"/>
      <point x="-248" y="-309" type="curve"/>
      <point x="-249" y="-311" type="line"/>
      <point x="-264" y="-303"/>
      <point x="-268" y="-284"/>
      <point x="-268" y="-269" type="curve" smooth="yes"/>
      <point x="-268" y="-230"/>
      <point x="-235" y="-202"/>
      <point x="-191" y="-202" type="curve" smooth="yes"/>
      <point x="-144" y="-202"/>
      <point x="-125" y="-232"/>
      <point x="-125" y="-278" type="curve" smooth="yes"/>
      <point x="-125" y="-304"/>
      <point x="-131" y="-331"/>
      <point x="-141" y="-356" type="curve"/>
    </contour>
  </outline>
</glyph>
<glyph name="bSignVocalicLl" format="2">
  <unicode hex="09E3"/>
  <outline>
    <contour>
      <point x="-123" y="-368" type="line"/>
      <point x="-56" y="-322"/>
      <point x="-13" y="-283"/>
      <point x="-13" y="-201" type="curve" smooth="yes"/>
      <point x="-13" y="-90"/>
      <point x="-108" y="-57"/>
      <point x="-174" y="-32" type="curve" smooth="yes"/>
      <point x="-216" y="-16"/>
      <point x="-248" y="-3"/>
      <point x="-248" y="24" type="curve" smooth="yes"/>
      <point x="-248" y="37"/>
      <point x="-242" y="47"/>
      <point x="-232" y="56" type="curve"/>
      <point x="-246" y="71" type="line"/>
      <point x="-251" y="71" type="line"/>
      <point x="-271" y="57"/>
      <point x="-278" y="37"/>
      <point x="-278" y="14" type="curve" smooth="yes"/>
      <point x="-278" y="-48"/>
      <point x="-209" y="-76"/>
      <point x="-161" y="-96" type="curve" smooth="yes"/>
      <point x="-97" y="-123"/>
      <point x="-45" y="-149"/>
      <point x="-45" y="-204" type="curve" smooth="yes"/>
      <point x="-45" y="-240"/>
      <point x="-68" y="-271"/>
      <point x="-103" y="-292" type="curve"/>
      <point x="-114" y="-292" type="line"/>
    </contour>
    <contour>
      <point x="-295" y="-388" type="line"/>
      <point x="-273" y="-307"/>
      <point x="-272" y="-291"/>
      <point x="-272" y="-278" type="curve" smooth="yes"/>
      <point x="-272" y="-226"/>
      <point x="-303" y="-169"/>
      <point x="-370" y="-169" type="curve" smooth="yes"/>
      <point x="-433" y="-169"/>
      <point x="-464" y="-218"/>
      <point x="-464" y="-268" type="curve" smooth="yes"/>
      <point x="-464" y="-313"/>
      <point x="-440" y="-364"/>
      <point x="-391" y="-364" type="curve" smooth="yes"/>
      <point x="-363" y="-364"/>
      <point x="-342" y="-348"/>
      <point x="-342" y="-321" type="curve" smooth="yes"/>
      <point x="-342" y="-296"/>
      <point x="-360" y="-282"/>
      <point x="-380" y="-282" type="curve" smooth="yes"/>
      <point x="-401" y="-282"/>
      <point x="-416" y="-295"/>
      <point x="-416" y="-320" type="curve"/>
      <point x="-416" y="-321"/>
      <point x="-416" y="-325"/>
      <point x="-415" y="-329" type="curve"/>
      <point x="-416" y="-331" type="line"/>
      <point x="-431" y="-323"/>
      <point x="-435" y="-304"/>
      <point x="-435" y="-289" type="curve" smooth="yes"/>
      <point x="-435" y="-250"/>
      <point x="-403" y="-222"/>
      <point x="-361" y="-222" type="curve" smooth="yes"/>
      <point x="-315" y="-222"/>
      <point x="-297" y="-252"/>
      <point x="-297" y="-298" type="curve" smooth="yes"/>
      <point x="-297" y="-324"/>
      <point x="-303" y="-351"/>
      <point x="-313" y="-376" type="curve"/>
    </contour>
    <contour>
      <point x="-295" y="-388" type="line"/>
      <point x="-228" y="-342"/>
      <point x="-186" y="-298"/>
      <point x="-186" y="-222" type="curve" smooth="yes"/>
      <point x="-186" y="-111"/>
      <point x="-276" y="-78"/>
      <point x="-338" y="-53" type="curve" smooth="yes"/>
      <point x="-378" y="-37"/>
      <point x="-407" y="-23"/>
      <point x="-407" y="4" type="curve" smooth="yes"/>
      <point x="-407" y="17"/>
      <point x="-401" y="27"/>
      <point x="-391" y="36" type="curve"/>
      <point x="-405" y="51" type="line"/>
      <point x="-410" y="51" type="line"/>
      <point x="-430" y="37"/>
      <point x="-438" y="16"/>
      <point x="-438" y="-7" type="curve" smooth="yes"/>
      <point x="-438" y="-69"/>
      <point x="-373" y="-97"/>
      <point x="-328" y="-117" type="curve" smooth="yes"/>
      <point x="-267" y="-144"/>
      <point x="-217" y="-169"/>
      <point x="-217" y="-224" type="curve" smooth="yes"/>
      <point x="-217" y="-260"/>
      <point x="-240" y="-291"/>
      <point x="-275" y="-312" type="curve"/>
      <point x="-290" y="-312" type="line"/>
    </contour>
    <contour>
      <point x="-123" y="-368" type="line"/>
      <point x="-108" y="-297"/>
      <point x="-100" y="-289"/>
      <point x="-100" y="-258" type="curve" smooth="yes"/>
      <point x="-100" y="-206"/>
      <point x="-132" y="-151"/>
      <point x="-201" y="-151" type="curve" smooth="yes"/>
      <point x="-205" y="-151"/>
      <point x="-210" y="-151"/>
      <point x="-214" y="-152" type="curve"/>
      <point x="-208" y="-204" type="line"/>
      <point x="-203" y="-203"/>
      <point x="-197" y="-202"/>
      <point x="-191" y="-202" type="curve" smooth="yes"/>
      <point x="-144" y="-202"/>
      <point x="-125" y="-232"/>
      <point x="-125" y="-278" type="curve" smooth="yes"/>
      <point x="-125" y="-304"/>
      <point x="-131" y="-331"/>
      <point x="-141" y="-356" type="curve"/>
    </contour>
  </outline>
</glyph>
<glyph name="bZero" format="2">
  <advance width="582"/>
  <unicode hex="09E6"/>
  <outline>
    <contour>
      <point x="312" y="73" type="curve" smooth="yes"/>
      <point x="431" y="73"/>
      <point x="517" y="151"/>
      <point x="517" y="263" type="curve" smooth="yes"/>
      <point x="517" y="378"/>
      <point x="425" y="480"/>
      <point x="287" y="480" type="curve" smooth="yes"/>
      <point x="155" y="480"/>
      <point x="83" y="384"/>
      <point x="83" y="284" type="curve" smooth="yes"/>
      <point x="83" y="168"/>
      <point x="179" y="73"/>
    </contour>
    <contour>
      <point x="259" y="128" type="curve" smooth="yes"/>
      <point x="202" y="128"/>
      <point x="168" y="171"/>
      <point x="168" y="234" type="curve" smooth="yes"/>
      <point x="168" y="334"/>
      <point x="257" y="422"/>
      <point x="339" y="422" type="curve" smooth="yes"/>
      <point x="401" y="422"/>
      <point x="434" y="374"/>
      <point x="434" y="315" type="curve" smooth="yes"/>
      <point x="434" y="216"/>
      <point x="341" y="128"/>
    </contour>
  </outline>
</glyph>
<glyph name="bOne" format="2">
  <advance width="491"/>
  <unicode hex="09E7"/>
  <outline>
    <contour>
      <point x="245" y="-10" type="curve" smooth="yes"/>
      <point x="343" y="-10"/>
      <point x="436" y="65"/>
      <point x="436" y="186" type="curve" smooth="yes"/>
      <point x="436" y="368"/>
      <point x="229" y="415"/>
      <point x="169" y="498" type="curve"/>
      <point x="182" y="516"/>
      <point x="188" y="534"/>
      <point x="188" y="550" type="curve" smooth="yes"/>
      <point x="188" y="583"/>
      <point x="163" y="608"/>
      <point x="127" y="608" type="curve" smooth="yes"/>
      <point x="89" y="608"/>
      <point x="60" y="581"/>
      <point x="60" y="536" type="curve" smooth="yes"/>
      <point x="60" y="453"/>
      <point x="161" y="398"/>
      <point x="228" y="363" type="curve" smooth="yes"/>
      <point x="322" y="314"/>
      <point x="385" y="273"/>
      <point x="385" y="207" type="curve" smooth="yes"/>
      <point x="385" y="176"/>
      <point x="371" y="139"/>
      <point x="313" y="111" type="curve"/>
      <point x="286" y="150"/>
      <point x="254" y="172"/>
      <point x="212" y="172" type="curve" smooth="yes"/>
      <point x="156" y="172"/>
      <point x="119" y="134"/>
      <point x="119" y="89" type="curve" smooth="yes"/>
      <point x="119" y="34"/>
      <point x="171" y="-10"/>
    </contour>
  </outline>
</glyph>
<glyph name="bFour" format="2">
  <advance width="544"/>
  <unicode hex="09EA"/>
  <outline>
    <contour>
      <point x="292" y="-10" type="curve" smooth="yes"/>
      <point x="426" y="-10"/>
      <point x="501" y="67"/>
      <point x="501" y="147" type="curve" smooth="yes"/>
      <point x="501" y="232"/>
      <point x="425" y="277"/>
      <point x="335" y="315" type="curve"/>
      <point x="280" y="293" type="line"/>
      <point x="370" y="264"/>
      <point x="404" y="220"/>
      <point x="404" y="174" type="curve" smooth="yes"/>
      <point x="404" y="108"/>
      <point x="329" y="42"/>
      <point x="248" y="42" type="curve" smooth="yes"/>
      <point x="197" y="42"/>
      <point x="147" y="68"/>
      <point x="147" y="125" type="curve" smooth="yes"/>
      <point x="147" y="206"/>
      <point x="239" y="241"/>
      <point x="336" y="289" type="curve" smooth="yes"/>
      <point x="410" y="325"/>
      <point x="480" y="370"/>
      <point x="480" y="447" type="curve" smooth="yes"/>
      <point x="480" y="536"/>
      <point x="390" y="608"/>
      <point x="273" y="608" type="curve" smooth="yes"/>
      <point x="158" y="608"/>
      <point x="85" y="538"/>
      <point x="85" y="457" type="curve" smooth="yes"/>
      <point x="85" y="404"/>
      <point x="116" y="361"/>
      <point x="215" y="313" type="curve"/>
      <point x="259" y="337" type="line"/>
      <point x="200" y="361"/>
      <point x="175" y="398"/>
      <point x="175" y="438" type="curve" smooth="yes"/>
      <point x="175" y="496"/>
      <point x="234" y="555"/>
      <point x="309" y="555" type="curve" smooth="yes"/>
      <point x="363" y="555"/>
      <point x="405" y="527"/>
      <point x="405" y="480" type="curve" smooth="yes"/>
      <point x="405" y="412"/>
      <point x="319" y="379"/>
      <point x="225" y="332" type="curve" smooth="yes"/>
      <point x="144" y="292"/>
      <point x="67" y="244"/>
      <point x="67" y="160" type="curve" smooth="yes"/>
      <point x="67" y="69"/>
      <point x="156" y="-10"/>
    </contour>
  </outline>
</glyph>
<glyph name="bFive" format="2">
  <advance width="605"/>
  <unicode hex="09EB"/>
  <outline>
    <contour>
      <point x="356" y="-10" type="curve" smooth="yes"/>
      <point x="448" y="-10"/>
      <point x="503" y="41"/>
      <point x="540" y="110" type="curve"/>
      <point x="537" y="116" type="line"/>
      <point x="444" y="113" type="line"/>
      <point x="409" y="67"/>
      <point x="362" y="47"/>
      <point x="314" y="47" type="curve" smooth="yes"/>
      <point x="237" y="47"/>
      <point x="161" y="100"/>
      <point x="161" y="226" type="curve" smooth="yes"/>
      <point x="161" y="328"/>
      <point x="210" y="425"/>
      <point x="313" y="504" type="curve"/>
      <point x="316" y="503" type="line"/>
      <point x="327" y="443"/>
      <point x="369" y="417"/>
      <point x="426" y="417" type="curve"/>
      <point x="427" y="417"/>
      <point x="430" y="417"/>
      <point x="437" y="418" type="curve"/>
      <point x="438" y="416" type="line"/>
      <point x="356" y="364"/>
      <point x="315" y="294"/>
      <point x="315" y="231" type="curve" smooth="yes"/>
      <point x="315" y="163"/>
      <point x="361" y="108"/>
      <point x="452" y="95" type="curve"/>
      <point x="537" y="116" type="line"/>
      <point x="447" y="120"/>
      <point x="393" y="146"/>
      <point x="393" y="209" type="curve" smooth="yes"/>
      <point x="393" y="300"/>
      <point x="504" y="364"/>
      <point x="539" y="385" type="curve" smooth="yes"/>
      <point x="544" y="388"/>
      <point x="559" y="398"/>
      <point x="559" y="418" type="curve" smooth="yes"/>
      <point x="559" y="439"/>
      <point x="542" y="462"/>
      <point x="514" y="462" type="curve" smooth="yes"/>
      <point x="495" y="462"/>
      <point x="478" y="452"/>
      <point x="451" y="452" type="curve" smooth="yes"/>
      <point x="404" y="452"/>
      <point x="360" y="478"/>
      <point x="360" y="517" type="curve" smooth="yes"/>
      <point x="360" y="541"/>
      <point x="377" y="549"/>
      <point x="377" y="569" type="curve" smooth="yes"/>
      <point x="377" y="592"/>
      <point x="354" y="608"/>
      <point x="333" y="608" type="curve" smooth="yes"/>
      <point x="275" y="608"/>
      <point x="86" y="468"/>
      <point x="86" y="265" type="curve" smooth="yes"/>
      <point x="86" y="92"/>
      <point x="224" y="-10"/>
    </contour>
  </outline>
</glyph>
<glyph name="bSix" format="2">
  <advance width="685"/>
  <unicode hex="09EC"/>
  <outline>
    <contour>
      <point x="400" y="-10" type="curve" smooth="yes"/>
      <point x="538" y="-10"/>
      <point x="620" y="84"/>
      <point x="620" y="215" type="curve" smooth="yes"/>
      <point x="620" y="300"/>
      <point x="586" y="371"/>
      <point x="514" y="416" type="curve"/>
      <point x="527" y="326" type="line"/>
      <point x="557" y="310"/>
      <point x="571" y="275"/>
      <point x="571" y="242" type="curve" smooth="yes"/>
      <point x="571" y="169"/>
      <point x="503" y="83"/>
      <point x="386" y="83" type="curve" smooth="yes"/>
      <point x="251" y="83"/>
      <point x="150" y="197"/>
      <point x="95" y="463" type="curve"/>
      <point x="65" y="472" type="line"/>
      <point x="55" y="472" type="line"/>
      <point x="109" y="102"/>
      <point x="249" y="-10"/>
    </contour>
    <contour>
      <point x="389" y="201" type="curve" smooth="yes"/>
      <point x="429" y="201"/>
      <point x="498" y="255"/>
      <point x="553" y="335" type="curve"/>
      <point x="514" y="416" type="line"/>
      <point x="509" y="415" type="line"/>
      <point x="463" y="343"/>
      <point x="397" y="285"/>
      <point x="365" y="285" type="curve" smooth="yes"/>
      <point x="353" y="285"/>
      <point x="349" y="294"/>
      <point x="349" y="312" type="curve" smooth="yes"/>
      <point x="349" y="488" type="line" smooth="yes"/>
      <point x="349" y="578"/>
      <point x="306" y="608"/>
      <point x="266" y="608" type="curve" smooth="yes"/>
      <point x="232" y="608"/>
      <point x="202" y="586"/>
      <point x="202" y="552" type="curve" smooth="yes"/>
      <point x="202" y="520"/>
      <point x="227" y="498"/>
      <point x="253" y="498" type="curve" smooth="yes"/>
      <point x="262" y="498"/>
      <point x="271" y="501"/>
      <point x="273" y="502" type="curve"/>
      <point x="276" y="500" type="line"/>
      <point x="272" y="464"/>
      <point x="272" y="432"/>
      <point x="272" y="335" type="curve" smooth="yes"/>
      <point x="272" y="269"/>
      <point x="350" y="201"/>
    </contour>
  </outline>
</glyph>
<glyph name="bSeven" format="2">
  <advance width="505"/>
  <unicode hex="09ED"/>
  <outline>
    <contour>
      <point x="416" y="-10" type="curve" smooth="yes"/>
      <point x="450" y="-10"/>
      <point x="480" y="12"/>
      <point x="480" y="46" type="curve" smooth="yes"/>
      <point x="480" y="78"/>
      <point x="455" y="100"/>
      <point x="429" y="100" type="curve" smooth="yes"/>
      <point x="420" y="100"/>
      <point x="411" y="97"/>
      <point x="409" y="96" type="curve"/>
      <point x="406" y="98" type="line"/>
      <point x="409" y="139"/>
      <point x="410" y="176"/>
      <point x="410" y="325" type="curve" smooth="yes"/>
      <point x="410" y="426" type="line" smooth="yes"/>
      <point x="410" y="509"/>
      <point x="314" y="608"/>
      <point x="233" y="608" type="curve" smooth="yes"/>
      <point x="154" y="608"/>
      <point x="40" y="511"/>
      <point x="40" y="426" type="curve" smooth="yes"/>
      <point x="40" y="349"/>
      <point x="139" y="243"/>
      <point x="263" y="243" type="curve" smooth="yes"/>
      <point x="287" y="243"/>
      <point x="309" y="247"/>
      <point x="330" y="255" type="curve"/>
      <point x="347" y="249" type="line"/>
      <point x="347" y="345" type="line"/>
      <point x="312" y="330"/>
      <point x="272" y="317"/>
      <point x="224" y="317" type="curve" smooth="yes"/>
      <point x="170" y="317"/>
      <point x="120" y="332"/>
      <point x="120" y="390" type="curve" smooth="yes"/>
      <point x="120" y="470"/>
      <point x="217" y="535"/>
      <point x="268" y="535" type="curve" smooth="yes"/>
      <point x="302" y="535"/>
      <point x="333" y="508"/>
      <point x="333" y="450" type="curve" smooth="yes"/>
      <point x="333" y="110" type="line" smooth="yes"/>
      <point x="333" y="20"/>
      <point x="376" y="-10"/>
    </contour>
  </outline>
</glyph>
<glyph name="bNine" format="2">
  <advance width="630"/>
  <unicode hex="09EF"/>
  <outline>
    <contour>
      <point x="375" y="-10" type="line"/>
      <point x="499" y="38"/>
      <point x="577" y="98"/>
      <point x="577" y="207" type="curve" smooth="yes"/>
      <point x="577" y="415"/>
      <point x="302" y="443"/>
      <point x="229" y="519" type="curve"/>
      <point x="236" y="530"/>
      <point x="239" y="541"/>
      <point x="239" y="552" type="curve" smooth="yes"/>
      <point x="239" y="582"/>
      <point x="215" y="608"/>
      <point x="179" y="608" type="curve" smooth="yes"/>
      <point x="143" y="608"/>
      <point x="112" y="583"/>
      <point x="112" y="543" type="curve" smooth="yes"/>
      <point x="112" y="462"/>
      <point x="228" y="423"/>
      <point x="325" y="389" type="curve" smooth="yes"/>
      <point x="465" y="340"/>
      <point x="525" y="303"/>
      <point x="525" y="229" type="curve" smooth="yes"/>
      <point x="525" y="181"/>
      <point x="498" y="141"/>
      <point x="443" y="115" type="curve"/>
      <point x="434" y="121" type="line"/>
      <point x="370" y="-5" type="line"/>
    </contour>
    <contour>
      <point x="226" y="-10" type="curve" smooth="yes"/>
      <point x="280" y="-10"/>
      <point x="330" y="19"/>
      <point x="330" y="75" type="curve" smooth="yes"/>
      <point x="330" y="124"/>
      <point x="294" y="149"/>
      <point x="259" y="149" type="curve" smooth="yes"/>
      <point x="226" y="149"/>
      <point x="194" y="127"/>
      <point x="194" y="86" type="curve" smooth="yes"/>
      <point x="194" y="67"/>
      <point x="200" y="52"/>
      <point x="214" y="39" type="curve"/>
      <point x="213" y="36" type="line"/>
      <point x="170" y="43"/>
      <point x="149" y="86"/>
      <point x="149" y="125" type="curve" smooth="yes"/>
      <point x="149" y="195"/>
      <point x="213" y="238"/>
      <point x="276" y="238" type="curve" smooth="yes"/>
      <point x="337" y="238"/>
      <point x="396" y="198"/>
      <point x="396" y="113" type="curve" smooth="yes"/>
      <point x="396" y="78"/>
      <point x="388" y="41"/>
      <point x="370" y="-5" type="curve"/>
      <point x="438" y="89" type="line"/>
      <point x="439" y="122"/>
      <point x="442" y="125"/>
      <point x="442" y="144" type="curve" smooth="yes"/>
      <point x="442" y="255"/>
      <point x="350" y="317"/>
      <point x="259" y="317" type="curve" smooth="yes"/>
      <point x="168" y="317"/>
      <point x="78" y="256"/>
      <point x="78" y="147" type="curve" smooth="yes"/>
      <point x="78" y="55"/>
      <point x="143" y="-10"/>
    </contour>
  </outline>
</glyph>
<glyph name="bRaAssamese" format="2">
  <advance width="535"/>
  <unicode hex="09F0"/>
  <outline>
    <contour>
      <point x="404" y="131" type="line"/>
      <point x="388" y="120" type="line"/>
      <point x="307" y="221"/>
      <point x="220" y="269"/>
      <point x="141" y="299" type="curve"/>
      <point x="140" y="302" type="line"/>
      <point x="219" y="353"/>
      <point x="312" y="398"/>
      <point x="397" y="434" type="curve"/>
      <point x="397" y="525" type="line"/>
      <point x="287" y="481"/>
      <point x="154" y="412"/>
      <point x="13" y="326" type="curve"/>
      <point x="92" y="227" type="line"/>
      <point x="271" y="202"/>
      <point x="391" y="84"/>
      <point x="427" y="-16" type="curve"/>
    </contour>
    <contour>
      <point x="393" y="264" type="line"/>
      <point x="340" y="313"/>
      <point x="285" y="351"/>
      <point x="229" y="387" type="curve"/>
      <point x="200" y="356" type="line"/>
      <point x="278" y="310"/>
      <point x="340" y="262"/>
      <point x="394" y="207" type="curve"/>
    </contour>
    <contour>
      <point x="466" y="-33" type="line"/>
      <point x="461" y="68"/>
      <point x="460" y="132"/>
      <point x="460" y="208" type="curve" smooth="yes"/>
      <point x="460" y="568" type="line"/>
      <point x="381" y="568" type="line"/>
      <point x="381" y="451" type="line" smooth="yes"/>
      <point x="381" y="285"/>
      <point x="381" y="162"/>
      <point x="392" y="115" type="curve"/>
      <point x="427" y="-16" type="line"/>
      <point x="455" y="-33" type="line"/>
    </contour>
    <contour>
      <point x="545" y="552" type="line"/>
      <point x="545" y="560" type="line"/>
      <point x="485" y="620" type="line"/>
      <point x="-50" y="620" type="line"/>
      <point x="-50" y="612" type="line"/>
      <point x="10" y="552" type="line"/>
    </contour>
  </outline>
</glyph>
<glyph name="bVaAssamese" format="2">
  <advance width="535"/>
  <unicode hex="09F1"/>
  <outline>
    <contour>
      <point x="413" y="138" type="line"/>
      <point x="388" y="121" type="line"/>
      <point x="307" y="222"/>
      <point x="225" y="268"/>
      <point x="146" y="298" type="curve"/>
      <point x="145" y="301" type="line"/>
      <point x="225" y="352"/>
      <point x="312" y="393"/>
      <point x="398" y="429" type="curve"/>
      <point x="398" y="525" type="line"/>
      <point x="287" y="480"/>
      <point x="154" y="412"/>
      <point x="13" y="326" type="curve"/>
      <point x="91" y="229" type="line"/>
      <point x="270" y="203"/>
      <point x="391" y="84"/>
      <point x="427" y="-16" type="curve"/>
    </contour>
    <contour>
      <point x="344" y="-17" type="line"/>
      <point x="339" y="36" type="line"/>
      <point x="269" y="94"/>
      <point x="193" y="138"/>
      <point x="123" y="170" type="curve"/>
      <point x="119" y="170" type="line"/>
      <point x="124" y="120" type="line"/>
      <point x="195" y="88"/>
      <point x="271" y="42"/>
      <point x="340" y="-17" type="curve"/>
    </contour>
    <contour>
      <point x="466" y="-33" type="line"/>
      <point x="461" y="68"/>
      <point x="460" y="132"/>
      <point x="460" y="208" type="curve" smooth="yes"/>
      <point x="460" y="568" type="line"/>
      <point x="381" y="568" type="line"/>
      <point x="381" y="446" type="line" smooth="yes"/>
      <point x="381" y="279"/>
      <point x="382" y="164"/>
      <point x="392" y="116" type="curve"/>
      <point x="427" y="-16" type="line"/>
      <point x="455" y="-33" type="line"/>
    </contour>
    <contour>
      <point x="545" y="552" type="line"/>
      <point x="545" y="560" type="line"/>
      <point x="485" y="620" type="line"/>
      <point x="-50" y="620" type="line"/>
      <point x="-50" y="612" type="line"/>
      <point x="10" y="552" type="line"/>
    </contour>
  </outline>
</glyph>
<glyph name="bRupeesign" format="2">
  <advance width="563"/>
  <unicode hex="09F3"/>
  <outline>
    <contour>
      <point x="262" y="-10" type="curve" smooth="yes"/>
      <point x="342" y="-10"/>
      <point x="493" y="132"/>
      <point x="493" y="276" type="curve" smooth="yes"/>
      <point x="493" y="356"/>
      <point x="445" y="403"/>
      <point x="384" y="403" type="curve" smooth="yes"/>
      <point x="329" y="403"/>
      <point x="301" y="365"/>
      <point x="301" y="326" type="curve" smooth="yes"/>
      <point x="301" y="288"/>
      <point x="326" y="250"/>
      <point x="373" y="250" type="curve" smooth="yes"/>
      <point x="381" y="250"/>
      <point x="392" y="251"/>
      <point x="402" y="254" type="curve"/>
      <point x="386" y="132"/>
      <point x="265" y="72"/>
      <point x="230" y="72" type="curve" smooth="yes"/>
      <point x="209" y="72"/>
      <point x="197" y="94"/>
      <point x="197" y="131" type="curve"/>
      <point x="197" y="633" type="line" smooth="yes"/>
      <point x="197" y="723"/>
      <point x="154" y="753"/>
      <point x="114" y="753" type="curve" smooth="yes"/>
      <point x="80" y="753"/>
      <point x="50" y="731"/>
      <point x="50" y="697" type="curve" smooth="yes"/>
      <point x="50" y="665"/>
      <point x="75" y="643"/>
      <point x="101" y="643" type="curve" smooth="yes"/>
      <point x="110" y="643"/>
      <point x="119" y="646"/>
      <point x="121" y="647" type="curve"/>
      <point x="124" y="645" type="line"/>
      <point x="120" y="609"/>
      <point x="120" y="562"/>
      <point x="120" y="517" type="curve" smooth="yes"/>
      <point x="120" y="149" type="line" smooth="yes"/>
      <point x="120" y="87"/>
      <point x="196" y="-10"/>
    </contour>
    <contour>
      <point x="508" y="459" type="line"/>
      <point x="508" y="467" type="line"/>
      <point x="458" y="517" type="line"/>
      <point x="5" y="517" type="line"/>
      <point x="5" y="509" type="line"/>
      <point x="55" y="459" type="line"/>
    </contour>
  </outline>
</glyph>
<glyph name="bCurrencyNomOne" format="2">
  <advance width="484"/>
  <unicode hex="09F4"/>
  <outline>
    <contour>
      <point x="94" y="-1" type="line"/>
      <point x="242" y="98"/>
      <point x="376" y="267"/>
      <point x="434" y="530" type="curve"/>
      <point x="408" y="550" type="line"/>
      <point x="402" y="550" type="line"/>
      <point x="322" y="299"/>
      <point x="190" y="169"/>
      <point x="32" y="74" type="curve"/>
      <point x="89" y="0" type="line"/>
    </contour>
  </outline>
</glyph>
<glyph name="bCurrencyNomTwo" format="2">
  <advance width="602"/>
  <unicode hex="09F5"/>
  <outline>
    <contour>
      <point x="212" y="-1" type="line"/>
      <point x="360" y="98"/>
      <point x="494" y="267"/>
      <point x="552" y="530" type="curve"/>
      <point x="526" y="550" type="line"/>
      <point x="520" y="550" type="line"/>
      <point x="476" y="415"/>
      <point x="417" y="310"/>
      <point x="348" y="233" type="curve"/>
      <point x="246" y="109" type="line"/>
      <point x="150" y="74" type="line"/>
      <point x="207" y="0" type="line"/>
    </contour>
    <contour>
      <point x="246" y="81" type="line"/>
      <point x="371" y="236" type="line"/>
      <point x="355" y="244" type="line"/>
      <point x="356" y="251"/>
      <point x="357" y="260"/>
      <point x="357" y="268" type="curve" smooth="yes"/>
      <point x="357" y="357"/>
      <point x="280" y="422"/>
      <point x="189" y="422" type="curve" smooth="yes"/>
      <point x="113" y="422"/>
      <point x="60" y="376"/>
      <point x="60" y="312" type="curve" smooth="yes"/>
      <point x="60" y="253"/>
      <point x="104" y="223"/>
      <point x="146" y="223" type="curve" smooth="yes"/>
      <point x="192" y="223"/>
      <point x="223" y="259"/>
      <point x="223" y="299" type="curve" smooth="yes"/>
      <point x="223" y="319"/>
      <point x="215" y="341"/>
      <point x="198" y="357" type="curve"/>
      <point x="205" y="359"/>
      <point x="213" y="360"/>
      <point x="222" y="360" type="curve" smooth="yes"/>
      <point x="278" y="360"/>
      <point x="315" y="310"/>
      <point x="315" y="262" type="curve" smooth="yes"/>
      <point x="315" y="234"/>
      <point x="302" y="159"/>
      <point x="150" y="74" type="curve"/>
    </contour>
  </outline>
</glyph>
<glyph name="bCurrencyNomThree" format="2">
  <advance width="661"/>
  <unicode hex="09F6"/>
  <outline>
    <contour>
      <point x="243" y="0" type="curve" smooth="yes"/>
      <point x="447" y="0"/>
      <point x="571" y="339"/>
      <point x="611" y="530" type="curve"/>
      <point x="585" y="550" type="line"/>
      <point x="579" y="550" type="line"/>
      <point x="518" y="339"/>
      <point x="365" y="69"/>
      <point x="199" y="69" type="curve" smooth="yes"/>
      <point x="158" y="69"/>
      <point x="140" y="86"/>
      <point x="140" y="103" type="curve" smooth="yes"/>
      <point x="140" y="128"/>
      <point x="178" y="139"/>
      <point x="221" y="155" type="curve" smooth="yes"/>
      <point x="285" y="179"/>
      <point x="348" y="208"/>
      <point x="348" y="292" type="curve" smooth="yes"/>
      <point x="348" y="370"/>
      <point x="285" y="434"/>
      <point x="193" y="434" type="curve" smooth="yes"/>
      <point x="120" y="434"/>
      <point x="75" y="394"/>
      <point x="75" y="338" type="curve" smooth="yes"/>
      <point x="75" y="288"/>
      <point x="113" y="264"/>
      <point x="149" y="264" type="curve" smooth="yes"/>
      <point x="183" y="264"/>
      <point x="216" y="285"/>
      <point x="216" y="326" type="curve" smooth="yes"/>
      <point x="216" y="340"/>
      <point x="212" y="356"/>
      <point x="203" y="373" type="curve"/>
      <point x="207" y="374"/>
      <point x="216" y="375"/>
      <point x="225" y="375" type="curve" smooth="yes"/>
      <point x="269" y="375"/>
      <point x="297" y="348"/>
      <point x="297" y="315" type="curve" smooth="yes"/>
      <point x="297" y="267"/>
      <point x="244" y="248"/>
      <point x="190" y="228" type="curve" smooth="yes"/>
      <point x="134" y="207"/>
      <point x="76" y="185"/>
      <point x="76" y="129" type="curve" smooth="yes"/>
      <point x="76" y="64"/>
      <point x="156" y="0"/>
    </contour>
  </outline>
</glyph>
<glyph name="bCurrencyNomFour" format="2">
  <advance width="292"/>
  <unicode hex="09F7"/>
  <outline>
    <contour>
      <point x="197" y="-10" type="line"/>
      <point x="197" y="488" type="line" smooth="yes"/>
      <point x="197" y="578"/>
      <point x="154" y="608"/>
      <point x="114" y="608" type="curve" smooth="yes"/>
      <point x="80" y="608"/>
      <point x="50" y="586"/>
      <point x="50" y="552" type="curve" smooth="yes"/>
      <point x="50" y="520"/>
      <point x="75" y="498"/>
      <point x="101" y="498" type="curve" smooth="yes"/>
      <point x="110" y="498"/>
      <point x="119" y="501"/>
      <point x="121" y="502" type="curve"/>
      <point x="124" y="500" type="line"/>
      <point x="121" y="464"/>
      <point x="120" y="426"/>
      <point x="120" y="318" type="curve"/>
      <point x="120" y="41" type="line"/>
      <point x="186" y="-10" type="line"/>
    </contour>
  </outline>
</glyph>
<glyph name="bCurrencyOneLessDenom" format="2">
  <advance width="595"/>
  <unicode hex="09F8"/>
  <outline>
    <contour>
      <point x="511" y="-10" type="curve" smooth="yes"/>
      <point x="545" y="-10"/>
      <point x="575" y="12"/>
      <point x="575" y="46" type="curve" smooth="yes"/>
      <point x="575" y="78"/>
      <point x="550" y="100"/>
      <point x="524" y="100" type="curve" smooth="yes"/>
      <point x="515" y="100"/>
      <point x="506" y="97"/>
      <point x="504" y="96" type="curve"/>
      <point x="501" y="98" type="line"/>
      <point x="504" y="139"/>
      <point x="505" y="177"/>
      <point x="505" y="236" type="curve" smooth="yes"/>
      <point x="505" y="346" type="line" smooth="yes"/>
      <point x="505" y="418"/>
      <point x="427" y="465"/>
      <point x="374" y="465" type="curve" smooth="yes"/>
      <point x="317" y="465"/>
      <point x="247" y="382"/>
      <point x="189" y="311" type="curve"/>
      <point x="187" y="312" type="line"/>
      <point x="187" y="488" type="line" smooth="yes"/>
      <point x="187" y="578"/>
      <point x="144" y="608"/>
      <point x="104" y="608" type="curve" smooth="yes"/>
      <point x="70" y="608"/>
      <point x="40" y="586"/>
      <point x="40" y="552" type="curve" smooth="yes"/>
      <point x="40" y="520"/>
      <point x="65" y="498"/>
      <point x="91" y="498" type="curve" smooth="yes"/>
      <point x="100" y="498"/>
      <point x="109" y="501"/>
      <point x="111" y="502" type="curve"/>
      <point x="114" y="500" type="line"/>
      <point x="111" y="471"/>
      <point x="110" y="395"/>
      <point x="110" y="282" type="curve" smooth="yes"/>
      <point x="110" y="233" type="line"/>
      <point x="179" y="163" type="line"/>
      <point x="185" y="163" type="line"/>
      <point x="266" y="287"/>
      <point x="362" y="401"/>
      <point x="407" y="401" type="curve" smooth="yes"/>
      <point x="424" y="401"/>
      <point x="428" y="390"/>
      <point x="428" y="366" type="curve" smooth="yes"/>
      <point x="428" y="110" type="line" smooth="yes"/>
      <point x="428" y="20"/>
      <point x="471" y="-10"/>
    </contour>
  </outline>
  <guideline angle="0" x="0" y="299"/>
</glyph>
<glyph name="bCurrencyDenomSixteen" format="2">
  <advance width="481"/>
  <unicode hex="09F9"/>
  <outline>
    <contour>
      <point x="259" y="133" type="curve" smooth="yes"/>
      <point x="358" y="133"/>
      <point x="429" y="198"/>
      <point x="429" y="290" type="curve" smooth="yes"/>
      <point x="429" y="386"/>
      <point x="353" y="470"/>
      <point x="239" y="470" type="curve" smooth="yes"/>
      <point x="130" y="470"/>
      <point x="70" y="391"/>
      <point x="70" y="308" type="curve" smooth="yes"/>
      <point x="70" y="212"/>
      <point x="149" y="133"/>
    </contour>
    <contour>
      <point x="216" y="187" type="curve" smooth="yes"/>
      <point x="173" y="187"/>
      <point x="146" y="222"/>
      <point x="146" y="267" type="curve" smooth="yes"/>
      <point x="146" y="344"/>
      <point x="220" y="414"/>
      <point x="282" y="414" type="curve" smooth="yes"/>
      <point x="327" y="414"/>
      <point x="353" y="376"/>
      <point x="353" y="332" type="curve" smooth="yes"/>
      <point x="353" y="258"/>
      <point x="277" y="187"/>
    </contour>
  </outline>
</glyph>
<glyph name="bIsshar" format="2">
  <advance width="656"/>
  <unicode hex="09FA"/>
  <outline>
    <contour>
      <point x="282" y="104" type="curve" smooth="yes"/>
      <point x="439" y="104"/>
      <point x="539" y="261"/>
      <point x="601" y="466" type="curve"/>
      <point x="575" y="486" type="line"/>
      <point x="569" y="486" type="line"/>
      <point x="506" y="341"/>
      <point x="423" y="195"/>
      <point x="272" y="195" type="curve" smooth="yes"/>
      <point x="179" y="195"/>
      <point x="121" y="251"/>
      <point x="121" y="337" type="curve" smooth="yes"/>
      <point x="121" y="368"/>
      <point x="126" y="403"/>
      <point x="141" y="436" type="curve"/>
      <point x="116" y="452" type="line"/>
      <point x="107" y="452" type="line"/>
      <point x="82" y="408"/>
      <point x="70" y="358"/>
      <point x="70" y="313" type="curve" smooth="yes"/>
      <point x="70" y="189"/>
      <point x="169" y="104"/>
    </contour>
    <contour>
      <point x="289" y="293" type="curve" smooth="yes"/>
      <point x="326" y="293"/>
      <point x="354" y="323"/>
      <point x="354" y="360" type="curve" smooth="yes"/>
      <point x="354" y="396"/>
      <point x="326" y="425"/>
      <point x="289" y="425" type="curve" smooth="yes"/>
      <point x="251" y="425"/>
      <point x="222" y="396"/>
      <point x="222" y="360" type="curve" smooth="yes"/>
      <point x="222" y="323"/>
      <point x="251" y="293"/>
    </contour>
  </outline>
</glyph>
<glyph name="bGanda" format="2">
  <advance width="363"/>
  <unicode hex="09FB"/>
  <outline>
    <contour>
      <point x="373" y="-179" type="line"/>
      <point x="358" y="-128" type="line"/>
      <point x="258" y="-35"/>
      <point x="150" y="74"/>
      <point x="150" y="185" type="curve" smooth="yes"/>
      <point x="150" y="212"/>
      <point x="155" y="314"/>
      <point x="302" y="353" type="curve"/>
      <point x="260" y="435" type="line"/>
      <point x="255" y="435" type="line"/>
      <point x="164" y="411"/>
      <point x="80" y="336"/>
      <point x="80" y="224" type="curve" smooth="yes"/>
      <point x="80" y="64"/>
      <point x="250" y="-91"/>
      <point x="367" y="-179" type="curve"/>
    </contour>
  </outline>
</glyph>
<glyph name="bAnusvaraVedic" format="2">
  <unicode hex="09FC"/>
  <outline>
    <contour>
      <point x="273" y="262" type="curve" smooth="yes"/>
      <point x="442" y="262"/>
      <point x="522" y="446"/>
      <point x="567" y="580" type="curve"/>
      <point x="541" y="597" type="line"/>
      <point x="535" y="597" type="line"/>
      <point x="480" y="473"/>
      <point x="406" y="348"/>
      <point x="261" y="348" type="curve" smooth="yes"/>
      <point x="147" y="348"/>
      <point x="108" y="424"/>
      <point x="108" y="505" type="curve" smooth="yes"/>
      <point x="108" y="523"/>
      <point x="110" y="545"/>
      <point x="116" y="566" type="curve"/>
      <point x="91" y="582" type="line"/>
      <point x="82" y="582" type="line"/>
      <point x="68" y="546"/>
      <point x="62" y="511"/>
      <point x="62" y="478" type="curve" smooth="yes"/>
      <point x="62" y="352"/>
      <point x="154" y="262"/>
    </contour>
    <contour>
      <point x="490" y="-63" type="line"/>
      <point x="476" y="-3" type="line"/>
      <point x="397" y="103"/>
      <point x="343" y="170"/>
      <point x="282" y="242" type="curve"/>
      <point x="276" y="240" type="line"/>
      <point x="294" y="121" type="line"/>
      <point x="361" y="63"/>
      <point x="423" y="7"/>
      <point x="483" y="-65" type="curve"/>
    </contour>
    <contour>
      <point x="274" y="428" type="curve" smooth="yes"/>
      <point x="310" y="428"/>
      <point x="337" y="457"/>
      <point x="337" y="492" type="curve" smooth="yes"/>
      <point x="337" y="527"/>
      <point x="310" y="555"/>
      <point x="274" y="555" type="curve" smooth="yes"/>
      <point x="238" y="555"/>
      <point x="210" y="527"/>
      <point x="210" y="492" type="curve" smooth="yes"/>
      <point x="210" y="457"/>
      <point x="238" y="428"/>
    </contour>
  </outline>
</glyph>
<glyph name="bAbbreviation" format="2">
  <advance width="461"/>
  <unicode hex="09FD"/>
  <outline>
    <contour>
      <point x="237" y="158" type="curve" smooth="yes"/>
      <point x="317" y="158"/>
      <point x="381" y="216"/>
      <point x="381" y="297" type="curve" smooth="yes"/>
      <point x="381" y="379"/>
      <point x="317" y="448"/>
      <point x="225" y="448" type="curve" smooth="yes"/>
      <point x="131" y="448"/>
      <point x="80" y="377"/>
      <point x="80" y="303" type="curve" smooth="yes"/>
      <point x="80" y="212"/>
      <point x="159" y="158"/>
    </contour>
    <contour>
      <point x="213" y="206" type="curve" smooth="yes"/>
      <point x="172" y="206"/>
      <point x="141" y="235"/>
      <point x="141" y="286" type="curve" smooth="yes"/>
      <point x="141" y="349"/>
      <point x="190" y="401"/>
      <point x="246" y="401" type="curve" smooth="yes"/>
      <point x="290" y="401"/>
      <point x="320" y="368"/>
      <point x="320" y="317" type="curve" smooth="yes"/>
      <point x="320" y="247"/>
      <point x="262" y="206"/>
    </contour>
  </outline>
</glyph>
<glyph name="bSandhi" format="2">
  <unicode hex="09FE"/>
  <outline>
    <contour>
      <point x="-204" y="733" type="line"/>
      <point x="-102" y="737"/>
      <point x="-37" y="762"/>
      <point x="-37" y="825" type="curve" smooth="yes"/>
      <point x="-37" y="888"/>
      <point x="-96" y="910"/>
      <point x="-141" y="910" type="curve" smooth="yes"/>
      <point x="-178" y="910"/>
      <point x="-224" y="890"/>
      <point x="-224" y="854" type="curve" smooth="yes"/>
      <point x="-224" y="830"/>
      <point x="-206" y="817"/>
      <point x="-183" y="817" type="curve" smooth="yes"/>
      <point x="-156" y="817"/>
      <point x="-131" y="837"/>
      <point x="-126" y="867" type="curve"/>
      <point x="-120" y="870"/>
      <point x="-112" y="871"/>
      <point x="-106" y="871" type="curve" smooth="yes"/>
      <point x="-89" y="871"/>
      <point x="-78" y="859"/>
      <point x="-78" y="844" type="curve" smooth="yes"/>
      <point x="-78" y="811"/>
      <point x="-132" y="787"/>
      <point x="-176" y="787" type="curve" smooth="yes"/>
      <point x="-188" y="787"/>
      <point x="-204" y="789"/>
      <point x="-237" y="802" type="curve"/>
      <point x="-239" y="797" type="line"/>
    </contour>
    <contour>
      <point x="12" y="626" type="line"/>
      <point x="3" y="660" type="line"/>
      <point x="-11" y="675"/>
      <point x="-41" y="703"/>
      <point x="-115" y="744" type="curve"/>
      <point x="-115" y="756" type="line"/>
      <point x="-204" y="733" type="line"/>
      <point x="-134" y="715"/>
      <point x="-64" y="683"/>
      <point x="7" y="626" type="curve"/>
    </contour>
    <contour>
      <point x="-125" y="901" type="line"/>
      <point x="-128" y="915"/>
      <point x="-140" y="964"/>
      <point x="-215" y="964" type="curve" smooth="yes"/>
      <point x="-263" y="964" type="line"/>
      <point x="-263" y="959" type="line"/>
      <point x="-230" y="925" type="line"/>
      <point x="-199" y="925" type="line" smooth="yes"/>
      <point x="-161" y="925"/>
      <point x="-158" y="917"/>
      <point x="-152" y="899" type="curve"/>
    </contour>
  </outline>
</glyph>
<glyph name="vKarshana" format="2">
  <unicode hex="1CD0"/>
  <outline>
    <contour>
      <point x="-102" y="808" type="line"/>
      <point x="19" y="672" type="line"/>
      <point x="23" y="672" type="line"/>
      <point x="56" y="701" type="line"/>
      <point x="-115" y="888" type="line"/>
      <point x="-119" y="888" type="line"/>
      <point x="-303" y="722" type="line"/>
      <point x="-304" y="714" type="line"/>
      <point x="-250" y="668" type="line"/>
    </contour>
  </outline>
</glyph>
<glyph name="vPrenkha" format="2">
  <unicode hex="1CD2"/>
  <outline>
    <contour>
      <point x="44" y="730" type="line"/>
      <point x="44" y="778" type="line"/>
      <point x="-275" y="778" type="line"/>
      <point x="-275" y="730" type="line"/>
    </contour>
  </outline>
</glyph>
<glyph name="vSvaritaYajurAggravated" format="2">
  <unicode hex="1CD5"/>
  <outline>
    <contour>
      <point x="-106" y="-211" type="curve" smooth="yes"/>
      <point x="-42" y="-211"/>
      <point x="11" y="-165"/>
      <point x="24" y="-57" type="curve"/>
      <point x="0" y="-47" type="line"/>
      <point x="-6" y="-49" type="line"/>
      <point x="-20" y="-115"/>
      <point x="-63" y="-141"/>
      <point x="-109" y="-141" type="curve" smooth="yes"/>
      <point x="-153" y="-141"/>
      <point x="-199" y="-116"/>
      <point x="-217" y="-57" type="curve"/>
      <point x="-240" y="-47" type="line"/>
      <point x="-246" y="-49" type="line"/>
      <point x="-247" y="-118" type="line"/>
      <point x="-229" y="-118" type="line"/>
      <point x="-204" y="-180"/>
      <point x="-158" y="-211"/>
    </contour>
    <contour>
      <point x="-349" y="-211" type="curve" smooth="yes"/>
      <point x="-294" y="-211"/>
      <point x="-244" y="-177"/>
      <point x="-225" y="-98" type="curve"/>
      <point x="-246" y="-49" type="line"/>
      <point x="-260" y="-115"/>
      <point x="-306" y="-141"/>
      <point x="-352" y="-141" type="curve" smooth="yes"/>
      <point x="-396" y="-141"/>
      <point x="-438" y="-117"/>
      <point x="-456" y="-58" type="curve"/>
      <point x="-484" y="-50" type="line"/>
      <point x="-491" y="-52" type="line"/>
      <point x="-473" y="-160"/>
      <point x="-416" y="-211"/>
    </contour>
  </outline>
</glyph>
<glyph name="vSvaritaYajurIndependent" format="2">
  <unicode hex="1CD6"/>
  <outline>
    <contour>
      <point x="-65" y="-244" type="line"/>
      <point x="-65" y="-196" type="line"/>
      <point x="-371" y="-196" type="line"/>
      <point x="-371" y="-50" type="line"/>
      <point x="-419" y="-50" type="line"/>
      <point x="-419" y="-244" type="line"/>
    </contour>
  </outline>
</glyph>
<glyph name="vCandraBelow" format="2">
  <unicode hex="1CD8"/>
  <outline>
    <contour>
      <point x="-227" y="-232" type="curve" smooth="yes"/>
      <point x="-131" y="-232"/>
      <point x="-41" y="-180"/>
      <point x="-16" y="-67" type="curve"/>
      <point x="-40" y="-57" type="line"/>
      <point x="-46" y="-59" type="line"/>
      <point x="-74" y="-127"/>
      <point x="-151" y="-163"/>
      <point x="-230" y="-163" type="curve" smooth="yes"/>
      <point x="-309" y="-163"/>
      <point x="-384" y="-127"/>
      <point x="-419" y="-67" type="curve"/>
      <point x="-447" y="-59" type="line"/>
      <point x="-454" y="-61" type="line"/>
      <point x="-422" y="-173"/>
      <point x="-330" y="-232"/>
    </contour>
  </outline>
  <guideline angle="90" x="-87" y="0"/>
</glyph>
<glyph name="vSvaritaAtharva" format="2">
  <advance width="256"/>
  <unicode hex="1CE1"/>
  <outline>
    <contour>
      <point x="-15" y="-229" type="line"/>
      <point x="118" y="-229"/>
      <point x="168" y="-123"/>
      <point x="168" y="-1" type="curve" smooth="yes"/>
      <point x="168" y="79"/>
      <point x="148" y="586"/>
      <point x="148" y="691" type="curve" smooth="yes"/>
      <point x="148" y="724"/>
      <point x="151" y="769"/>
      <point x="229" y="769" type="curve" smooth="yes"/>
      <point x="242" y="769"/>
      <point x="269" y="768"/>
      <point x="307" y="765" type="curve"/>
      <point x="307" y="772" type="line"/>
      <point x="259" y="843" type="line"/>
      <point x="127" y="843"/>
      <point x="83" y="739"/>
      <point x="83" y="620" type="curve" smooth="yes"/>
      <point x="83" y="532"/>
      <point x="103" y="17"/>
      <point x="103" y="-57" type="curve" smooth="yes"/>
      <point x="103" y="-112"/>
      <point x="95" y="-160"/>
      <point x="13" y="-160" type="curve" smooth="yes"/>
      <point x="-4" y="-160"/>
      <point x="-41" y="-158"/>
      <point x="-62" y="-156" type="curve"/>
      <point x="-62" y="-163" type="line"/>
    </contour>
  </outline>
  <guideline angle="0" x="0" y="375"/>
  <guideline angle="100.819" x="235" y="0"/>
</glyph>
<glyph name="vUpadhmaniya" format="2">
  <advance width="777"/>
  <unicode hex="1CF6"/>
  <outline>
    <contour>
      <point x="545" y="158" type="curve" smooth="yes"/>
      <point x="645" y="158"/>
      <point x="702" y="244"/>
      <point x="707" y="419" type="curve"/>
      <point x="680" y="434" type="line"/>
      <point x="672" y="430" type="line"/>
      <point x="664" y="307"/>
      <point x="614" y="252"/>
      <point x="542" y="252" type="curve" smooth="yes"/>
      <point x="478" y="252"/>
      <point x="424" y="296"/>
      <point x="408" y="408" type="curve"/>
      <point x="381" y="424" type="line"/>
      <point x="373" y="420" type="line"/>
      <point x="376" y="307" type="line"/>
      <point x="394" y="307" type="line"/>
      <point x="419" y="205"/>
      <point x="471" y="158"/>
    </contour>
    <contour>
      <point x="248" y="158" type="curve" smooth="yes"/>
      <point x="324" y="158"/>
      <point x="377" y="206"/>
      <point x="396" y="331" type="curve"/>
      <point x="373" y="420" type="line"/>
      <point x="362" y="297"/>
      <point x="311" y="252"/>
      <point x="244" y="252" type="curve" smooth="yes"/>
      <point x="173" y="252"/>
      <point x="125" y="303"/>
      <point x="111" y="417" type="curve"/>
      <point x="79" y="428" type="line"/>
      <point x="70" y="424" type="line"/>
      <point x="82" y="246"/>
      <point x="146" y="158"/>
    </contour>
  </outline>
  <guideline angle="0" x="0" y="408"/>
</glyph>
<glyph name="dAvagrahacomb" format="2">
  <unicode hex="A8F1"/>
  <outline>
    <contour>
      <point x="-36" y="921" type="line"/>
      <point x="-73" y="962" type="line"/>
      <point x="-82" y="963"/>
      <point x="-98" y="964"/>
      <point x="-111" y="964" type="curve" smooth="yes"/>
      <point x="-189" y="964"/>
      <point x="-209" y="929"/>
      <point x="-209" y="898" type="curve" smooth="yes"/>
      <point x="-209" y="858"/>
      <point x="-171" y="836"/>
      <point x="-136" y="816" type="curve" smooth="yes"/>
      <point x="-93" y="791"/>
      <point x="-75" y="782"/>
      <point x="-75" y="756" type="curve" smooth="yes"/>
      <point x="-75" y="729"/>
      <point x="-97" y="714"/>
      <point x="-123" y="714" type="curve" smooth="yes"/>
      <point x="-159" y="714"/>
      <point x="-185" y="742"/>
      <point x="-216" y="777" type="curve"/>
      <point x="-221" y="777" type="line"/>
      <point x="-211" y="739" type="line"/>
      <point x="-186" y="707"/>
      <point x="-156" y="668"/>
      <point x="-107" y="668" type="curve" smooth="yes"/>
      <point x="-64" y="668"/>
      <point x="-28" y="697"/>
      <point x="-28" y="741" type="curve" smooth="yes"/>
      <point x="-28" y="788"/>
      <point x="-67" y="813"/>
      <point x="-103" y="834" type="curve" smooth="yes"/>
      <point x="-142" y="857"/>
      <point x="-161" y="868"/>
      <point x="-161" y="892" type="curve" smooth="yes"/>
      <point x="-161" y="906"/>
      <point x="-150" y="919"/>
      <point x="-102" y="919" type="curve" smooth="yes"/>
      <point x="-89" y="919"/>
      <point x="-63" y="918"/>
      <point x="-36" y="916" type="curve"/>
    </contour>
  </outline>
  <guideline angle="90" x="81" y="0"/>
  <guideline angle="90" x="-126" y="0"/>
</glyph>
<glyph name="bAnusvaraVedic.alt" format="2">
  <outline>
    <contour>
      <point x="430" y="546" type="curve" smooth="yes"/>
      <point x="466" y="546"/>
      <point x="493" y="575"/>
      <point x="493" y="610" type="curve" smooth="yes"/>
      <point x="493" y="645"/>
      <point x="466" y="673"/>
      <point x="430" y="673" type="curve" smooth="yes"/>
      <point x="394" y="673"/>
      <point x="366" y="645"/>
      <point x="366" y="610" type="curve" smooth="yes"/>
      <point x="366" y="575"/>
      <point x="394" y="546"/>
    </contour>
    <contour>
      <point x="453" y="1" type="curve" smooth="yes"/>
      <point x="575" y="1"/>
      <point x="666" y="88"/>
      <point x="666" y="223" type="curve" smooth="yes"/>
      <point x="666" y="324"/>
      <point x="614" y="383"/>
      <point x="614" y="453" type="curve" smooth="yes"/>
      <point x="614" y="512"/>
      <point x="652" y="551"/>
      <point x="704" y="551" type="curve" smooth="yes"/>
      <point x="742" y="551"/>
      <point x="778" y="530"/>
      <point x="778" y="497" type="curve" smooth="yes"/>
      <point x="778" y="481"/>
      <point x="770" y="464"/>
      <point x="758" y="457" type="curve"/>
      <point x="744" y="474"/>
      <point x="728" y="483"/>
      <point x="707" y="483" type="curve" smooth="yes"/>
      <point x="670" y="483"/>
      <point x="649" y="454"/>
      <point x="649" y="425" type="curve" smooth="yes"/>
      <point x="649" y="395"/>
      <point x="671" y="363"/>
      <point x="716" y="363" type="curve" smooth="yes"/>
      <point x="766" y="363"/>
      <point x="815" y="402"/>
      <point x="815" y="485" type="curve" smooth="yes"/>
      <point x="815" y="580"/>
      <point x="751" y="620"/>
      <point x="691" y="620" type="curve" smooth="yes"/>
      <point x="612" y="620"/>
      <point x="567" y="551"/>
      <point x="567" y="475" type="curve" smooth="yes"/>
      <point x="567" y="405"/>
      <point x="605" y="339"/>
      <point x="605" y="259" type="curve" smooth="yes"/>
      <point x="605" y="124"/>
      <point x="495" y="96"/>
      <point x="429" y="96" type="curve" smooth="yes"/>
      <point x="372" y="96"/>
      <point x="261" y="117"/>
      <point x="261" y="238" type="curve" smooth="yes"/>
      <point x="261" y="310"/>
      <point x="301" y="381"/>
      <point x="301" y="441" type="curve" smooth="yes"/>
      <point x="301" y="511"/>
      <point x="246" y="620"/>
      <point x="149" y="620" type="curve" smooth="yes"/>
      <point x="77" y="620"/>
      <point x="29" y="561"/>
      <point x="29" y="493" type="curve" smooth="yes"/>
      <point x="29" y="432"/>
      <point x="68" y="371"/>
      <point x="131" y="371" type="curve" smooth="yes"/>
      <point x="174" y="371"/>
      <point x="193" y="400"/>
      <point x="193" y="430" type="curve" smooth="yes"/>
      <point x="193" y="464"/>
      <point x="168" y="485"/>
      <point x="139" y="485" type="curve" smooth="yes"/>
      <point x="132" y="485"/>
      <point x="124" y="484"/>
      <point x="116" y="481" type="curve"/>
      <point x="113" y="489"/>
      <point x="111" y="497"/>
      <point x="111" y="505" type="curve" smooth="yes"/>
      <point x="111" y="536"/>
      <point x="138" y="557"/>
      <point x="177" y="557" type="curve" smooth="yes"/>
      <point x="208" y="557"/>
      <point x="238" y="543"/>
      <point x="238" y="492" type="curve" smooth="yes"/>
      <point x="238" y="429"/>
      <point x="192" y="352"/>
      <point x="192" y="260" type="curve" smooth="yes"/>
      <point x="192" y="110"/>
      <point x="315" y="1"/>
    </contour>
  </outline>
</glyph>
<glyph name="bAuMark.fina" format="2">
  <advance width="247"/>
  <outline>
    <contour>
      <point x="174" y="-43" type="line"/>
      <point x="165" y="604" type="line" smooth="yes"/>
      <point x="164" y="711"/>
      <point x="107" y="785"/>
      <point x="-34" y="785" type="curve" smooth="yes"/>
      <point x="-84" y="785"/>
      <point x="-226" y="776"/>
      <point x="-291" y="776" type="curve" smooth="yes"/>
      <point x="-372" y="776"/>
      <point x="-405" y="791"/>
      <point x="-405" y="830" type="curve" smooth="yes"/>
      <point x="-405" y="843"/>
      <point x="-401" y="858"/>
      <point x="-389" y="876" type="curve"/>
      <point x="-413" y="896" type="line"/>
      <point x="-421" y="896" type="line"/>
      <point x="-441" y="873"/>
      <point x="-449" y="845"/>
      <point x="-449" y="821" type="curve" smooth="yes"/>
      <point x="-449" y="748"/>
      <point x="-381" y="694"/>
      <point x="-245" y="694" type="curve" smooth="yes"/>
      <point x="-187" y="694"/>
      <point x="-46" y="704"/>
      <point x="8" y="704" type="curve" smooth="yes"/>
      <point x="90" y="704"/>
      <point x="117" y="682"/>
      <point x="117" y="655" type="curve" smooth="yes"/>
      <point x="117" y="641"/>
      <point x="109" y="623"/>
      <point x="87" y="603" type="curve"/>
      <point x="97" y="568" type="line"/>
      <point x="95" y="10" type="line"/>
      <point x="163" y="-43" type="line"/>
    </contour>
    <contour>
      <point x="110" y="552" type="line"/>
      <point x="110" y="620" type="line"/>
      <point x="-50" y="620" type="line"/>
      <point x="-50" y="612" type="line"/>
      <point x="10" y="552" type="line"/>
    </contour>
  </outline>
</glyph>
<glyph name="bAuMarkReph.alt" format="2">
  <advance width="247"/>
  <outline>
    <contour>
      <point x="166" y="604" type="line"/>
      <point x="161" y="711"/>
      <point x="120" y="794"/>
      <point x="-27" y="794" type="curve" smooth="yes"/>
      <point x="-66" y="794"/>
      <point x="-169" y="784"/>
      <point x="-220" y="784" type="curve" smooth="yes"/>
      <point x="-291" y="784"/>
      <point x="-320" y="799"/>
      <point x="-320" y="838" type="curve" smooth="yes"/>
      <point x="-320" y="851"/>
      <point x="-316" y="866"/>
      <point x="-304" y="884" type="curve"/>
      <point x="-328" y="904" type="line"/>
      <point x="-336" y="904" type="line"/>
      <point x="-356" y="881"/>
      <point x="-364" y="853"/>
      <point x="-364" y="829" type="curve" smooth="yes"/>
      <point x="-364" y="764"/>
      <point x="-300" y="710"/>
      <point x="-177" y="710" type="curve" smooth="yes"/>
      <point x="-132" y="710"/>
      <point x="-25" y="720"/>
      <point x="16" y="720" type="curve" smooth="yes"/>
      <point x="94" y="720"/>
      <point x="117" y="687"/>
      <point x="117" y="655" type="curve" smooth="yes"/>
      <point x="117" y="641"/>
      <point x="109" y="623"/>
      <point x="88" y="604" type="curve"/>
    </contour>
    <contour>
      <point x="174" y="-43" type="line"/>
      <point x="166" y="568" type="line"/>
      <point x="97" y="568" type="line"/>
      <point x="95" y="10" type="line"/>
      <point x="163" y="-43" type="line"/>
    </contour>
    <contour>
      <point x="257" y="552" type="line"/>
      <point x="257" y="560" type="line"/>
      <point x="197" y="620" type="line"/>
      <point x="-50" y="620" type="line"/>
      <point x="-50" y="612" type="line"/>
      <point x="10" y="552" type="line"/>
    </contour>
    <contour>
      <point x="103" y="911" type="line"/>
      <point x="103" y="915" type="line"/>
      <point x="81" y="921" type="line"/>
      <point x="-188" y="748" type="line"/>
      <point x="-94" y="734" type="line"/>
    </contour>
  </outline>
</glyph>
<glyph name="bAuMarkReph.fina" format="2">
  <advance width="247"/>
  <outline>
    <contour>
      <point x="174" y="-43" type="line"/>
      <point x="165" y="604" type="line" smooth="yes"/>
      <point x="163" y="728"/>
      <point x="82" y="785"/>
      <point x="-25" y="785" type="curve" smooth="yes"/>
      <point x="-100" y="785"/>
      <point x="-210" y="776"/>
      <point x="-301" y="776" type="curve" smooth="yes"/>
      <point x="-367" y="776"/>
      <point x="-405" y="791"/>
      <point x="-405" y="830" type="curve" smooth="yes"/>
      <point x="-405" y="843"/>
      <point x="-401" y="858"/>
      <point x="-389" y="876" type="curve"/>
      <point x="-413" y="896" type="line"/>
      <point x="-421" y="896" type="line"/>
      <point x="-441" y="873"/>
      <point x="-449" y="845"/>
      <point x="-449" y="821" type="curve" smooth="yes"/>
      <point x="-449" y="754"/>
      <point x="-386" y="697"/>
      <point x="-268" y="697" type="curve" smooth="yes"/>
      <point x="-196" y="697"/>
      <point x="-136" y="709"/>
      <point x="15" y="709" type="curve" smooth="yes"/>
      <point x="83" y="709"/>
      <point x="117" y="682"/>
      <point x="117" y="655" type="curve" smooth="yes"/>
      <point x="117" y="641"/>
      <point x="109" y="623"/>
      <point x="87" y="603" type="curve"/>
      <point x="97" y="568" type="line"/>
      <point x="95" y="10" type="line"/>
      <point x="163" y="-43" type="line"/>
    </contour>
    <contour>
      <point x="113" y="552" type="line"/>
      <point x="113" y="620" type="line"/>
      <point x="-50" y="620" type="line"/>
      <point x="-50" y="612" type="line"/>
      <point x="10" y="552" type="line"/>
    </contour>
    <contour>
      <point x="177" y="911" type="line"/>
      <point x="177" y="915" type="line"/>
      <point x="155" y="921" type="line"/>
      <point x="-114" y="748" type="line"/>
      <point x="-20" y="734" type="line"/>
    </contour>
  </outline>
</glyph>
<glyph name="bAuMarkReph.finaalt2" format="2">
  <advance width="237"/>
  <outline>
    <contour>
      <point x="164" y="-43" type="line"/>
      <point x="155" y="601" type="line" smooth="yes"/>
      <point x="153" y="717"/>
      <point x="101" y="792"/>
      <point x="-31" y="792" type="curve" smooth="yes"/>
      <point x="-98" y="792"/>
      <point x="-289" y="772"/>
      <point x="-390" y="772" type="curve" smooth="yes"/>
      <point x="-446" y="772"/>
      <point x="-467" y="796"/>
      <point x="-467" y="830" type="curve" smooth="yes"/>
      <point x="-467" y="847"/>
      <point x="-461" y="864"/>
      <point x="-451" y="879" type="curve"/>
      <point x="-475" y="899" type="line"/>
      <point x="-483" y="899" type="line"/>
      <point x="-502" y="876"/>
      <point x="-511" y="852"/>
      <point x="-511" y="823" type="curve" smooth="yes"/>
      <point x="-511" y="753"/>
      <point x="-459" y="700"/>
      <point x="-344" y="700" type="curve" smooth="yes"/>
      <point x="-262" y="700"/>
      <point x="-55" y="720"/>
      <point x="6" y="720" type="curve" smooth="yes"/>
      <point x="84" y="720"/>
      <point x="107" y="687"/>
      <point x="107" y="656" type="curve" smooth="yes"/>
      <point x="107" y="641"/>
      <point x="101" y="625"/>
      <point x="75" y="601" type="curve"/>
      <point x="87" y="568" type="line"/>
      <point x="85" y="10" type="line"/>
      <point x="153" y="-43" type="line"/>
    </contour>
    <contour>
      <point x="99" y="552" type="line"/>
      <point x="99" y="620" type="line"/>
      <point x="-50" y="620" type="line"/>
      <point x="-50" y="612" type="line"/>
      <point x="10" y="552" type="line"/>
    </contour>
    <contour>
      <point x="101" y="911" type="line"/>
      <point x="101" y="915" type="line"/>
      <point x="79" y="921" type="line"/>
      <point x="-190" y="748" type="line"/>
      <point x="-96" y="734" type="line"/>
    </contour>
  </outline>
</glyph>
<glyph name="bBBa" format="2">
  <advance width="916"/>
  <outline>
    <contour>
      <point x="378" y="132" type="line"/>
      <point x="362" y="121" type="line"/>
      <point x="288" y="224"/>
      <point x="213" y="272"/>
      <point x="141" y="302" type="curve"/>
      <point x="141" y="304" type="line"/>
      <point x="215" y="353"/>
      <point x="293" y="395"/>
      <point x="370" y="428" type="curve"/>
      <point x="370" y="524" type="line"/>
      <point x="270" y="485"/>
      <point x="139" y="411"/>
      <point x="8" y="328" type="curve"/>
      <point x="87" y="229" type="line"/>
      <point x="254" y="204"/>
      <point x="366" y="87"/>
      <point x="398" y="-16" type="curve"/>
    </contour>
    <contour>
      <point x="437" y="-33" type="line"/>
      <point x="434" y="68"/>
      <point x="433" y="132"/>
      <point x="433" y="208" type="curve" smooth="yes"/>
      <point x="433" y="246"/>
      <point x="433" y="260"/>
      <point x="432" y="324" type="curve"/>
      <point x="433" y="331" type="line"/>
      <point x="433" y="568" type="line"/>
      <point x="355" y="568" type="line"/>
      <point x="355" y="502" type="line"/>
      <point x="355" y="446" type="line" smooth="yes"/>
      <point x="355" y="279"/>
      <point x="356" y="164"/>
      <point x="366" y="116" type="curve"/>
      <point x="398" y="-16" type="line"/>
      <point x="426" y="-33" type="line"/>
    </contour>
    <contour>
      <point x="785" y="132" type="line"/>
      <point x="769" y="121" type="line"/>
      <point x="695" y="225"/>
      <point x="620" y="274"/>
      <point x="548" y="304" type="curve"/>
      <point x="548" y="306" type="line"/>
      <point x="622" y="354"/>
      <point x="700" y="396"/>
      <point x="779" y="429" type="curve"/>
      <point x="779" y="525" type="line"/>
      <point x="678" y="484"/>
      <point x="554" y="416"/>
      <point x="422" y="330" type="curve"/>
      <point x="422" y="309" type="line"/>
      <point x="434" y="316" type="line"/>
      <point x="494" y="231" type="line"/>
      <point x="662" y="206"/>
      <point x="774" y="86"/>
      <point x="808" y="-16" type="curve"/>
    </contour>
    <contour>
      <point x="926" y="552" type="line"/>
      <point x="926" y="560" type="line"/>
      <point x="866" y="620" type="line"/>
      <point x="-50" y="620" type="line"/>
      <point x="-50" y="612" type="line"/>
      <point x="10" y="552" type="line"/>
    </contour>
    <contour>
      <point x="847" y="-33" type="line"/>
      <point x="842" y="68"/>
      <point x="841" y="132"/>
      <point x="841" y="208" type="curve" smooth="yes"/>
      <point x="841" y="568" type="line"/>
      <point x="762" y="568" type="line"/>
      <point x="762" y="502" type="line"/>
      <point x="762" y="446" type="line" smooth="yes"/>
      <point x="762" y="279"/>
      <point x="763" y="164"/>
      <point x="773" y="116" type="curve"/>
      <point x="808" y="-16" type="line"/>
      <point x="836" y="-33" type="line"/>
    </contour>
  </outline>
</glyph>
<glyph name="bBBha" format="2">
  <advance width="689"/>
  <outline>
    <contour>
      <point x="432" y="-83" type="curve" smooth="yes"/>
      <point x="574" y="-83"/>
      <point x="646" y="7"/>
      <point x="646" y="106" type="curve" smooth="yes"/>
      <point x="646" y="173"/>
      <point x="613" y="244"/>
      <point x="539" y="290" type="curve"/>
      <point x="535" y="289" type="line"/>
      <point x="498" y="210"/>
      <point x="454" y="175"/>
      <point x="391" y="164" type="curve"/>
      <point x="390" y="166" type="line"/>
      <point x="398" y="178"/>
      <point x="401" y="190"/>
      <point x="401" y="202" type="curve" smooth="yes"/>
      <point x="401" y="237"/>
      <point x="371" y="257"/>
      <point x="340" y="257" type="curve" smooth="yes"/>
      <point x="306" y="257"/>
      <point x="269" y="235"/>
      <point x="269" y="189" type="curve" smooth="yes"/>
      <point x="269" y="139"/>
      <point x="316" y="91"/>
      <point x="394" y="91" type="curve" smooth="yes"/>
      <point x="466" y="91"/>
      <point x="527" y="131"/>
      <point x="570" y="201" type="curve"/>
      <point x="588" y="175"/>
      <point x="596" y="152"/>
      <point x="596" y="131" type="curve" smooth="yes"/>
      <point x="596" y="59"/>
      <point x="511" y="12"/>
      <point x="418" y="12" type="curve" smooth="yes"/>
      <point x="280" y="12"/>
      <point x="146" y="117"/>
      <point x="75" y="490" type="curve"/>
      <point x="45" y="499" type="line"/>
      <point x="35" y="499" type="line"/>
      <point x="98" y="42"/>
      <point x="264" y="-83"/>
    </contour>
    <contour>
      <point x="503" y="299" type="line"/>
      <point x="485" y="293" type="line"/>
      <point x="438" y="336"/>
      <point x="384" y="366"/>
      <point x="323" y="381" type="curve"/>
      <point x="322" y="385" type="line"/>
      <point x="379" y="412"/>
      <point x="436" y="436"/>
      <point x="496" y="454" type="curve"/>
      <point x="496" y="539" type="line"/>
      <point x="386" y="499"/>
      <point x="280" y="455"/>
      <point x="191" y="410" type="curve"/>
      <point x="257" y="326" type="line"/>
      <point x="368" y="326"/>
      <point x="456" y="296"/>
      <point x="514" y="219" type="curve"/>
    </contour>
    <contour>
      <point x="699" y="552" type="line"/>
      <point x="699" y="560" type="line"/>
      <point x="639" y="620" type="line"/>
      <point x="-50" y="620" type="line"/>
      <point x="-50" y="612" type="line"/>
      <point x="10" y="552" type="line"/>
    </contour>
    <contour>
      <point x="556" y="266" type="line"/>
      <point x="553" y="294"/>
      <point x="553" y="329"/>
      <point x="553" y="356" type="curve" smooth="yes"/>
      <point x="553" y="572" type="line"/>
      <point x="480" y="572" type="line"/>
      <point x="480" y="380" type="line" smooth="yes"/>
      <point x="480" y="323"/>
      <point x="486" y="301"/>
      <point x="490" y="286" type="curve"/>
      <point x="514" y="219" type="line"/>
    </contour>
  </outline>
</glyph>
